<svg version="1.1" viewBox="0.0 0.0 960.0 540.0" fill="none" stroke="none" stroke-linecap="square" stroke-miterlimit="10" xmlns:xlink="http://www.w3.org/1999/xlink" xmlns="http://www.w3.org/2000/svg"><clipPath id="g3a92d13fcf8_0_285.0"><path d="m0 0l960.0 0l0 540.0l-960.0 0l0 -540.0z" clip-rule="nonzero"/></clipPath><g clip-path="url(#g3a92d13fcf8_0_285.0)"><path fill="#000000" fill-opacity="0.0" d="m0 0l960.0 0l0 540.0l-960.0 0z" fill-rule="evenodd"/><path fill="#666666" d="m326.06042 85.844376l0 0c0 -7.1944427 6.0264893 -13.026688 13.460541 -13.026688l0 0c3.5699463 0 6.993683 1.3724518 9.518036 3.8154297c2.524353 2.442978 3.942505 5.756363 3.942505 9.211258l0 0c0 7.194435 -6.0264893 13.02668 -13.460541 13.02668l0 0c-7.4340515 0 -13.460541 -5.832245 -13.460541 -13.02668z" fill-rule="evenodd"/><path stroke="#666666" stroke-width="2.120734908136483" stroke-linejoin="round" stroke-linecap="butt" d="m326.06042 85.844376l0 0c0 -7.1944427 6.0264893 -13.026688 13.460541 -13.026688l0 0c3.5699463 0 6.993683 1.3724518 9.518036 3.8154297c2.524353 2.442978 3.942505 5.756363 3.942505 9.211258l0 0c0 7.194435 -6.0264893 13.02668 -13.460541 13.02668l0 0c-7.4340515 0 -13.460541 -5.832245 -13.460541 -13.02668z" fill-rule="evenodd"/><path fill="#666666" d="m359.53934 85.844376l0 0c0 -7.1944427 6.0264893 -13.026688 13.460541 -13.026688l0 0c3.5699463 0 6.993683 1.3724518 9.518036 3.8154297c2.5243225 2.442978 3.942505 5.756363 3.942505 9.211258l0 0c0 7.194435 -6.0264893 13.02668 -13.460541 13.02668l0 0c-7.4340515 0 -13.460541 -5.832245 -13.460541 -13.02668z" fill-rule="evenodd"/><path stroke="#666666" stroke-width="2.120734908136483" stroke-linejoin="round" stroke-linecap="butt" d="m359.53934 85.844376l0 0c0 -7.1944427 6.0264893 -13.026688 13.460541 -13.026688l0 0c3.5699463 0 6.993683 1.3724518 9.518036 3.8154297c2.5243225 2.442978 3.942505 5.756363 3.942505 9.211258l0 0c0 7.194435 -6.0264893 13.02668 -13.460541 13.02668l0 0c-7.4340515 0 -13.460541 -5.832245 -13.460541 -13.02668z" fill-rule="evenodd"/><path fill="#666666" d="m359.45572 85.844376l0 0c0 -7.1944427 6.0264893 -13.026688 13.460541 -13.026688l0 0c3.5699768 0 6.9937134 1.3724518 9.518036 3.8154297c2.524353 2.442978 3.942505 5.756363 3.942505 9.211258l0 0c0 7.194435 -6.0264893 13.02668 -13.460541 13.02668l0 0c-7.4340515 0 -13.460541 -5.832245 -13.460541 -13.02668z" fill-rule="evenodd"/><path stroke="#666666" stroke-width="2.120734908136483" stroke-linejoin="round" stroke-linecap="butt" d="m359.45572 85.844376l0 0c0 -7.1944427 6.0264893 -13.026688 13.460541 -13.026688l0 0c3.5699768 0 6.9937134 1.3724518 9.518036 3.8154297c2.524353 2.442978 3.942505 5.756363 3.942505 9.211258l0 0c0 7.194435 -6.0264893 13.02668 -13.460541 13.02668l0 0c-7.4340515 0 -13.460541 -5.832245 -13.460541 -13.02668z" fill-rule="evenodd"/><path fill="#666666" d="m392.93463 85.844376l0 0c0 -7.1944427 6.0264893 -13.026688 13.460541 -13.026688l0 0c3.5699463 0 6.993683 1.3724518 9.518036 3.8154297c2.524353 2.442978 3.942505 5.756363 3.942505 9.211258l0 0c0 7.194435 -6.0264893 13.02668 -13.460541 13.02668l0 0c-7.4340515 0 -13.460541 -5.832245 -13.460541 -13.02668z" fill-rule="evenodd"/><path stroke="#666666" stroke-width="2.120734908136483" stroke-linejoin="round" stroke-linecap="butt" d="m392.93463 85.844376l0 0c0 -7.1944427 6.0264893 -13.026688 13.460541 -13.026688l0 0c3.5699463 0 6.993683 1.3724518 9.518036 3.8154297c2.524353 2.442978 3.942505 5.756363 3.942505 9.211258l0 0c0 7.194435 -6.0264893 13.02668 -13.460541 13.02668l0 0c-7.4340515 0 -13.460541 -5.832245 -13.460541 -13.02668z" fill-rule="evenodd"/><path fill="#666666" d="m541.1631 85.844376l0 0c0 -7.1944427 6.0264893 -13.026688 13.460571 -13.026688l0 0c3.5699463 0 6.9936523 1.3724518 9.518005 3.8154297c2.524353 2.442978 3.942505 5.756363 3.942505 9.211258l0 0c0 7.194435 -6.0264893 13.02668 -13.46051 13.02668l0 0c-7.434082 0 -13.460571 -5.832245 -13.460571 -13.02668z" fill-rule="evenodd"/><path stroke="#666666" stroke-width="2.120734908136483" stroke-linejoin="round" stroke-linecap="butt" d="m541.1631 85.844376l0 0c0 -7.1944427 6.0264893 -13.026688 13.460571 -13.026688l0 0c3.5699463 0 6.9936523 1.3724518 9.518005 3.8154297c2.524353 2.442978 3.942505 5.756363 3.942505 9.211258l0 0c0 7.194435 -6.0264893 13.02668 -13.46051 13.02668l0 0c-7.434082 0 -13.460571 -5.832245 -13.460571 -13.02668z" fill-rule="evenodd"/><path fill="#666666" d="m574.642 85.844376l0 0c0 -7.1944427 6.0264893 -13.026688 13.46051 -13.026688l0 0c3.5699463 0 6.9937134 1.3724518 9.518005 3.8154297c2.524353 2.442978 3.942505 5.756363 3.942505 9.211258l0 0c0 7.194435 -6.0264893 13.02668 -13.46051 13.02668l0 0c-7.434021 0 -13.46051 -5.832245 -13.46051 -13.02668z" fill-rule="evenodd"/><path stroke="#666666" stroke-width="2.120734908136483" stroke-linejoin="round" stroke-linecap="butt" d="m574.642 85.844376l0 0c0 -7.1944427 6.0264893 -13.026688 13.46051 -13.026688l0 0c3.5699463 0 6.9937134 1.3724518 9.518005 3.8154297c2.524353 2.442978 3.942505 5.756363 3.942505 9.211258l0 0c0 7.194435 -6.0264893 13.02668 -13.46051 13.02668l0 0c-7.434021 0 -13.46051 -5.832245 -13.46051 -13.02668z" fill-rule="evenodd"/><path fill="#666666" d="m573.55493 85.844376l0 0c0 -7.1944427 6.0264893 -13.026688 13.46051 -13.026688l0 0c3.5700073 0 6.9937134 1.3724518 9.518066 3.8154297c2.524353 2.442978 3.942505 5.756363 3.942505 9.211258l0 0c0 7.194435 -6.0264893 13.02668 -13.460571 13.02668l0 0c-7.434021 0 -13.46051 -5.832245 -13.46051 -13.02668z" fill-rule="evenodd"/><path stroke="#666666" stroke-width="2.120734908136483" stroke-linejoin="round" stroke-linecap="butt" d="m573.55493 85.844376l0 0c0 -7.1944427 6.0264893 -13.026688 13.46051 -13.026688l0 0c3.5700073 0 6.9937134 1.3724518 9.518066 3.8154297c2.524353 2.442978 3.942505 5.756363 3.942505 9.211258l0 0c0 7.194435 -6.0264893 13.02668 -13.460571 13.02668l0 0c-7.434021 0 -13.46051 -5.832245 -13.46051 -13.02668z" fill-rule="evenodd"/><path fill="#666666" d="m607.0338 85.844376l0 0c0 -7.1944427 6.0264893 -13.026688 13.460571 -13.026688l0 0c3.5699463 0 6.9937134 1.3724518 9.518005 3.8154297c2.524353 2.442978 3.942505 5.756363 3.942505 9.211258l0 0c0 7.194435 -6.0264893 13.02668 -13.46051 13.02668l0 0c-7.434082 0 -13.460571 -5.832245 -13.460571 -13.02668z" fill-rule="evenodd"/><path stroke="#666666" stroke-width="2.120734908136483" stroke-linejoin="round" stroke-linecap="butt" d="m607.0338 85.844376l0 0c0 -7.1944427 6.0264893 -13.026688 13.460571 -13.026688l0 0c3.5699463 0 6.9937134 1.3724518 9.518005 3.8154297c2.524353 2.442978 3.942505 5.756363 3.942505 9.211258l0 0c0 7.194435 -6.0264893 13.02668 -13.46051 13.02668l0 0c-7.434082 0 -13.460571 -5.832245 -13.460571 -13.02668z" fill-rule="evenodd"/><path fill="#666666" d="m466.41296 173.14049l0 0c0 -7.752548 6.493988 -14.037231 14.50473 -14.037231l0 0c3.8468933 0 7.5362244 1.4789124 10.256409 4.1114044c2.7201538 2.632492 4.248352 6.2029266 4.248352 9.925827l0 0c0 7.752548 -6.4940186 14.037231 -14.504761 14.037231l0 0c-8.010742 0 -14.50473 -6.284683 -14.50473 -14.037231z" fill-rule="evenodd"/><path stroke="#666666" stroke-width="2.283464566929134" stroke-linejoin="round" stroke-linecap="butt" d="m466.41296 173.14049l0 0c0 -7.752548 6.493988 -14.037231 14.50473 -14.037231l0 0c3.8468933 0 7.5362244 1.4789124 10.256409 4.1114044c2.7201538 2.632492 4.248352 6.2029266 4.248352 9.925827l0 0c0 7.752548 -6.4940186 14.037231 -14.504761 14.037231l0 0c-8.010742 0 -14.50473 -6.284683 -14.50473 -14.037231z" fill-rule="evenodd"/><path fill="#666666" d="m466.41296 208.02179l0 0c0 -7.752548 6.493988 -14.037231 14.50473 -14.037231l0 0c3.8468933 0 7.5362244 1.4789124 10.256409 4.1114044c2.7201538 2.632492 4.248352 6.2029266 4.248352 9.925827l0 0c0 7.752548 -6.4940186 14.037231 -14.504761 14.037231l0 0c-8.010742 0 -14.50473 -6.284683 -14.50473 -14.037231z" fill-rule="evenodd"/><path stroke="#666666" stroke-width="2.283464566929134" stroke-linejoin="round" stroke-linecap="butt" d="m466.41296 208.02179l0 0c0 -7.752548 6.493988 -14.037231 14.50473 -14.037231l0 0c3.8468933 0 7.5362244 1.4789124 10.256409 4.1114044c2.7201538 2.632492 4.248352 6.2029266 4.248352 9.925827l0 0c0 7.752548 -6.4940186 14.037231 -14.504761 14.037231l0 0c-8.010742 0 -14.50473 -6.284683 -14.50473 -14.037231z" fill-rule="evenodd"/><path fill="#666666" d="m466.41296 207.5359l0 0c0 -7.752548 6.493988 -14.037231 14.50473 -14.037231l0 0c3.8468933 0 7.5362244 1.4789276 10.256409 4.1114197c2.7201538 2.632492 4.248352 6.2029114 4.248352 9.925812l0 0c0 7.752548 -6.4940186 14.037231 -14.504761 14.037231l0 0c-8.010742 0 -14.50473 -6.284683 -14.50473 -14.037231z" fill-rule="evenodd"/><path stroke="#666666" stroke-width="2.283464566929134" stroke-linejoin="round" stroke-linecap="butt" d="m466.41296 207.5359l0 0c0 -7.752548 6.493988 -14.037231 14.50473 -14.037231l0 0c3.8468933 0 7.5362244 1.4789276 10.256409 4.1114197c2.7201538 2.632492 4.248352 6.2029114 4.248352 9.925812l0 0c0 7.752548 -6.4940186 14.037231 -14.504761 14.037231l0 0c-8.010742 0 -14.50473 -6.284683 -14.50473 -14.037231z" fill-rule="evenodd"/><path fill="#666666" d="m466.41296 242.4172l0 0c0 -7.752548 6.493988 -14.037231 14.50473 -14.037231l0 0c3.8468933 0 7.5362244 1.4789276 10.256409 4.1114197c2.7201538 2.6324768 4.248352 6.2029114 4.248352 9.925812l0 0c0 7.752548 -6.4940186 14.037231 -14.504761 14.037231l0 0c-8.010742 0 -14.50473 -6.284683 -14.50473 -14.037231z" fill-rule="evenodd"/><path stroke="#666666" stroke-width="2.283464566929134" stroke-linejoin="round" stroke-linecap="butt" d="m466.41296 242.4172l0 0c0 -7.752548 6.493988 -14.037231 14.50473 -14.037231l0 0c3.8468933 0 7.5362244 1.4789276 10.256409 4.1114197c2.7201538 2.6324768 4.248352 6.2029114 4.248352 9.925812l0 0c0 7.752548 -6.4940186 14.037231 -14.504761 14.037231l0 0c-8.010742 0 -14.50473 -6.284683 -14.50473 -14.037231z" fill-rule="evenodd"/><path fill="#666666" d="m466.4113 241.92798l0 0c0 -7.752548 6.493988 -14.037231 14.50473 -14.037231l0 0c3.8468933 0 7.536255 1.4789276 10.256409 4.1114197c2.7201843 2.632492 4.248352 6.2029114 4.248352 9.925812l0 0c0 7.752548 -6.493988 14.037231 -14.504761 14.037231l0 0c-8.010742 0 -14.50473 -6.284683 -14.50473 -14.037231z" fill-rule="evenodd"/><path stroke="#666666" stroke-width="2.283464566929134" stroke-linejoin="round" stroke-linecap="butt" d="m466.4113 241.92798l0 0c0 -7.752548 6.493988 -14.037231 14.50473 -14.037231l0 0c3.8468933 0 7.536255 1.4789276 10.256409 4.1114197c2.7201843 2.632492 4.248352 6.2029114 4.248352 9.925812l0 0c0 7.752548 -6.493988 14.037231 -14.504761 14.037231l0 0c-8.010742 0 -14.50473 -6.284683 -14.50473 -14.037231z" fill-rule="evenodd"/><path fill="#666666" d="m466.4113 276.8093l0 0c0 -7.7525635 6.493988 -14.037231 14.50473 -14.037231l0 0c3.8468933 0 7.536255 1.4789124 10.256409 4.111389c2.7201843 2.6325073 4.248352 6.2029114 4.248352 9.925842l0 0c0 7.752533 -6.493988 14.037231 -14.504761 14.037231l0 0c-8.010742 0 -14.50473 -6.2846985 -14.50473 -14.037231z" fill-rule="evenodd"/><path stroke="#666666" stroke-width="2.283464566929134" stroke-linejoin="round" stroke-linecap="butt" d="m466.4113 276.8093l0 0c0 -7.7525635 6.493988 -14.037231 14.50473 -14.037231l0 0c3.8468933 0 7.536255 1.4789124 10.256409 4.111389c2.7201843 2.6325073 4.248352 6.2029114 4.248352 9.925842l0 0c0 7.752533 -6.493988 14.037231 -14.504761 14.037231l0 0c-8.010742 0 -14.50473 -6.2846985 -14.50473 -14.037231z" fill-rule="evenodd"/><path fill="#666666" d="m466.4113 276.4689l0 0c0 -7.752533 6.493988 -14.037231 14.50473 -14.037231l0 0c3.8468933 0 7.536255 1.4789124 10.256409 4.1114197c2.7201843 2.6324768 4.248352 6.2029114 4.248352 9.925812l0 0c0 7.7525635 -6.493988 14.037231 -14.504761 14.037231l0 0c-8.010742 0 -14.50473 -6.284668 -14.50473 -14.037231z" fill-rule="evenodd"/><path stroke="#666666" stroke-width="2.283464566929134" stroke-linejoin="round" stroke-linecap="butt" d="m466.4113 276.4689l0 0c0 -7.752533 6.493988 -14.037231 14.50473 -14.037231l0 0c3.8468933 0 7.536255 1.4789124 10.256409 4.1114197c2.7201843 2.6324768 4.248352 6.2029114 4.248352 9.925812l0 0c0 7.7525635 -6.493988 14.037231 -14.504761 14.037231l0 0c-8.010742 0 -14.50473 -6.284668 -14.50473 -14.037231z" fill-rule="evenodd"/><path fill="#666666" d="m466.4113 311.35022l0 0c0 -7.7525635 6.493988 -14.037231 14.50473 -14.037231l0 0c3.8468933 0 7.536255 1.4789124 10.256409 4.111389c2.7201843 2.6325073 4.248352 6.2029114 4.248352 9.925842l0 0c0 7.752533 -6.493988 14.037231 -14.504761 14.037231l0 0c-8.010742 0 -14.50473 -6.2846985 -14.50473 -14.037231z" fill-rule="evenodd"/><path stroke="#666666" stroke-width="2.283464566929134" stroke-linejoin="round" stroke-linecap="butt" d="m466.4113 311.35022l0 0c0 -7.7525635 6.493988 -14.037231 14.50473 -14.037231l0 0c3.8468933 0 7.536255 1.4789124 10.256409 4.111389c2.7201843 2.6325073 4.248352 6.2029114 4.248352 9.925842l0 0c0 7.752533 -6.493988 14.037231 -14.504761 14.037231l0 0c-8.010742 0 -14.50473 -6.2846985 -14.50473 -14.037231z" fill-rule="evenodd"/><path fill="#666666" d="m466.41464 310.71548l0 0c0 -7.7525635 6.493988 -14.037231 14.50473 -14.037231l0 0c3.8468933 0 7.5362244 1.4789124 10.256409 4.1114197c2.7201538 2.6324768 4.2483215 6.2029114 4.2483215 9.925812l0 0c0 7.752533 -6.493988 14.037231 -14.50473 14.037231l0 0c-8.010742 0 -14.50473 -6.2846985 -14.50473 -14.037231z" fill-rule="evenodd"/><path stroke="#666666" stroke-width="2.283464566929134" stroke-linejoin="round" stroke-linecap="butt" d="m466.41464 310.71548l0 0c0 -7.7525635 6.493988 -14.037231 14.50473 -14.037231l0 0c3.8468933 0 7.5362244 1.4789124 10.256409 4.1114197c2.7201538 2.6324768 4.2483215 6.2029114 4.2483215 9.925812l0 0c0 7.752533 -6.493988 14.037231 -14.50473 14.037231l0 0c-8.010742 0 -14.50473 -6.2846985 -14.50473 -14.037231z" fill-rule="evenodd"/><path fill="#666666" d="m466.41464 345.59677l0 0c0 -7.752533 6.493988 -14.037231 14.50473 -14.037231l0 0c3.8468933 0 7.5362244 1.4789124 10.256409 4.1114197c2.7201538 2.6324768 4.2483215 6.2029114 4.2483215 9.925812l0 0c0 7.7525635 -6.493988 14.037231 -14.50473 14.037231l0 0c-8.010742 0 -14.50473 -6.284668 -14.50473 -14.037231z" fill-rule="evenodd"/><path stroke="#666666" stroke-width="2.283464566929134" stroke-linejoin="round" stroke-linecap="butt" d="m466.41464 345.59677l0 0c0 -7.752533 6.493988 -14.037231 14.50473 -14.037231l0 0c3.8468933 0 7.5362244 1.4789124 10.256409 4.1114197c2.7201538 2.6324768 4.2483215 6.2029114 4.2483215 9.925812l0 0c0 7.7525635 -6.493988 14.037231 -14.50473 14.037231l0 0c-8.010742 0 -14.50473 -6.284668 -14.50473 -14.037231z" fill-rule="evenodd"/><path fill="#666666" d="m466.41464 345.40192l0 0c0 -7.7525635 6.493988 -14.037231 14.50473 -14.037231l0 0c3.8468933 0 7.5362244 1.4789124 10.256409 4.111389c2.7201538 2.6325073 4.2483215 6.2029114 4.2483215 9.925842l0 0c0 7.752533 -6.493988 14.037231 -14.50473 14.037231l0 0c-8.010742 0 -14.50473 -6.2846985 -14.50473 -14.037231z" fill-rule="evenodd"/><path stroke="#666666" stroke-width="2.283464566929134" stroke-linejoin="round" stroke-linecap="butt" d="m466.41464 345.40192l0 0c0 -7.7525635 6.493988 -14.037231 14.50473 -14.037231l0 0c3.8468933 0 7.5362244 1.4789124 10.256409 4.111389c2.7201538 2.6325073 4.2483215 6.2029114 4.2483215 9.925842l0 0c0 7.752533 -6.493988 14.037231 -14.50473 14.037231l0 0c-8.010742 0 -14.50473 -6.2846985 -14.50473 -14.037231z" fill-rule="evenodd"/><path fill="#666666" d="m466.41464 380.2832l0 0c0 -7.752533 6.493988 -14.037231 14.50473 -14.037231l0 0c3.8468933 0 7.5362244 1.4789124 10.256409 4.1114197c2.7201538 2.6324768 4.2483215 6.2029114 4.2483215 9.925812l0 0c0 7.7525635 -6.493988 14.037231 -14.50473 14.037231l0 0c-8.010742 0 -14.50473 -6.284668 -14.50473 -14.037231z" fill-rule="evenodd"/><path stroke="#666666" stroke-width="2.283464566929134" stroke-linejoin="round" stroke-linecap="butt" d="m466.41464 380.2832l0 0c0 -7.752533 6.493988 -14.037231 14.50473 -14.037231l0 0c3.8468933 0 7.5362244 1.4789124 10.256409 4.1114197c2.7201538 2.6324768 4.2483215 6.2029114 4.2483215 9.925812l0 0c0 7.7525635 -6.493988 14.037231 -14.50473 14.037231l0 0c-8.010742 0 -14.50473 -6.284668 -14.50473 -14.037231z" fill-rule="evenodd"/><path fill="#000000" fill-opacity="0.0" d="m437.22797 84.48403l0 0c0 -21.039001 19.149536 -38.094486 42.771667 -38.094486l0 0c23.622131 0 42.771667 17.055485 42.771667 38.094486l0 0c0 21.03901 -19.149536 38.09449 -42.771667 38.09449l0 0c-23.622131 0 -42.771667 -17.055481 -42.771667 -38.09449z" fill-rule="evenodd"/><path stroke="#666666" stroke-width="3.8241469816272966" stroke-linejoin="round" stroke-linecap="butt" d="m437.22797 84.48403l0 0c0 -21.039001 19.149536 -38.094486 42.771667 -38.094486l0 0c23.622131 0 42.771667 17.055485 42.771667 38.094486l0 0c0 21.03901 -19.149536 38.09449 -42.771667 38.09449l0 0c-23.622131 0 -42.771667 -17.055481 -42.771667 -38.09449z" fill-rule="evenodd"/><path fill="#000000" fill-opacity="0.0" d="m225.09319 84.48403l0 0c0 -21.039001 19.14952 -38.094486 42.771652 -38.094486l0 0c23.622131 0 42.771667 17.055485 42.771667 38.094486l0 0c0 21.03901 -19.149536 38.09449 -42.771667 38.09449l0 0c-23.622131 0 -42.771652 -17.055481 -42.771652 -38.09449z" fill-rule="evenodd"/><path stroke="#666666" stroke-width="3.8241469816272966" stroke-linejoin="round" stroke-linecap="butt" d="m225.09319 84.48403l0 0c0 -21.039001 19.14952 -38.094486 42.771652 -38.094486l0 0c23.622131 0 42.771667 17.055485 42.771667 38.094486l0 0c0 21.03901 -19.149536 38.09449 -42.771667 38.09449l0 0c-23.622131 0 -42.771652 -17.055481 -42.771652 -38.09449z" fill-rule="evenodd"/><path fill="#000000" fill-opacity="0.0" d="m649.36273 84.48403l0 0c0 -21.039001 19.149536 -38.094486 42.771667 -38.094486l0 0c23.622131 0 42.771667 17.055485 42.771667 38.094486l0 0c0 21.03901 -19.149536 38.09449 -42.771667 38.09449l0 0c-23.622131 0 -42.771667 -17.055481 -42.771667 -38.09449z" fill-rule="evenodd"/><path stroke="#666666" stroke-width="3.8241469816272966" stroke-linejoin="round" stroke-linecap="butt" d="m649.36273 84.48403l0 0c0 -21.039001 19.149536 -38.094486 42.771667 -38.094486l0 0c23.622131 0 42.771667 17.055485 42.771667 38.094486l0 0c0 21.03901 -19.149536 38.09449 -42.771667 38.09449l0 0c-23.622131 0 -42.771667 -17.055481 -42.771667 -38.09449z" fill-rule="evenodd"/><path fill="#666666" d="m326.06027 456.87534l0 0c0 -7.194458 6.0264893 -13.026703 13.46051 -13.026703l0 0c3.5699768 0 6.9937134 1.372467 9.518036 3.8154297c2.524353 2.4429932 3.942505 5.756378 3.942505 9.211273l0 0c0 7.1944275 -6.0264893 13.026672 -13.460541 13.026672l0 0c-7.434021 0 -13.46051 -5.832245 -13.46051 -13.026672z" fill-rule="evenodd"/><path stroke="#666666" stroke-width="2.120734908136483" stroke-linejoin="round" stroke-linecap="butt" d="m326.06027 456.87534l0 0c0 -7.194458 6.0264893 -13.026703 13.46051 -13.026703l0 0c3.5699768 0 6.9937134 1.372467 9.518036 3.8154297c2.524353 2.4429932 3.942505 5.756378 3.942505 9.211273l0 0c0 7.1944275 -6.0264893 13.026672 -13.460541 13.026672l0 0c-7.434021 0 -13.46051 -5.832245 -13.46051 -13.026672z" fill-rule="evenodd"/><path fill="#666666" d="m359.53915 456.87534l0 0c0 -7.194458 6.0264893 -13.026703 13.460541 -13.026703l0 0c3.5699768 0 6.9937134 1.372467 9.518036 3.8154297c2.524353 2.4429932 3.942505 5.756378 3.942505 9.211273l0 0c0 7.1944275 -6.0264893 13.026672 -13.460541 13.026672l0 0c-7.4340515 0 -13.460541 -5.832245 -13.460541 -13.026672z" fill-rule="evenodd"/><path stroke="#666666" stroke-width="2.120734908136483" stroke-linejoin="round" stroke-linecap="butt" d="m359.53915 456.87534l0 0c0 -7.194458 6.0264893 -13.026703 13.460541 -13.026703l0 0c3.5699768 0 6.9937134 1.372467 9.518036 3.8154297c2.524353 2.4429932 3.942505 5.756378 3.942505 9.211273l0 0c0 7.1944275 -6.0264893 13.026672 -13.460541 13.026672l0 0c-7.4340515 0 -13.460541 -5.832245 -13.460541 -13.026672z" fill-rule="evenodd"/><path fill="#666666" d="m359.45557 456.87534l0 0c0 -7.194458 6.0264893 -13.026703 13.460541 -13.026703l0 0c3.5699463 0 6.993683 1.372467 9.518036 3.8154297c2.5243225 2.4429932 3.9424744 5.756378 3.9424744 9.211273l0 0c0 7.1944275 -6.0264587 13.026672 -13.46051 13.026672l0 0c-7.4340515 0 -13.460541 -5.832245 -13.460541 -13.026672z" fill-rule="evenodd"/><path stroke="#666666" stroke-width="2.120734908136483" stroke-linejoin="round" stroke-linecap="butt" d="m359.45557 456.87534l0 0c0 -7.194458 6.0264893 -13.026703 13.460541 -13.026703l0 0c3.5699463 0 6.993683 1.372467 9.518036 3.8154297c2.5243225 2.4429932 3.9424744 5.756378 3.9424744 9.211273l0 0c0 7.1944275 -6.0264587 13.026672 -13.46051 13.026672l0 0c-7.4340515 0 -13.460541 -5.832245 -13.460541 -13.026672z" fill-rule="evenodd"/><path fill="#666666" d="m392.93448 456.87534l0 0c0 -7.194458 6.0264893 -13.026703 13.46051 -13.026703l0 0c3.5699768 0 6.9937134 1.372467 9.518036 3.8154297c2.524353 2.4429932 3.942505 5.756378 3.942505 9.211273l0 0c0 7.1944275 -6.0264893 13.026672 -13.460541 13.026672l0 0c-7.434021 0 -13.46051 -5.832245 -13.46051 -13.026672z" fill-rule="evenodd"/><path stroke="#666666" stroke-width="2.120734908136483" stroke-linejoin="round" stroke-linecap="butt" d="m392.93448 456.87534l0 0c0 -7.194458 6.0264893 -13.026703 13.46051 -13.026703l0 0c3.5699768 0 6.9937134 1.372467 9.518036 3.8154297c2.524353 2.4429932 3.942505 5.756378 3.942505 9.211273l0 0c0 7.1944275 -6.0264893 13.026672 -13.460541 13.026672l0 0c-7.434021 0 -13.46051 -5.832245 -13.46051 -13.026672z" fill-rule="evenodd"/><path fill="#666666" d="m541.1629 456.87534l0 0c0 -7.194458 6.0264893 -13.026703 13.460571 -13.026703l0 0c3.5699463 0 6.9936523 1.372467 9.518005 3.8154297c2.524353 2.4429932 3.942505 5.756378 3.942505 9.211273l0 0c0 7.1944275 -6.0264893 13.026672 -13.46051 13.026672l0 0c-7.434082 0 -13.460571 -5.832245 -13.460571 -13.026672z" fill-rule="evenodd"/><path stroke="#666666" stroke-width="2.120734908136483" stroke-linejoin="round" stroke-linecap="butt" d="m541.1629 456.87534l0 0c0 -7.194458 6.0264893 -13.026703 13.460571 -13.026703l0 0c3.5699463 0 6.9936523 1.372467 9.518005 3.8154297c2.524353 2.4429932 3.942505 5.756378 3.942505 9.211273l0 0c0 7.1944275 -6.0264893 13.026672 -13.46051 13.026672l0 0c-7.434082 0 -13.460571 -5.832245 -13.460571 -13.026672z" fill-rule="evenodd"/><path fill="#666666" d="m574.64185 456.87534l0 0c0 -7.194458 6.0264893 -13.026703 13.46051 -13.026703l0 0c3.5699463 0 6.9937134 1.372467 9.518066 3.8154297c2.524292 2.4429932 3.942505 5.756378 3.942505 9.211273l0 0c0 7.1944275 -6.0264893 13.026672 -13.460571 13.026672l0 0c-7.434021 0 -13.46051 -5.832245 -13.46051 -13.026672z" fill-rule="evenodd"/><path stroke="#666666" stroke-width="2.120734908136483" stroke-linejoin="round" stroke-linecap="butt" d="m574.64185 456.87534l0 0c0 -7.194458 6.0264893 -13.026703 13.46051 -13.026703l0 0c3.5699463 0 6.9937134 1.372467 9.518066 3.8154297c2.524292 2.4429932 3.942505 5.756378 3.942505 9.211273l0 0c0 7.1944275 -6.0264893 13.026672 -13.460571 13.026672l0 0c-7.434021 0 -13.46051 -5.832245 -13.46051 -13.026672z" fill-rule="evenodd"/><path fill="#666666" d="m573.55475 456.87534l0 0c0 -7.194458 6.0264893 -13.026703 13.460571 -13.026703l0 0c3.5699463 0 6.9936523 1.372467 9.518005 3.8154297c2.524353 2.4429932 3.942505 5.756378 3.942505 9.211273l0 0c0 7.1944275 -6.0264893 13.026672 -13.46051 13.026672l0 0c-7.434082 0 -13.460571 -5.832245 -13.460571 -13.026672z" fill-rule="evenodd"/><path stroke="#666666" stroke-width="2.120734908136483" stroke-linejoin="round" stroke-linecap="butt" d="m573.55475 456.87534l0 0c0 -7.194458 6.0264893 -13.026703 13.460571 -13.026703l0 0c3.5699463 0 6.9936523 1.372467 9.518005 3.8154297c2.524353 2.4429932 3.942505 5.756378 3.942505 9.211273l0 0c0 7.1944275 -6.0264893 13.026672 -13.46051 13.026672l0 0c-7.434082 0 -13.460571 -5.832245 -13.460571 -13.026672z" fill-rule="evenodd"/><path fill="#666666" d="m607.0337 456.87534l0 0c0 -7.194458 6.0264893 -13.026703 13.46051 -13.026703l0 0c3.5699463 0 6.9937134 1.372467 9.518066 3.8154297c2.524292 2.4429932 3.9424438 5.756378 3.9424438 9.211273l0 0c0 7.1944275 -6.0264893 13.026672 -13.46051 13.026672l0 0c-7.434021 0 -13.46051 -5.832245 -13.46051 -13.026672z" fill-rule="evenodd"/><path stroke="#666666" stroke-width="2.120734908136483" stroke-linejoin="round" stroke-linecap="butt" d="m607.0337 456.87534l0 0c0 -7.194458 6.0264893 -13.026703 13.46051 -13.026703l0 0c3.5699463 0 6.9937134 1.372467 9.518066 3.8154297c2.524292 2.4429932 3.9424438 5.756378 3.9424438 9.211273l0 0c0 7.1944275 -6.0264893 13.026672 -13.46051 13.026672l0 0c-7.434021 0 -13.46051 -5.832245 -13.46051 -13.026672z" fill-rule="evenodd"/><path fill="#000000" fill-opacity="0.0" d="m437.22797 455.51498l0 0c0 -21.039001 19.149536 -38.094482 42.771667 -38.094482l0 0c23.622131 0 42.771667 17.055481 42.771667 38.094482l0 0c0 21.039001 -19.149536 38.094482 -42.771667 38.094482l0 0c-23.622131 0 -42.771667 -17.055481 -42.771667 -38.094482z" fill-rule="evenodd"/><path stroke="#666666" stroke-width="3.8241469816272966" stroke-linejoin="round" stroke-linecap="butt" d="m437.22797 455.51498l0 0c0 -21.039001 19.149536 -38.094482 42.771667 -38.094482l0 0c23.622131 0 42.771667 17.055481 42.771667 38.094482l0 0c0 21.039001 -19.149536 38.094482 -42.771667 38.094482l0 0c-23.622131 0 -42.771667 -17.055481 -42.771667 -38.094482z" fill-rule="evenodd"/><path fill="#000000" fill-opacity="0.0" d="m225.09319 455.51498l0 0c0 -21.039001 19.14952 -38.094482 42.771652 -38.094482l0 0c23.622131 0 42.771667 17.055481 42.771667 38.094482l0 0c0 21.039001 -19.149536 38.094482 -42.771667 38.094482l0 0c-23.622131 0 -42.771652 -17.055481 -42.771652 -38.094482z" fill-rule="evenodd"/><path stroke="#666666" stroke-width="3.8241469816272966" stroke-linejoin="round" stroke-linecap="butt" d="m225.09319 455.51498l0 0c0 -21.039001 19.14952 -38.094482 42.771652 -38.094482l0 0c23.622131 0 42.771667 17.055481 42.771667 38.094482l0 0c0 21.039001 -19.149536 38.094482 -42.771667 38.094482l0 0c-23.622131 0 -42.771652 -17.055481 -42.771652 -38.094482z" fill-rule="evenodd"/><path fill="#000000" fill-opacity="0.0" d="m649.36273 455.51498l0 0c0 -21.039001 19.149536 -38.094482 42.771667 -38.094482l0 0c23.622131 0 42.771667 17.055481 42.771667 38.094482l0 0c0 21.039001 -19.149536 38.094482 -42.771667 38.094482l0 0c-23.622131 0 -42.771667 -17.055481 -42.771667 -38.094482z" fill-rule="evenodd"/><path stroke="#666666" stroke-width="3.8241469816272966" stroke-linejoin="round" stroke-linecap="butt" d="m649.36273 455.51498l0 0c0 -21.039001 19.149536 -38.094482 42.771667 -38.094482l0 0c23.622131 0 42.771667 17.055481 42.771667 38.094482l0 0c0 21.039001 -19.149536 38.094482 -42.771667 38.094482l0 0c-23.622131 0 -42.771667 -17.055481 -42.771667 -38.094482z" fill-rule="evenodd"/><path fill="#666666" d="m677.6375 173.14027l0 0c0 -7.752548 6.4939575 -14.037231 14.5047 -14.037231l0 0c3.8469238 0 7.536255 1.4789124 10.256409 4.1114044c2.7201538 2.632492 4.248352 6.2029266 4.248352 9.925827l0 0c0 7.752548 -6.4940186 14.037231 -14.504761 14.037231l0 0c-8.010742 0 -14.5047 -6.284683 -14.5047 -14.037231z" fill-rule="evenodd"/><path stroke="#666666" stroke-width="2.283464566929134" stroke-linejoin="round" stroke-linecap="butt" d="m677.6375 173.14027l0 0c0 -7.752548 6.4939575 -14.037231 14.5047 -14.037231l0 0c3.8469238 0 7.536255 1.4789124 10.256409 4.1114044c2.7201538 2.632492 4.248352 6.2029266 4.248352 9.925827l0 0c0 7.752548 -6.4940186 14.037231 -14.504761 14.037231l0 0c-8.010742 0 -14.5047 -6.284683 -14.5047 -14.037231z" fill-rule="evenodd"/><path fill="#666666" d="m677.6375 208.02158l0 0c0 -7.752548 6.4939575 -14.037231 14.5047 -14.037231l0 0c3.8469238 0 7.536255 1.4789124 10.256409 4.1114044c2.7201538 2.632492 4.248352 6.2029266 4.248352 9.925827l0 0c0 7.752548 -6.4940186 14.037231 -14.504761 14.037231l0 0c-8.010742 0 -14.5047 -6.284683 -14.5047 -14.037231z" fill-rule="evenodd"/><path stroke="#666666" stroke-width="2.283464566929134" stroke-linejoin="round" stroke-linecap="butt" d="m677.6375 208.02158l0 0c0 -7.752548 6.4939575 -14.037231 14.5047 -14.037231l0 0c3.8469238 0 7.536255 1.4789124 10.256409 4.1114044c2.7201538 2.632492 4.248352 6.2029266 4.248352 9.925827l0 0c0 7.752548 -6.4940186 14.037231 -14.504761 14.037231l0 0c-8.010742 0 -14.5047 -6.284683 -14.5047 -14.037231z" fill-rule="evenodd"/><path fill="#666666" d="m677.6375 207.53569l0 0c0 -7.752548 6.4939575 -14.037231 14.5047 -14.037231l0 0c3.8469238 0 7.536255 1.4789276 10.256409 4.1114197c2.7201538 2.632492 4.248352 6.2029114 4.248352 9.925812l0 0c0 7.752548 -6.4940186 14.037231 -14.504761 14.037231l0 0c-8.010742 0 -14.5047 -6.284683 -14.5047 -14.037231z" fill-rule="evenodd"/><path stroke="#666666" stroke-width="2.283464566929134" stroke-linejoin="round" stroke-linecap="butt" d="m677.6375 207.53569l0 0c0 -7.752548 6.4939575 -14.037231 14.5047 -14.037231l0 0c3.8469238 0 7.536255 1.4789276 10.256409 4.1114197c2.7201538 2.632492 4.248352 6.2029114 4.248352 9.925812l0 0c0 7.752548 -6.4940186 14.037231 -14.504761 14.037231l0 0c-8.010742 0 -14.5047 -6.284683 -14.5047 -14.037231z" fill-rule="evenodd"/><path fill="#666666" d="m677.6375 242.41699l0 0c0 -7.752548 6.4939575 -14.037231 14.5047 -14.037231l0 0c3.8469238 0 7.536255 1.4789276 10.256409 4.1114044c2.7201538 2.632492 4.248352 6.2029266 4.248352 9.925827l0 0c0 7.752548 -6.4940186 14.037231 -14.504761 14.037231l0 0c-8.010742 0 -14.5047 -6.284683 -14.5047 -14.037231z" fill-rule="evenodd"/><path stroke="#666666" stroke-width="2.283464566929134" stroke-linejoin="round" stroke-linecap="butt" d="m677.6375 242.41699l0 0c0 -7.752548 6.4939575 -14.037231 14.5047 -14.037231l0 0c3.8469238 0 7.536255 1.4789276 10.256409 4.1114044c2.7201538 2.632492 4.248352 6.2029266 4.248352 9.925827l0 0c0 7.752548 -6.4940186 14.037231 -14.504761 14.037231l0 0c-8.010742 0 -14.5047 -6.284683 -14.5047 -14.037231z" fill-rule="evenodd"/><path fill="#666666" d="m677.6358 241.92776l0 0c0 -7.752548 6.4940186 -14.037231 14.504761 -14.037231l0 0c3.8469238 0 7.536255 1.4789276 10.256409 4.1114197c2.7201538 2.632492 4.248352 6.2029114 4.248352 9.925812l0 0c0 7.752548 -6.4940186 14.037231 -14.504761 14.037231l0 0c-8.010742 0 -14.504761 -6.284683 -14.504761 -14.037231z" fill-rule="evenodd"/><path stroke="#666666" stroke-width="2.283464566929134" stroke-linejoin="round" stroke-linecap="butt" d="m677.6358 241.92776l0 0c0 -7.752548 6.4940186 -14.037231 14.504761 -14.037231l0 0c3.8469238 0 7.536255 1.4789276 10.256409 4.1114197c2.7201538 2.632492 4.248352 6.2029114 4.248352 9.925812l0 0c0 7.752548 -6.4940186 14.037231 -14.504761 14.037231l0 0c-8.010742 0 -14.504761 -6.284683 -14.504761 -14.037231z" fill-rule="evenodd"/><path fill="#666666" d="m677.6358 276.80908l0 0c0 -7.7525635 6.4940186 -14.037231 14.504761 -14.037231l0 0c3.8469238 0 7.536255 1.4789124 10.256409 4.111389c2.7201538 2.6325073 4.248352 6.2029114 4.248352 9.925842l0 0c0 7.752533 -6.4940186 14.037231 -14.504761 14.037231l0 0c-8.010742 0 -14.504761 -6.2846985 -14.504761 -14.037231z" fill-rule="evenodd"/><path stroke="#666666" stroke-width="2.283464566929134" stroke-linejoin="round" stroke-linecap="butt" d="m677.6358 276.80908l0 0c0 -7.7525635 6.4940186 -14.037231 14.504761 -14.037231l0 0c3.8469238 0 7.536255 1.4789124 10.256409 4.111389c2.7201538 2.6325073 4.248352 6.2029114 4.248352 9.925842l0 0c0 7.752533 -6.4940186 14.037231 -14.504761 14.037231l0 0c-8.010742 0 -14.504761 -6.2846985 -14.504761 -14.037231z" fill-rule="evenodd"/><path fill="#666666" d="m677.6358 276.4687l0 0c0 -7.752533 6.4940186 -14.037231 14.504761 -14.037231l0 0c3.8469238 0 7.536255 1.4789124 10.256409 4.1114197c2.7201538 2.6324768 4.248352 6.2029114 4.248352 9.925812l0 0c0 7.7525635 -6.4940186 14.037231 -14.504761 14.037231l0 0c-8.010742 0 -14.504761 -6.284668 -14.504761 -14.037231z" fill-rule="evenodd"/><path stroke="#666666" stroke-width="2.283464566929134" stroke-linejoin="round" stroke-linecap="butt" d="m677.6358 276.4687l0 0c0 -7.752533 6.4940186 -14.037231 14.504761 -14.037231l0 0c3.8469238 0 7.536255 1.4789124 10.256409 4.1114197c2.7201538 2.6324768 4.248352 6.2029114 4.248352 9.925812l0 0c0 7.7525635 -6.4940186 14.037231 -14.504761 14.037231l0 0c-8.010742 0 -14.504761 -6.284668 -14.504761 -14.037231z" fill-rule="evenodd"/><path fill="#666666" d="m677.6358 311.35l0 0c0 -7.7525635 6.4940186 -14.037231 14.504761 -14.037231l0 0c3.8469238 0 7.536255 1.4789124 10.256409 4.111389c2.7201538 2.6325073 4.248352 6.2029114 4.248352 9.925842l0 0c0 7.752533 -6.4940186 14.037231 -14.504761 14.037231l0 0c-8.010742 0 -14.504761 -6.2846985 -14.504761 -14.037231z" fill-rule="evenodd"/><path stroke="#666666" stroke-width="2.283464566929134" stroke-linejoin="round" stroke-linecap="butt" d="m677.6358 311.35l0 0c0 -7.7525635 6.4940186 -14.037231 14.504761 -14.037231l0 0c3.8469238 0 7.536255 1.4789124 10.256409 4.111389c2.7201538 2.6325073 4.248352 6.2029114 4.248352 9.925842l0 0c0 7.752533 -6.4940186 14.037231 -14.504761 14.037231l0 0c-8.010742 0 -14.504761 -6.2846985 -14.504761 -14.037231z" fill-rule="evenodd"/><path fill="#666666" d="m677.63916 310.71527l0 0c0 -7.7525635 6.4940186 -14.037231 14.504761 -14.037231l0 0c3.8468628 0 7.536194 1.4789124 10.256409 4.1114197c2.7201538 2.6324768 4.248291 6.2029114 4.248291 9.925812l0 0c0 7.752533 -6.4939575 14.037231 -14.5047 14.037231l0 0c-8.010742 0 -14.504761 -6.2846985 -14.504761 -14.037231z" fill-rule="evenodd"/><path stroke="#666666" stroke-width="2.283464566929134" stroke-linejoin="round" stroke-linecap="butt" d="m677.63916 310.71527l0 0c0 -7.7525635 6.4940186 -14.037231 14.504761 -14.037231l0 0c3.8468628 0 7.536194 1.4789124 10.256409 4.1114197c2.7201538 2.6324768 4.248291 6.2029114 4.248291 9.925812l0 0c0 7.752533 -6.4939575 14.037231 -14.5047 14.037231l0 0c-8.010742 0 -14.504761 -6.2846985 -14.504761 -14.037231z" fill-rule="evenodd"/><path fill="#666666" d="m677.63916 345.59656l0 0c0 -7.752533 6.4940186 -14.037231 14.504761 -14.037231l0 0c3.8468628 0 7.536194 1.4789124 10.256409 4.1114197c2.7201538 2.6324768 4.248291 6.2029114 4.248291 9.925812l0 0c0 7.7525635 -6.4939575 14.037231 -14.5047 14.037231l0 0c-8.010742 0 -14.504761 -6.284668 -14.504761 -14.037231z" fill-rule="evenodd"/><path stroke="#666666" stroke-width="2.283464566929134" stroke-linejoin="round" stroke-linecap="butt" d="m677.63916 345.59656l0 0c0 -7.752533 6.4940186 -14.037231 14.504761 -14.037231l0 0c3.8468628 0 7.536194 1.4789124 10.256409 4.1114197c2.7201538 2.6324768 4.248291 6.2029114 4.248291 9.925812l0 0c0 7.7525635 -6.4939575 14.037231 -14.5047 14.037231l0 0c-8.010742 0 -14.504761 -6.284668 -14.504761 -14.037231z" fill-rule="evenodd"/><path fill="#666666" d="m677.63916 345.4017l0 0c0 -7.7525635 6.4940186 -14.037231 14.504761 -14.037231l0 0c3.8468628 0 7.536194 1.4789124 10.256409 4.111389c2.7201538 2.6325073 4.248291 6.2029114 4.248291 9.925842l0 0c0 7.752533 -6.4939575 14.037231 -14.5047 14.037231l0 0c-8.010742 0 -14.504761 -6.2846985 -14.504761 -14.037231z" fill-rule="evenodd"/><path stroke="#666666" stroke-width="2.283464566929134" stroke-linejoin="round" stroke-linecap="butt" d="m677.63916 345.4017l0 0c0 -7.7525635 6.4940186 -14.037231 14.504761 -14.037231l0 0c3.8468628 0 7.536194 1.4789124 10.256409 4.111389c2.7201538 2.6325073 4.248291 6.2029114 4.248291 9.925842l0 0c0 7.752533 -6.4939575 14.037231 -14.5047 14.037231l0 0c-8.010742 0 -14.504761 -6.2846985 -14.504761 -14.037231z" fill-rule="evenodd"/><path fill="#666666" d="m677.63916 380.283l0 0c0 -7.752533 6.4940186 -14.037231 14.504761 -14.037231l0 0c3.8468628 0 7.536194 1.4789124 10.256409 4.1114197c2.7201538 2.6324768 4.248291 6.2029114 4.248291 9.925812l0 0c0 7.7525635 -6.4939575 14.037231 -14.5047 14.037231l0 0c-8.010742 0 -14.504761 -6.284668 -14.504761 -14.037231z" fill-rule="evenodd"/><path stroke="#666666" stroke-width="2.283464566929134" stroke-linejoin="round" stroke-linecap="butt" d="m677.63916 380.283l0 0c0 -7.752533 6.4940186 -14.037231 14.504761 -14.037231l0 0c3.8468628 0 7.536194 1.4789124 10.256409 4.1114197c2.7201538 2.6324768 4.248291 6.2029114 4.248291 9.925812l0 0c0 7.7525635 -6.4939575 14.037231 -14.5047 14.037231l0 0c-8.010742 0 -14.504761 -6.284668 -14.504761 -14.037231z" fill-rule="evenodd"/><path fill="#666666" d="m253.36794 173.14027l0 0c0 -7.752548 6.493973 -14.037231 14.5047455 -14.037231l0 0c3.8468933 0 7.5362244 1.4789124 10.256378 4.1114044c2.7201843 2.632492 4.248352 6.2029266 4.248352 9.925827l0 0c0 7.752548 -6.493988 14.037231 -14.50473 14.037231l0 0c-8.010773 0 -14.5047455 -6.284683 -14.5047455 -14.037231z" fill-rule="evenodd"/><path stroke="#666666" stroke-width="2.283464566929134" stroke-linejoin="round" stroke-linecap="butt" d="m253.36794 173.14027l0 0c0 -7.752548 6.493973 -14.037231 14.5047455 -14.037231l0 0c3.8468933 0 7.5362244 1.4789124 10.256378 4.1114044c2.7201843 2.632492 4.248352 6.2029266 4.248352 9.925827l0 0c0 7.752548 -6.493988 14.037231 -14.50473 14.037231l0 0c-8.010773 0 -14.5047455 -6.284683 -14.5047455 -14.037231z" fill-rule="evenodd"/><path fill="#666666" d="m253.36794 208.02158l0 0c0 -7.752548 6.493973 -14.037231 14.5047455 -14.037231l0 0c3.8468933 0 7.5362244 1.4789124 10.256378 4.1114044c2.7201843 2.632492 4.248352 6.2029266 4.248352 9.925827l0 0c0 7.752548 -6.493988 14.037231 -14.50473 14.037231l0 0c-8.010773 0 -14.5047455 -6.284683 -14.5047455 -14.037231z" fill-rule="evenodd"/><path stroke="#666666" stroke-width="2.283464566929134" stroke-linejoin="round" stroke-linecap="butt" d="m253.36794 208.02158l0 0c0 -7.752548 6.493973 -14.037231 14.5047455 -14.037231l0 0c3.8468933 0 7.5362244 1.4789124 10.256378 4.1114044c2.7201843 2.632492 4.248352 6.2029266 4.248352 9.925827l0 0c0 7.752548 -6.493988 14.037231 -14.50473 14.037231l0 0c-8.010773 0 -14.5047455 -6.284683 -14.5047455 -14.037231z" fill-rule="evenodd"/><path fill="#666666" d="m253.36794 207.53569l0 0c0 -7.752548 6.493973 -14.037231 14.5047455 -14.037231l0 0c3.8468933 0 7.5362244 1.4789276 10.256378 4.1114197c2.7201843 2.632492 4.248352 6.2029114 4.248352 9.925812l0 0c0 7.752548 -6.493988 14.037231 -14.50473 14.037231l0 0c-8.010773 0 -14.5047455 -6.284683 -14.5047455 -14.037231z" fill-rule="evenodd"/><path stroke="#666666" stroke-width="2.283464566929134" stroke-linejoin="round" stroke-linecap="butt" d="m253.36794 207.53569l0 0c0 -7.752548 6.493973 -14.037231 14.5047455 -14.037231l0 0c3.8468933 0 7.5362244 1.4789276 10.256378 4.1114197c2.7201843 2.632492 4.248352 6.2029114 4.248352 9.925812l0 0c0 7.752548 -6.493988 14.037231 -14.50473 14.037231l0 0c-8.010773 0 -14.5047455 -6.284683 -14.5047455 -14.037231z" fill-rule="evenodd"/><path fill="#666666" d="m253.36794 242.41699l0 0c0 -7.752548 6.493973 -14.037231 14.5047455 -14.037231l0 0c3.8468933 0 7.5362244 1.4789276 10.256378 4.1114044c2.7201843 2.632492 4.248352 6.2029266 4.248352 9.925827l0 0c0 7.752548 -6.493988 14.037231 -14.50473 14.037231l0 0c-8.010773 0 -14.5047455 -6.284683 -14.5047455 -14.037231z" fill-rule="evenodd"/><path stroke="#666666" stroke-width="2.283464566929134" stroke-linejoin="round" stroke-linecap="butt" d="m253.36794 242.41699l0 0c0 -7.752548 6.493973 -14.037231 14.5047455 -14.037231l0 0c3.8468933 0 7.5362244 1.4789276 10.256378 4.1114044c2.7201843 2.632492 4.248352 6.2029266 4.248352 9.925827l0 0c0 7.752548 -6.493988 14.037231 -14.50473 14.037231l0 0c-8.010773 0 -14.5047455 -6.284683 -14.5047455 -14.037231z" fill-rule="evenodd"/><path fill="#666666" d="m253.36626 241.92776l0 0c0 -7.752548 6.4940033 -14.037231 14.5047455 -14.037231l0 0c3.8468933 0 7.5362244 1.4789276 10.256378 4.1114197c2.7201843 2.632492 4.248352 6.2029114 4.248352 9.925812l0 0c0 7.752548 -6.493988 14.037231 -14.50473 14.037231l0 0c-8.010742 0 -14.5047455 -6.284683 -14.5047455 -14.037231z" fill-rule="evenodd"/><path stroke="#666666" stroke-width="2.283464566929134" stroke-linejoin="round" stroke-linecap="butt" d="m253.36626 241.92776l0 0c0 -7.752548 6.4940033 -14.037231 14.5047455 -14.037231l0 0c3.8468933 0 7.5362244 1.4789276 10.256378 4.1114197c2.7201843 2.632492 4.248352 6.2029114 4.248352 9.925812l0 0c0 7.752548 -6.493988 14.037231 -14.50473 14.037231l0 0c-8.010742 0 -14.5047455 -6.284683 -14.5047455 -14.037231z" fill-rule="evenodd"/><path fill="#666666" d="m253.36626 276.80908l0 0c0 -7.7525635 6.4940033 -14.037231 14.5047455 -14.037231l0 0c3.8468933 0 7.5362244 1.4789124 10.256378 4.111389c2.7201843 2.6325073 4.248352 6.2029114 4.248352 9.925842l0 0c0 7.752533 -6.493988 14.037231 -14.50473 14.037231l0 0c-8.010742 0 -14.5047455 -6.2846985 -14.5047455 -14.037231z" fill-rule="evenodd"/><path stroke="#666666" stroke-width="2.283464566929134" stroke-linejoin="round" stroke-linecap="butt" d="m253.36626 276.80908l0 0c0 -7.7525635 6.4940033 -14.037231 14.5047455 -14.037231l0 0c3.8468933 0 7.5362244 1.4789124 10.256378 4.111389c2.7201843 2.6325073 4.248352 6.2029114 4.248352 9.925842l0 0c0 7.752533 -6.493988 14.037231 -14.50473 14.037231l0 0c-8.010742 0 -14.5047455 -6.2846985 -14.5047455 -14.037231z" fill-rule="evenodd"/><path fill="#666666" d="m253.36626 276.4687l0 0c0 -7.752533 6.4940033 -14.037231 14.5047455 -14.037231l0 0c3.8468933 0 7.5362244 1.4789124 10.256378 4.1114197c2.7201843 2.6324768 4.248352 6.2029114 4.248352 9.925812l0 0c0 7.7525635 -6.493988 14.037231 -14.50473 14.037231l0 0c-8.010742 0 -14.5047455 -6.284668 -14.5047455 -14.037231z" fill-rule="evenodd"/><path stroke="#666666" stroke-width="2.283464566929134" stroke-linejoin="round" stroke-linecap="butt" d="m253.36626 276.4687l0 0c0 -7.752533 6.4940033 -14.037231 14.5047455 -14.037231l0 0c3.8468933 0 7.5362244 1.4789124 10.256378 4.1114197c2.7201843 2.6324768 4.248352 6.2029114 4.248352 9.925812l0 0c0 7.7525635 -6.493988 14.037231 -14.50473 14.037231l0 0c-8.010742 0 -14.5047455 -6.284668 -14.5047455 -14.037231z" fill-rule="evenodd"/><path fill="#666666" d="m253.36626 311.35l0 0c0 -7.7525635 6.4940033 -14.037231 14.5047455 -14.037231l0 0c3.8468933 0 7.5362244 1.4789124 10.256378 4.111389c2.7201843 2.6325073 4.248352 6.2029114 4.248352 9.925842l0 0c0 7.752533 -6.493988 14.037231 -14.50473 14.037231l0 0c-8.010742 0 -14.5047455 -6.2846985 -14.5047455 -14.037231z" fill-rule="evenodd"/><path stroke="#666666" stroke-width="2.283464566929134" stroke-linejoin="round" stroke-linecap="butt" d="m253.36626 311.35l0 0c0 -7.7525635 6.4940033 -14.037231 14.5047455 -14.037231l0 0c3.8468933 0 7.5362244 1.4789124 10.256378 4.111389c2.7201843 2.6325073 4.248352 6.2029114 4.248352 9.925842l0 0c0 7.752533 -6.493988 14.037231 -14.50473 14.037231l0 0c-8.010742 0 -14.5047455 -6.2846985 -14.5047455 -14.037231z" fill-rule="evenodd"/><path fill="#666666" d="m253.3696 310.71527l0 0c0 -7.7525635 6.493988 -14.037231 14.50473 -14.037231l0 0c3.8468933 0 7.536255 1.4789124 10.256409 4.1114197c2.7201538 2.6324768 4.248352 6.2029114 4.248352 9.925812l0 0c0 7.752533 -6.493988 14.037231 -14.504761 14.037231l0 0c-8.010742 0 -14.50473 -6.2846985 -14.50473 -14.037231z" fill-rule="evenodd"/><path stroke="#666666" stroke-width="2.283464566929134" stroke-linejoin="round" stroke-linecap="butt" d="m253.3696 310.71527l0 0c0 -7.7525635 6.493988 -14.037231 14.50473 -14.037231l0 0c3.8468933 0 7.536255 1.4789124 10.256409 4.1114197c2.7201538 2.6324768 4.248352 6.2029114 4.248352 9.925812l0 0c0 7.752533 -6.493988 14.037231 -14.504761 14.037231l0 0c-8.010742 0 -14.50473 -6.2846985 -14.50473 -14.037231z" fill-rule="evenodd"/><path fill="#666666" d="m253.3696 345.59656l0 0c0 -7.752533 6.493988 -14.037231 14.50473 -14.037231l0 0c3.8468933 0 7.536255 1.4789124 10.256409 4.1114197c2.7201538 2.6324768 4.248352 6.2029114 4.248352 9.925812l0 0c0 7.7525635 -6.493988 14.037231 -14.504761 14.037231l0 0c-8.010742 0 -14.50473 -6.284668 -14.50473 -14.037231z" fill-rule="evenodd"/><path stroke="#666666" stroke-width="2.283464566929134" stroke-linejoin="round" stroke-linecap="butt" d="m253.3696 345.59656l0 0c0 -7.752533 6.493988 -14.037231 14.50473 -14.037231l0 0c3.8468933 0 7.536255 1.4789124 10.256409 4.1114197c2.7201538 2.6324768 4.248352 6.2029114 4.248352 9.925812l0 0c0 7.7525635 -6.493988 14.037231 -14.504761 14.037231l0 0c-8.010742 0 -14.50473 -6.284668 -14.50473 -14.037231z" fill-rule="evenodd"/><path fill="#666666" d="m253.3696 345.4017l0 0c0 -7.7525635 6.493988 -14.037231 14.50473 -14.037231l0 0c3.8468933 0 7.536255 1.4789124 10.256409 4.111389c2.7201538 2.6325073 4.248352 6.2029114 4.248352 9.925842l0 0c0 7.752533 -6.493988 14.037231 -14.504761 14.037231l0 0c-8.010742 0 -14.50473 -6.2846985 -14.50473 -14.037231z" fill-rule="evenodd"/><path stroke="#666666" stroke-width="2.283464566929134" stroke-linejoin="round" stroke-linecap="butt" d="m253.3696 345.4017l0 0c0 -7.7525635 6.493988 -14.037231 14.50473 -14.037231l0 0c3.8468933 0 7.536255 1.4789124 10.256409 4.111389c2.7201538 2.6325073 4.248352 6.2029114 4.248352 9.925842l0 0c0 7.752533 -6.493988 14.037231 -14.504761 14.037231l0 0c-8.010742 0 -14.50473 -6.2846985 -14.50473 -14.037231z" fill-rule="evenodd"/><path fill="#666666" d="m253.3696 380.283l0 0c0 -7.752533 6.493988 -14.037231 14.50473 -14.037231l0 0c3.8468933 0 7.536255 1.4789124 10.256409 4.1114197c2.7201538 2.6324768 4.248352 6.2029114 4.248352 9.925812l0 0c0 7.7525635 -6.493988 14.037231 -14.504761 14.037231l0 0c-8.010742 0 -14.50473 -6.284668 -14.50473 -14.037231z" fill-rule="evenodd"/><path stroke="#666666" stroke-width="2.283464566929134" stroke-linejoin="round" stroke-linecap="butt" d="m253.3696 380.283l0 0c0 -7.752533 6.493988 -14.037231 14.50473 -14.037231l0 0c3.8468933 0 7.536255 1.4789124 10.256409 4.1114197c2.7201538 2.6324768 4.248352 6.2029114 4.248352 9.925812l0 0c0 7.7525635 -6.493988 14.037231 -14.504761 14.037231l0 0c-8.010742 0 -14.50473 -6.284668 -14.50473 -14.037231z" fill-rule="evenodd"/><path fill="#666666" d="m113.91853 456.87534l0 0c0 -7.194458 6.0264816 -13.026703 13.460533 -13.026703l0 0c3.569954 0 6.9936905 1.372467 9.518028 3.8154297c2.5243378 2.4429932 3.942505 5.756378 3.942505 9.211273l0 0c0 7.1944275 -6.0264893 13.026672 -13.460533 13.026672l0 0c-7.4340515 0 -13.460533 -5.832245 -13.460533 -13.026672z" fill-rule="evenodd"/><path stroke="#666666" stroke-width="2.120734908136483" stroke-linejoin="round" stroke-linecap="butt" d="m113.91853 456.87534l0 0c0 -7.194458 6.0264816 -13.026703 13.460533 -13.026703l0 0c3.569954 0 6.9936905 1.372467 9.518028 3.8154297c2.5243378 2.4429932 3.942505 5.756378 3.942505 9.211273l0 0c0 7.1944275 -6.0264893 13.026672 -13.460533 13.026672l0 0c-7.4340515 0 -13.460533 -5.832245 -13.460533 -13.026672z" fill-rule="evenodd"/><path fill="#666666" d="m147.39743 456.87534l0 0c0 -7.194458 6.0264893 -13.026703 13.460541 -13.026703l0 0c3.5699615 0 6.993698 1.372467 9.518036 3.8154297c2.5243378 2.4429932 3.942505 5.756378 3.942505 9.211273l0 0c0 7.1944275 -6.0264893 13.026672 -13.460541 13.026672l0 0c-7.4340515 0 -13.460541 -5.832245 -13.460541 -13.026672z" fill-rule="evenodd"/><path stroke="#666666" stroke-width="2.120734908136483" stroke-linejoin="round" stroke-linecap="butt" d="m147.39743 456.87534l0 0c0 -7.194458 6.0264893 -13.026703 13.460541 -13.026703l0 0c3.5699615 0 6.993698 1.372467 9.518036 3.8154297c2.5243378 2.4429932 3.942505 5.756378 3.942505 9.211273l0 0c0 7.1944275 -6.0264893 13.026672 -13.460541 13.026672l0 0c-7.4340515 0 -13.460541 -5.832245 -13.460541 -13.026672z" fill-rule="evenodd"/><path fill="#666666" d="m147.31383 456.87534l0 0c0 -7.194458 6.0264893 -13.026703 13.460541 -13.026703l0 0c3.5699463 0 6.993698 1.372467 9.518036 3.8154297c2.5243378 2.4429932 3.9424896 5.756378 3.9424896 9.211273l0 0c0 7.1944275 -6.026474 13.026672 -13.4605255 13.026672l0 0c-7.4340515 0 -13.460541 -5.832245 -13.460541 -13.026672z" fill-rule="evenodd"/><path stroke="#666666" stroke-width="2.120734908136483" stroke-linejoin="round" stroke-linecap="butt" d="m147.31383 456.87534l0 0c0 -7.194458 6.0264893 -13.026703 13.460541 -13.026703l0 0c3.5699463 0 6.993698 1.372467 9.518036 3.8154297c2.5243378 2.4429932 3.9424896 5.756378 3.9424896 9.211273l0 0c0 7.1944275 -6.026474 13.026672 -13.4605255 13.026672l0 0c-7.4340515 0 -13.460541 -5.832245 -13.460541 -13.026672z" fill-rule="evenodd"/><path fill="#666666" d="m180.79274 456.87534l0 0c0 -7.194458 6.0264893 -13.026703 13.4605255 -13.026703l0 0c3.5699615 0 6.993698 1.372467 9.518036 3.8154297c2.5243378 2.4429932 3.942505 5.756378 3.942505 9.211273l0 0c0 7.1944275 -6.0264893 13.026672 -13.460541 13.026672l0 0c-7.4340363 0 -13.4605255 -5.832245 -13.4605255 -13.026672z" fill-rule="evenodd"/><path stroke="#666666" stroke-width="2.120734908136483" stroke-linejoin="round" stroke-linecap="butt" d="m180.79274 456.87534l0 0c0 -7.194458 6.0264893 -13.026703 13.4605255 -13.026703l0 0c3.5699615 0 6.993698 1.372467 9.518036 3.8154297c2.5243378 2.4429932 3.942505 5.756378 3.942505 9.211273l0 0c0 7.1944275 -6.0264893 13.026672 -13.460541 13.026672l0 0c-7.4340363 0 -13.4605255 -5.832245 -13.4605255 -13.026672z" fill-rule="evenodd"/><path fill="#666666" d="m329.0212 456.87534l0 0c0 -7.194458 6.0264587 -13.026703 13.46051 -13.026703l0 0c3.5699768 0 6.9937134 1.372467 9.518036 3.8154297c2.524353 2.4429932 3.942505 5.756378 3.942505 9.211273l0 0c0 7.1944275 -6.0264893 13.026672 -13.460541 13.026672l0 0c-7.4340515 0 -13.46051 -5.832245 -13.46051 -13.026672z" fill-rule="evenodd"/><path stroke="#666666" stroke-width="2.120734908136483" stroke-linejoin="round" stroke-linecap="butt" d="m329.0212 456.87534l0 0c0 -7.194458 6.0264587 -13.026703 13.46051 -13.026703l0 0c3.5699768 0 6.9937134 1.372467 9.518036 3.8154297c2.524353 2.4429932 3.942505 5.756378 3.942505 9.211273l0 0c0 7.1944275 -6.0264893 13.026672 -13.460541 13.026672l0 0c-7.4340515 0 -13.46051 -5.832245 -13.46051 -13.026672z" fill-rule="evenodd"/><path fill="#666666" d="m362.5001 456.87534l0 0c0 -7.194458 6.0264893 -13.026703 13.460541 -13.026703l0 0c3.5699463 0 6.993683 1.372467 9.518036 3.8154297c2.524353 2.4429932 3.942505 5.756378 3.942505 9.211273l0 0c0 7.1944275 -6.0264893 13.026672 -13.460541 13.026672l0 0c-7.4340515 0 -13.460541 -5.832245 -13.460541 -13.026672z" fill-rule="evenodd"/><path stroke="#666666" stroke-width="2.120734908136483" stroke-linejoin="round" stroke-linecap="butt" d="m362.5001 456.87534l0 0c0 -7.194458 6.0264893 -13.026703 13.460541 -13.026703l0 0c3.5699463 0 6.993683 1.372467 9.518036 3.8154297c2.524353 2.4429932 3.942505 5.756378 3.942505 9.211273l0 0c0 7.1944275 -6.0264893 13.026672 -13.460541 13.026672l0 0c-7.4340515 0 -13.460541 -5.832245 -13.460541 -13.026672z" fill-rule="evenodd"/><path fill="#666666" d="m361.41302 456.87534l0 0c0 -7.194458 6.0264893 -13.026703 13.460541 -13.026703l0 0c3.5699463 0 6.993683 1.372467 9.518036 3.8154297c2.524353 2.4429932 3.942505 5.756378 3.942505 9.211273l0 0c0 7.1944275 -6.0264893 13.026672 -13.460541 13.026672l0 0c-7.4340515 0 -13.460541 -5.832245 -13.460541 -13.026672z" fill-rule="evenodd"/><path stroke="#666666" stroke-width="2.120734908136483" stroke-linejoin="round" stroke-linecap="butt" d="m361.41302 456.87534l0 0c0 -7.194458 6.0264893 -13.026703 13.460541 -13.026703l0 0c3.5699463 0 6.993683 1.372467 9.518036 3.8154297c2.524353 2.4429932 3.942505 5.756378 3.942505 9.211273l0 0c0 7.1944275 -6.0264893 13.026672 -13.460541 13.026672l0 0c-7.4340515 0 -13.460541 -5.832245 -13.460541 -13.026672z" fill-rule="evenodd"/><path fill="#666666" d="m394.89194 456.87534l0 0c0 -7.194458 6.0264893 -13.026703 13.460541 -13.026703l0 0c3.5699463 0 6.993683 1.372467 9.518036 3.8154297c2.5243225 2.4429932 3.942505 5.756378 3.942505 9.211273l0 0c0 7.1944275 -6.0264893 13.026672 -13.460541 13.026672l0 0c-7.4340515 0 -13.460541 -5.832245 -13.460541 -13.026672z" fill-rule="evenodd"/><path stroke="#666666" stroke-width="2.120734908136483" stroke-linejoin="round" stroke-linecap="butt" d="m394.89194 456.87534l0 0c0 -7.194458 6.0264893 -13.026703 13.460541 -13.026703l0 0c3.5699463 0 6.993683 1.372467 9.518036 3.8154297c2.5243225 2.4429932 3.942505 5.756378 3.942505 9.211273l0 0c0 7.1944275 -6.0264893 13.026672 -13.460541 13.026672l0 0c-7.4340515 0 -13.460541 -5.832245 -13.460541 -13.026672z" fill-rule="evenodd"/><path fill="#666666" d="m542.1101 456.87534l0 0c0 -7.194458 6.0264893 -13.026703 13.460571 -13.026703l0 0c3.5699463 0 6.9936523 1.372467 9.518005 3.8154297c2.524353 2.4429932 3.942505 5.756378 3.942505 9.211273l0 0c0 7.1944275 -6.0264893 13.026672 -13.46051 13.026672l0 0c-7.434082 0 -13.460571 -5.832245 -13.460571 -13.026672z" fill-rule="evenodd"/><path stroke="#666666" stroke-width="2.120734908136483" stroke-linejoin="round" stroke-linecap="butt" d="m542.1101 456.87534l0 0c0 -7.194458 6.0264893 -13.026703 13.460571 -13.026703l0 0c3.5699463 0 6.9936523 1.372467 9.518005 3.8154297c2.524353 2.4429932 3.942505 5.756378 3.942505 9.211273l0 0c0 7.1944275 -6.0264893 13.026672 -13.46051 13.026672l0 0c-7.434082 0 -13.460571 -5.832245 -13.460571 -13.026672z" fill-rule="evenodd"/><path fill="#666666" d="m575.58905 456.87534l0 0c0 -7.194458 6.0264893 -13.026703 13.46051 -13.026703l0 0c3.5699463 0 6.9937134 1.372467 9.518066 3.8154297c2.524292 2.4429932 3.942505 5.756378 3.942505 9.211273l0 0c0 7.1944275 -6.0264893 13.026672 -13.460571 13.026672l0 0c-7.434021 0 -13.46051 -5.832245 -13.46051 -13.026672z" fill-rule="evenodd"/><path stroke="#666666" stroke-width="2.120734908136483" stroke-linejoin="round" stroke-linecap="butt" d="m575.58905 456.87534l0 0c0 -7.194458 6.0264893 -13.026703 13.46051 -13.026703l0 0c3.5699463 0 6.9937134 1.372467 9.518066 3.8154297c2.524292 2.4429932 3.942505 5.756378 3.942505 9.211273l0 0c0 7.1944275 -6.0264893 13.026672 -13.460571 13.026672l0 0c-7.434021 0 -13.46051 -5.832245 -13.46051 -13.026672z" fill-rule="evenodd"/><path fill="#666666" d="m575.50543 456.87534l0 0c0 -7.194458 6.0264893 -13.026703 13.46051 -13.026703l0 0c3.5700073 0 6.9937134 1.372467 9.518066 3.8154297c2.524353 2.4429932 3.942505 5.756378 3.942505 9.211273l0 0c0 7.1944275 -6.0264893 13.026672 -13.460571 13.026672l0 0c-7.434021 0 -13.46051 -5.832245 -13.46051 -13.026672z" fill-rule="evenodd"/><path stroke="#666666" stroke-width="2.120734908136483" stroke-linejoin="round" stroke-linecap="butt" d="m575.50543 456.87534l0 0c0 -7.194458 6.0264893 -13.026703 13.46051 -13.026703l0 0c3.5700073 0 6.9937134 1.372467 9.518066 3.8154297c2.524353 2.4429932 3.942505 5.756378 3.942505 9.211273l0 0c0 7.1944275 -6.0264893 13.026672 -13.460571 13.026672l0 0c-7.434021 0 -13.46051 -5.832245 -13.46051 -13.026672z" fill-rule="evenodd"/><path fill="#666666" d="m608.9843 456.87534l0 0c0 -7.194458 6.0264893 -13.026703 13.460571 -13.026703l0 0c3.5699463 0 6.9936523 1.372467 9.518005 3.8154297c2.524353 2.4429932 3.942505 5.756378 3.942505 9.211273l0 0c0 7.1944275 -6.0264893 13.026672 -13.46051 13.026672l0 0c-7.434082 0 -13.460571 -5.832245 -13.460571 -13.026672z" fill-rule="evenodd"/><path stroke="#666666" stroke-width="2.120734908136483" stroke-linejoin="round" stroke-linecap="butt" d="m608.9843 456.87534l0 0c0 -7.194458 6.0264893 -13.026703 13.460571 -13.026703l0 0c3.5699463 0 6.9936523 1.372467 9.518005 3.8154297c2.524353 2.4429932 3.942505 5.756378 3.942505 9.211273l0 0c0 7.1944275 -6.0264893 13.026672 -13.46051 13.026672l0 0c-7.434082 0 -13.460571 -5.832245 -13.460571 -13.026672z" fill-rule="evenodd"/><path fill="#666666" d="m757.21277 456.87534l0 0c0 -7.194458 6.0264893 -13.026703 13.460571 -13.026703l0 0c3.5699463 0 6.9937134 1.372467 9.518005 3.8154297c2.524353 2.4429932 3.942505 5.756378 3.942505 9.211273l0 0c0 7.1944275 -6.0264893 13.026672 -13.46051 13.026672l0 0c-7.434082 0 -13.460571 -5.832245 -13.460571 -13.026672z" fill-rule="evenodd"/><path stroke="#666666" stroke-width="2.120734908136483" stroke-linejoin="round" stroke-linecap="butt" d="m757.21277 456.87534l0 0c0 -7.194458 6.0264893 -13.026703 13.460571 -13.026703l0 0c3.5699463 0 6.9937134 1.372467 9.518005 3.8154297c2.524353 2.4429932 3.942505 5.756378 3.942505 9.211273l0 0c0 7.1944275 -6.0264893 13.026672 -13.46051 13.026672l0 0c-7.434082 0 -13.460571 -5.832245 -13.460571 -13.026672z" fill-rule="evenodd"/><path fill="#666666" d="m790.6917 456.87534l0 0c0 -7.194458 6.0264893 -13.026703 13.46051 -13.026703l0 0c3.5699463 0 6.9937134 1.372467 9.518066 3.8154297c2.524353 2.4429932 3.942505 5.756378 3.942505 9.211273l0 0c0 7.1944275 -6.0264893 13.026672 -13.460571 13.026672l0 0c-7.434021 0 -13.46051 -5.832245 -13.46051 -13.026672z" fill-rule="evenodd"/><path stroke="#666666" stroke-width="2.120734908136483" stroke-linejoin="round" stroke-linecap="butt" d="m790.6917 456.87534l0 0c0 -7.194458 6.0264893 -13.026703 13.46051 -13.026703l0 0c3.5699463 0 6.9937134 1.372467 9.518066 3.8154297c2.524353 2.4429932 3.942505 5.756378 3.942505 9.211273l0 0c0 7.1944275 -6.0264893 13.026672 -13.460571 13.026672l0 0c-7.434021 0 -13.46051 -5.832245 -13.46051 -13.026672z" fill-rule="evenodd"/><path fill="#666666" d="m789.6046 456.87534l0 0c0 -7.194458 6.0264893 -13.026703 13.460571 -13.026703l0 0c3.5699463 0 6.9936523 1.372467 9.518005 3.8154297c2.524353 2.4429932 3.942505 5.756378 3.942505 9.211273l0 0c0 7.1944275 -6.0264893 13.026672 -13.46051 13.026672l0 0c-7.434082 0 -13.460571 -5.832245 -13.460571 -13.026672z" fill-rule="evenodd"/><path stroke="#666666" stroke-width="2.120734908136483" stroke-linejoin="round" stroke-linecap="butt" d="m789.6046 456.87534l0 0c0 -7.194458 6.0264893 -13.026703 13.460571 -13.026703l0 0c3.5699463 0 6.9936523 1.372467 9.518005 3.8154297c2.524353 2.4429932 3.942505 5.756378 3.942505 9.211273l0 0c0 7.1944275 -6.0264893 13.026672 -13.46051 13.026672l0 0c-7.434082 0 -13.460571 -5.832245 -13.460571 -13.026672z" fill-rule="evenodd"/><path fill="#666666" d="m823.08356 456.87534l0 0c0 -7.194458 6.0264893 -13.026703 13.46051 -13.026703l0 0c3.5699463 0 6.9937134 1.372467 9.518066 3.8154297c2.524292 2.4429932 3.9424438 5.756378 3.9424438 9.211273l0 0c0 7.1944275 -6.026428 13.026672 -13.46051 13.026672l0 0c-7.434021 0 -13.46051 -5.832245 -13.46051 -13.026672z" fill-rule="evenodd"/><path stroke="#666666" stroke-width="2.120734908136483" stroke-linejoin="round" stroke-linecap="butt" d="m823.08356 456.87534l0 0c0 -7.194458 6.0264893 -13.026703 13.46051 -13.026703l0 0c3.5699463 0 6.9937134 1.372467 9.518066 3.8154297c2.524292 2.4429932 3.9424438 5.756378 3.9424438 9.211273l0 0c0 7.1944275 -6.026428 13.026672 -13.46051 13.026672l0 0c-7.434021 0 -13.46051 -5.832245 -13.46051 -13.026672z" fill-rule="evenodd"/><path fill="#666666" d="m542.1101 84.48294l0 0c0 -7.1944427 6.0264893 -13.026688 13.460571 -13.026688l0 0c3.5699463 0 6.9936523 1.3724518 9.518005 3.8154297c2.524353 2.442978 3.942505 5.756363 3.942505 9.211258l0 0c0 7.194435 -6.0264893 13.02668 -13.46051 13.02668l0 0c-7.434082 0 -13.460571 -5.832245 -13.460571 -13.02668z" fill-rule="evenodd"/><path stroke="#666666" stroke-width="2.120734908136483" stroke-linejoin="round" stroke-linecap="butt" d="m542.1101 84.48294l0 0c0 -7.1944427 6.0264893 -13.026688 13.460571 -13.026688l0 0c3.5699463 0 6.9936523 1.3724518 9.518005 3.8154297c2.524353 2.442978 3.942505 5.756363 3.942505 9.211258l0 0c0 7.194435 -6.0264893 13.02668 -13.46051 13.02668l0 0c-7.434082 0 -13.460571 -5.832245 -13.460571 -13.02668z" fill-rule="evenodd"/><path fill="#666666" d="m575.58905 84.48294l0 0c0 -7.1944427 6.0264893 -13.026688 13.46051 -13.026688l0 0c3.5699463 0 6.9937134 1.3724518 9.518066 3.8154297c2.524292 2.442978 3.942505 5.756363 3.942505 9.211258l0 0c0 7.194435 -6.0264893 13.02668 -13.460571 13.02668l0 0c-7.434021 0 -13.46051 -5.832245 -13.46051 -13.02668z" fill-rule="evenodd"/><path stroke="#666666" stroke-width="2.120734908136483" stroke-linejoin="round" stroke-linecap="butt" d="m575.58905 84.48294l0 0c0 -7.1944427 6.0264893 -13.026688 13.46051 -13.026688l0 0c3.5699463 0 6.9937134 1.3724518 9.518066 3.8154297c2.524292 2.442978 3.942505 5.756363 3.942505 9.211258l0 0c0 7.194435 -6.0264893 13.02668 -13.460571 13.02668l0 0c-7.434021 0 -13.46051 -5.832245 -13.46051 -13.02668z" fill-rule="evenodd"/><path fill="#666666" d="m575.50543 84.48294l0 0c0 -7.1944427 6.0264893 -13.026688 13.46051 -13.026688l0 0c3.5700073 0 6.9937134 1.3724518 9.518066 3.8154297c2.524353 2.442978 3.942505 5.756363 3.942505 9.211258l0 0c0 7.194435 -6.0264893 13.02668 -13.460571 13.02668l0 0c-7.434021 0 -13.46051 -5.832245 -13.46051 -13.02668z" fill-rule="evenodd"/><path stroke="#666666" stroke-width="2.120734908136483" stroke-linejoin="round" stroke-linecap="butt" d="m575.50543 84.48294l0 0c0 -7.1944427 6.0264893 -13.026688 13.46051 -13.026688l0 0c3.5700073 0 6.9937134 1.3724518 9.518066 3.8154297c2.524353 2.442978 3.942505 5.756363 3.942505 9.211258l0 0c0 7.194435 -6.0264893 13.02668 -13.460571 13.02668l0 0c-7.434021 0 -13.46051 -5.832245 -13.46051 -13.02668z" fill-rule="evenodd"/><path fill="#666666" d="m608.9843 84.48294l0 0c0 -7.1944427 6.0264893 -13.026688 13.460571 -13.026688l0 0c3.5699463 0 6.9936523 1.3724518 9.518005 3.8154297c2.524353 2.442978 3.942505 5.756363 3.942505 9.211258l0 0c0 7.194435 -6.0264893 13.02668 -13.46051 13.02668l0 0c-7.434082 0 -13.460571 -5.832245 -13.460571 -13.02668z" fill-rule="evenodd"/><path stroke="#666666" stroke-width="2.120734908136483" stroke-linejoin="round" stroke-linecap="butt" d="m608.9843 84.48294l0 0c0 -7.1944427 6.0264893 -13.026688 13.460571 -13.026688l0 0c3.5699463 0 6.9936523 1.3724518 9.518005 3.8154297c2.524353 2.442978 3.942505 5.756363 3.942505 9.211258l0 0c0 7.194435 -6.0264893 13.02668 -13.46051 13.02668l0 0c-7.434082 0 -13.460571 -5.832245 -13.460571 -13.02668z" fill-rule="evenodd"/><path fill="#666666" d="m757.21277 84.48294l0 0c0 -7.1944427 6.0264893 -13.026688 13.460571 -13.026688l0 0c3.5699463 0 6.9937134 1.3724518 9.518005 3.8154297c2.524353 2.442978 3.942505 5.756363 3.942505 9.211258l0 0c0 7.194435 -6.0264893 13.02668 -13.46051 13.02668l0 0c-7.434082 0 -13.460571 -5.832245 -13.460571 -13.02668z" fill-rule="evenodd"/><path stroke="#666666" stroke-width="2.120734908136483" stroke-linejoin="round" stroke-linecap="butt" d="m757.21277 84.48294l0 0c0 -7.1944427 6.0264893 -13.026688 13.460571 -13.026688l0 0c3.5699463 0 6.9937134 1.3724518 9.518005 3.8154297c2.524353 2.442978 3.942505 5.756363 3.942505 9.211258l0 0c0 7.194435 -6.0264893 13.02668 -13.46051 13.02668l0 0c-7.434082 0 -13.460571 -5.832245 -13.460571 -13.02668z" fill-rule="evenodd"/><path fill="#666666" d="m790.6917 84.48294l0 0c0 -7.1944427 6.0264893 -13.026688 13.46051 -13.026688l0 0c3.5699463 0 6.9937134 1.3724518 9.518066 3.8154297c2.524353 2.442978 3.942505 5.756363 3.942505 9.211258l0 0c0 7.194435 -6.0264893 13.02668 -13.460571 13.02668l0 0c-7.434021 0 -13.46051 -5.832245 -13.46051 -13.02668z" fill-rule="evenodd"/><path stroke="#666666" stroke-width="2.120734908136483" stroke-linejoin="round" stroke-linecap="butt" d="m790.6917 84.48294l0 0c0 -7.1944427 6.0264893 -13.026688 13.46051 -13.026688l0 0c3.5699463 0 6.9937134 1.3724518 9.518066 3.8154297c2.524353 2.442978 3.942505 5.756363 3.942505 9.211258l0 0c0 7.194435 -6.0264893 13.02668 -13.460571 13.02668l0 0c-7.434021 0 -13.46051 -5.832245 -13.46051 -13.02668z" fill-rule="evenodd"/><path fill="#666666" d="m789.6046 84.48294l0 0c0 -7.1944427 6.0264893 -13.026688 13.460571 -13.026688l0 0c3.5699463 0 6.9936523 1.3724518 9.518005 3.8154297c2.524353 2.442978 3.942505 5.756363 3.942505 9.211258l0 0c0 7.194435 -6.0264893 13.02668 -13.46051 13.02668l0 0c-7.434082 0 -13.460571 -5.832245 -13.460571 -13.02668z" fill-rule="evenodd"/><path stroke="#666666" stroke-width="2.120734908136483" stroke-linejoin="round" stroke-linecap="butt" d="m789.6046 84.48294l0 0c0 -7.1944427 6.0264893 -13.026688 13.460571 -13.026688l0 0c3.5699463 0 6.9936523 1.3724518 9.518005 3.8154297c2.524353 2.442978 3.942505 5.756363 3.942505 9.211258l0 0c0 7.194435 -6.0264893 13.02668 -13.46051 13.02668l0 0c-7.434082 0 -13.460571 -5.832245 -13.460571 -13.02668z" fill-rule="evenodd"/><path fill="#666666" d="m823.08356 84.48294l0 0c0 -7.1944427 6.0264893 -13.026688 13.46051 -13.026688l0 0c3.5699463 0 6.9937134 1.3724518 9.518066 3.8154297c2.524292 2.442978 3.9424438 5.756363 3.9424438 9.211258l0 0c0 7.194435 -6.026428 13.02668 -13.46051 13.02668l0 0c-7.434021 0 -13.46051 -5.832245 -13.46051 -13.02668z" fill-rule="evenodd"/><path stroke="#666666" stroke-width="2.120734908136483" stroke-linejoin="round" stroke-linecap="butt" d="m823.08356 84.48294l0 0c0 -7.1944427 6.0264893 -13.026688 13.46051 -13.026688l0 0c3.5699463 0 6.9937134 1.3724518 9.518066 3.8154297c2.524292 2.442978 3.9424438 5.756363 3.9424438 9.211258l0 0c0 7.194435 -6.026428 13.02668 -13.46051 13.02668l0 0c-7.434021 0 -13.46051 -5.832245 -13.46051 -13.02668z" fill-rule="evenodd"/><path fill="#666666" d="m113.91853 84.48294l0 0c0 -7.1944427 6.0264816 -13.026688 13.460533 -13.026688l0 0c3.569954 0 6.9936905 1.3724518 9.518028 3.8154297c2.5243378 2.442978 3.942505 5.756363 3.942505 9.211258l0 0c0 7.194435 -6.0264893 13.02668 -13.460533 13.02668l0 0c-7.4340515 0 -13.460533 -5.832245 -13.460533 -13.02668z" fill-rule="evenodd"/><path stroke="#666666" stroke-width="2.120734908136483" stroke-linejoin="round" stroke-linecap="butt" d="m113.91853 84.48294l0 0c0 -7.1944427 6.0264816 -13.026688 13.460533 -13.026688l0 0c3.569954 0 6.9936905 1.3724518 9.518028 3.8154297c2.5243378 2.442978 3.942505 5.756363 3.942505 9.211258l0 0c0 7.194435 -6.0264893 13.02668 -13.460533 13.02668l0 0c-7.4340515 0 -13.460533 -5.832245 -13.460533 -13.02668z" fill-rule="evenodd"/><path fill="#666666" d="m147.39743 84.48294l0 0c0 -7.1944427 6.0264893 -13.026688 13.460541 -13.026688l0 0c3.5699615 0 6.993698 1.3724518 9.518036 3.8154297c2.5243378 2.442978 3.942505 5.756363 3.942505 9.211258l0 0c0 7.194435 -6.0264893 13.02668 -13.460541 13.02668l0 0c-7.4340515 0 -13.460541 -5.832245 -13.460541 -13.02668z" fill-rule="evenodd"/><path stroke="#666666" stroke-width="2.120734908136483" stroke-linejoin="round" stroke-linecap="butt" d="m147.39743 84.48294l0 0c0 -7.1944427 6.0264893 -13.026688 13.460541 -13.026688l0 0c3.5699615 0 6.993698 1.3724518 9.518036 3.8154297c2.5243378 2.442978 3.942505 5.756363 3.942505 9.211258l0 0c0 7.194435 -6.0264893 13.02668 -13.460541 13.02668l0 0c-7.4340515 0 -13.460541 -5.832245 -13.460541 -13.02668z" fill-rule="evenodd"/><path fill="#666666" d="m147.31383 84.48294l0 0c0 -7.1944427 6.0264893 -13.026688 13.460541 -13.026688l0 0c3.5699463 0 6.993698 1.3724518 9.518036 3.8154297c2.5243378 2.442978 3.9424896 5.756363 3.9424896 9.211258l0 0c0 7.194435 -6.026474 13.02668 -13.4605255 13.02668l0 0c-7.4340515 0 -13.460541 -5.832245 -13.460541 -13.02668z" fill-rule="evenodd"/><path stroke="#666666" stroke-width="2.120734908136483" stroke-linejoin="round" stroke-linecap="butt" d="m147.31383 84.48294l0 0c0 -7.1944427 6.0264893 -13.026688 13.460541 -13.026688l0 0c3.5699463 0 6.993698 1.3724518 9.518036 3.8154297c2.5243378 2.442978 3.9424896 5.756363 3.9424896 9.211258l0 0c0 7.194435 -6.026474 13.02668 -13.4605255 13.02668l0 0c-7.4340515 0 -13.460541 -5.832245 -13.460541 -13.02668z" fill-rule="evenodd"/><path fill="#666666" d="m180.79274 84.48294l0 0c0 -7.1944427 6.0264893 -13.026688 13.4605255 -13.026688l0 0c3.5699615 0 6.993698 1.3724518 9.518036 3.8154297c2.5243378 2.442978 3.942505 5.756363 3.942505 9.211258l0 0c0 7.194435 -6.0264893 13.02668 -13.460541 13.02668l0 0c-7.4340363 0 -13.4605255 -5.832245 -13.4605255 -13.02668z" fill-rule="evenodd"/><path stroke="#666666" stroke-width="2.120734908136483" stroke-linejoin="round" stroke-linecap="butt" d="m180.79274 84.48294l0 0c0 -7.1944427 6.0264893 -13.026688 13.4605255 -13.026688l0 0c3.5699615 0 6.993698 1.3724518 9.518036 3.8154297c2.5243378 2.442978 3.942505 5.756363 3.942505 9.211258l0 0c0 7.194435 -6.0264893 13.02668 -13.460541 13.02668l0 0c-7.4340363 0 -13.4605255 -5.832245 -13.4605255 -13.02668z" fill-rule="evenodd"/><path fill="#666666" d="m329.0212 84.48294l0 0c0 -7.1944427 6.0264587 -13.026688 13.46051 -13.026688l0 0c3.5699768 0 6.9937134 1.3724518 9.518036 3.8154297c2.524353 2.442978 3.942505 5.756363 3.942505 9.211258l0 0c0 7.194435 -6.0264893 13.02668 -13.460541 13.02668l0 0c-7.4340515 0 -13.46051 -5.832245 -13.46051 -13.02668z" fill-rule="evenodd"/><path stroke="#666666" stroke-width="2.120734908136483" stroke-linejoin="round" stroke-linecap="butt" d="m329.0212 84.48294l0 0c0 -7.1944427 6.0264587 -13.026688 13.46051 -13.026688l0 0c3.5699768 0 6.9937134 1.3724518 9.518036 3.8154297c2.524353 2.442978 3.942505 5.756363 3.942505 9.211258l0 0c0 7.194435 -6.0264893 13.02668 -13.460541 13.02668l0 0c-7.4340515 0 -13.46051 -5.832245 -13.46051 -13.02668z" fill-rule="evenodd"/><path fill="#666666" d="m362.5001 84.48294l0 0c0 -7.1944427 6.0264893 -13.026688 13.460541 -13.026688l0 0c3.5699463 0 6.993683 1.3724518 9.518036 3.8154297c2.524353 2.442978 3.942505 5.756363 3.942505 9.211258l0 0c0 7.194435 -6.0264893 13.02668 -13.460541 13.02668l0 0c-7.4340515 0 -13.460541 -5.832245 -13.460541 -13.02668z" fill-rule="evenodd"/><path stroke="#666666" stroke-width="2.120734908136483" stroke-linejoin="round" stroke-linecap="butt" d="m362.5001 84.48294l0 0c0 -7.1944427 6.0264893 -13.026688 13.460541 -13.026688l0 0c3.5699463 0 6.993683 1.3724518 9.518036 3.8154297c2.524353 2.442978 3.942505 5.756363 3.942505 9.211258l0 0c0 7.194435 -6.0264893 13.02668 -13.460541 13.02668l0 0c-7.4340515 0 -13.460541 -5.832245 -13.460541 -13.02668z" fill-rule="evenodd"/><path fill="#666666" d="m361.41302 84.48294l0 0c0 -7.1944427 6.0264893 -13.026688 13.460541 -13.026688l0 0c3.5699463 0 6.993683 1.3724518 9.518036 3.8154297c2.524353 2.442978 3.942505 5.756363 3.942505 9.211258l0 0c0 7.194435 -6.0264893 13.02668 -13.460541 13.02668l0 0c-7.4340515 0 -13.460541 -5.832245 -13.460541 -13.02668z" fill-rule="evenodd"/><path stroke="#666666" stroke-width="2.120734908136483" stroke-linejoin="round" stroke-linecap="butt" d="m361.41302 84.48294l0 0c0 -7.1944427 6.0264893 -13.026688 13.460541 -13.026688l0 0c3.5699463 0 6.993683 1.3724518 9.518036 3.8154297c2.524353 2.442978 3.942505 5.756363 3.942505 9.211258l0 0c0 7.194435 -6.0264893 13.02668 -13.460541 13.02668l0 0c-7.4340515 0 -13.460541 -5.832245 -13.460541 -13.02668z" fill-rule="evenodd"/><path fill="#666666" d="m394.89194 84.48294l0 0c0 -7.1944427 6.0264893 -13.026688 13.460541 -13.026688l0 0c3.5699463 0 6.993683 1.3724518 9.518036 3.8154297c2.5243225 2.442978 3.942505 5.756363 3.942505 9.211258l0 0c0 7.194435 -6.0264893 13.02668 -13.460541 13.02668l0 0c-7.4340515 0 -13.460541 -5.832245 -13.460541 -13.02668z" fill-rule="evenodd"/><path stroke="#666666" stroke-width="2.120734908136483" stroke-linejoin="round" stroke-linecap="butt" d="m394.89194 84.48294l0 0c0 -7.1944427 6.0264893 -13.026688 13.460541 -13.026688l0 0c3.5699463 0 6.993683 1.3724518 9.518036 3.8154297c2.5243225 2.442978 3.942505 5.756363 3.942505 9.211258l0 0c0 7.194435 -6.0264893 13.02668 -13.460541 13.02668l0 0c-7.4340515 0 -13.460541 -5.832245 -13.460541 -13.02668z" fill-rule="evenodd"/><path fill="#000000" fill-opacity="0.0" d="m101.249344 27.469816l755.8425 0l0 108.53543l-755.8425 0z" fill-rule="evenodd"/><path stroke="#e06666" stroke-width="3.0" stroke-linejoin="round" stroke-linecap="butt" d="m101.249344 27.469816l755.8425 0l0 108.53543l-755.8425 0z" fill-rule="evenodd"/><path fill="#000000" fill-opacity="0.0" d="m102.08662 401.2467l755.8425 0l0 108.53546l-755.8425 0z" fill-rule="evenodd"/><path stroke="#e06666" stroke-width="3.0" stroke-linejoin="round" stroke-linecap="butt" d="m102.08662 401.2467l755.8425 0l0 108.53546l-755.8425 0z" fill-rule="evenodd"/></g></svg>