<svg version="1.1" viewBox="0.0 0.0 960.0 540.0" fill="none" stroke="none" stroke-linecap="square" stroke-miterlimit="10" xmlns:xlink="http://www.w3.org/1999/xlink" xmlns="http://www.w3.org/2000/svg"><clipPath id="g3801a143b5c_0_0.0"><path d="m0 0l960.0 0l0 540.0l-960.0 0l0 -540.0z" clip-rule="nonzero"/></clipPath><g clip-path="url(#g3801a143b5c_0_0.0)"><path fill="#000000" fill-opacity="0.0" d="m0 0l960.0 0l0 540.0l-960.0 0z" fill-rule="evenodd"/><path fill="#cccccc" d="m705.6032 398.16534l-369.98596 0c-51.08441 0 -92.49652 -68.28363 -92.49652 -152.51573c0 -84.23213 41.41211 -152.51575 92.49652 -152.51575l369.98596 0l0 0c51.08441 0 92.49652 68.28362 92.49652 152.51575c0 84.2321 -41.41211 152.51573 -92.49652 152.51573z" fill-rule="evenodd"/><path fill="#000000" fill-opacity="0.0" d="m335.61725 93.13386c51.08438 0 92.49649 68.28362 92.49649 152.51575c0 84.2321 -41.41211 152.51573 -92.49649 152.51573" fill-rule="evenodd"/><path fill="#000000" fill-opacity="0.0" d="m705.6032 398.16534l-369.98596 0c-51.08441 0 -92.49652 -68.28363 -92.49652 -152.51573c0 -84.23213 41.41211 -152.51575 92.49652 -152.51575l369.98596 0l0 0c51.08441 0 92.49652 68.28362 92.49652 152.51575c0 84.2321 -41.41211 152.51573 -92.49652 152.51573z" fill-rule="evenodd"/><path stroke="#666666" stroke-width="4.958005249343832" stroke-linejoin="round" stroke-linecap="butt" d="m335.61725 93.13386c51.08438 0 92.49649 68.28362 92.49649 152.51575c0 84.2321 -41.41211 152.51573 -92.49649 152.51573" fill-rule="evenodd"/><path stroke="#666666" stroke-width="4.958005249343832" stroke-linejoin="round" stroke-linecap="butt" d="m705.6032 398.16534l-369.98596 0c-51.08441 0 -92.49652 -68.28363 -92.49652 -152.51573c0 -84.23213 41.41211 -152.51575 92.49652 -152.51575l369.98596 0l0 0c51.08441 0 92.49652 68.28362 92.49652 152.51575c0 84.2321 -41.41211 152.51573 -92.49652 152.51573z" fill-rule="evenodd"/><path fill="#ffffff" d="m260.03864 245.63947l0 0c0 -62.890884 32.14386 -113.87401 71.79529 -113.87401l0 0c19.04129 0 37.302704 11.997406 50.766937 33.35292c13.464203 21.35553 21.02835 50.319824 21.02835 80.52109l0 0c0 62.8909 -32.14386 113.87402 -71.79529 113.87402l0 0c-39.65143 0 -71.79529 -50.983124 -71.79529 -113.87402z" fill-rule="evenodd"/><path fill="#cccccc" d="m341.77167 111.92913l-6.330719 60.661415l-12.661407 0l-6.330719 -60.661415z" fill-rule="evenodd"/><path fill="#cccccc" d="m382.83835 135.52756l-25.196869 44.015747l-10.582672 -4.5669403l14.614166 -48.582672z" fill-rule="evenodd"/><path fill="#b7b7b7" d="m282.71652 246.81627l0 0c0 -39.1035 21.990936 -70.80315 49.118134 -70.80315l0 0c13.0269165 0 25.520294 7.4595947 34.73175 20.737762c9.211426 13.278168 14.386353 31.287231 14.386353 50.065384l0 0c0 39.1035 -21.990936 70.80315 -49.118103 70.80315l0 0c-27.127197 0 -49.118134 -31.699646 -49.118134 -70.80315z" fill-rule="evenodd"/><path stroke="#666666" stroke-width="3.0" stroke-linejoin="round" stroke-linecap="butt" d="m282.71652 246.81627l0 0c0 -39.1035 21.990936 -70.80315 49.118134 -70.80315l0 0c13.0269165 0 25.520294 7.4595947 34.73175 20.737762c9.211426 13.278168 14.386353 31.287231 14.386353 50.065384l0 0c0 39.1035 -21.990936 70.80315 -49.118103 70.80315l0 0c-27.127197 0 -49.118134 -31.699646 -49.118134 -70.80315z" fill-rule="evenodd"/><path fill="#cccccc" d="m412.9666 173.37746l-37.724396 26.251968l-7.102356 -8.031494l30.62204 -34.283463z" fill-rule="evenodd"/><path fill="#3c78d8" d="m428.9239 286.65878l7.2598267 -7.2598267l0 3.6299133l346.89764 0l0 -3.6299133l7.2598267 7.2598267l-7.2598267 7.259857l0 -3.6299133l-346.89764 0l0 3.6299133z" fill-rule="evenodd"/><path fill="#000000" fill-opacity="0.0" d="m591.2651 239.6693l55.527588 0l0 60.661423l-55.527588 0z" fill-rule="evenodd"/><path fill="#3c78d8" d="m600.7338 269.1493l0 -0.21875l0.453125 -0.171875q0.4375 -0.15625 0.546875 -0.40625q0.125 -0.25 0.125 -0.671875l0 -11.140625q0 -0.421875 -0.125 -0.671875q-0.125 -0.265625 -0.546875 -0.40625l-0.453125 -0.171875l0 -0.21875l5.4375 0l0 0.21875l-0.375 0.171875q-0.40625 0.140625 -0.5625 0.40625q-0.15625 0.265625 -0.15625 0.703125l0 12.15625l3.296875 0q0.78125 0 1.15625 -0.375q0.375 -0.390625 0.71875 -1.125l0.828125 -1.796875l0.21875 0l-0.203125 3.71875l-10.359375 0zm11.470398 0l0 -0.21875l0.296875 -0.078125q0.40625 -0.109375 0.5625 -0.359375q0.171875 -0.265625 0.1875 -0.6875l0 -6.671875q0 -0.46875 -0.15625 -0.6875q-0.140625 -0.234375 -0.5625 -0.3125l-0.328125 -0.09375l0 -0.21875l3.65625 -1.234375l0.203125 0.21875l0.171875 1.453125q0.703125 -0.703125 1.609375 -1.1875q0.90625 -0.5 1.890625 -0.5q1.03125 0 1.640625 0.421875q0.625 0.40625 0.9375 1.28125q0.84375 -0.78125 1.8125 -1.234375q0.96875 -0.46875 1.875 -0.46875q1.515625 0 2.234375 0.734375q0.71875 0.71875 0.71875 2.265625l0 6.25q0 0.84375 0.765625 1.046875l0.234375 0.0625l0 0.21875l-4.921875 0l0 -0.21875l0.203125 -0.0625q0.40625 -0.125 0.5625 -0.375q0.171875 -0.265625 0.171875 -0.6875l0 -6.53125q0 -0.890625 -0.328125 -1.21875q-0.3125 -0.328125 -1.015625 -0.328125q-0.5625 0 -1.09375 0.25q-0.515625 0.234375 -1.078125 0.71875q0.09375 0.34375 0.125 0.75q0.03125 0.40625 0.03125 0.859375l0 5.515625q0.03125 0.84375 0.78125 1.046875l0.1875 0.0625l0 0.21875l-4.953125 0l0 -0.21875l0.296875 -0.078125q0.40625 -0.125 0.5625 -0.375q0.171875 -0.25 0.171875 -0.671875l0 -6.5q0 -0.859375 -0.3125 -1.21875q-0.3125 -0.359375 -1.0625 -0.359375q-0.484375 0 -0.984375 0.25q-0.484375 0.234375 -1.015625 0.703125l0 7.140625q0 0.84375 0.75 1.046875l0.1875 0.0625l0 0.21875l-5.015625 0z" fill-rule="nonzero"/><path fill="#000000" fill-opacity="0.0" d="m534.8714 355.24146l98.236206 0l0 38.677185l-98.236206 0z" fill-rule="evenodd"/><path fill="#000000" d="m560.4079 384.97147q-1.34375 0 -2.46875 -0.484375q-1.109375 -0.484375 -1.796875 -1.421875q-0.671875 -0.953125 -0.703125 -2.359375l1.625 0q0 0.9375 0.453125 1.546875q0.46875 0.609375 1.21875 0.90625q0.765625 0.28125 1.65625 0.28125q0.96875 0 1.671875 -0.296875q0.71875 -0.3125 1.109375 -0.8125q0.390625 -0.515625 0.390625 -1.125q0 -0.859375 -0.53125 -1.375q-0.515625 -0.53125 -1.53125 -0.875l-2.375 -0.828125q-1.65625 -0.59375 -2.515625 -1.359375q-0.84375 -0.765625 -0.84375 -2.15625q0 -1.5625 1.1875 -2.53125q1.203125 -0.984375 3.40625 -0.984375q2.0625 0 3.203125 0.953125q1.15625 0.9375 1.328125 2.515625l-1.640625 0q-0.15625 -0.921875 -0.875 -1.4375q-0.703125 -0.515625 -2.015625 -0.515625q-1.3125 0 -2.046875 0.59375q-0.734375 0.578125 -0.734375 1.46875q0 0.734375 0.453125 1.171875q0.46875 0.421875 1.46875 0.765625l2.765625 0.96875q1.4375 0.46875 2.265625 1.34375q0.84375 0.859375 0.84375 2.234375q0 1.0625 -0.578125 1.9375q-0.5625 0.859375 -1.671875 1.375q-1.109375 0.5 -2.71875 0.5zm11.752136 0q-0.84375 0 -1.5 -0.3125q-0.65625 -0.328125 -1.046875 -0.953125q-0.375 -0.640625 -0.375 -1.609375l0 -10.40625l1.640625 0l0 10.359375q0 1.578125 1.46875 1.578125q0.4375 0 0.84375 -0.09375q0.40625 -0.09375 0.921875 -0.28125l0.234375 1.1875q-0.546875 0.234375 -1.09375 0.375q-0.53125 0.15625 -1.09375 0.15625zm-4.578125 -9.296875l0 -1.140625l6.515625 0l0 1.140625l-6.515625 0zm15.769287 9.046875l-0.21875 -2.234375l0 -4.375q0 -1.375 -0.59375 -1.96875q-0.578125 -0.609375 -1.75 -0.609375q-0.65625 0 -1.203125 0.1875q-0.53125 0.1875 -0.84375 0.59375q-0.3125 0.390625 -0.3125 1.03125l-1.859375 0q0 -1.109375 0.53125 -1.78125q0.546875 -0.6875 1.5 -0.984375q0.96875 -0.3125 2.1875 -0.3125q1.171875 0 2.078125 0.40625q0.90625 0.390625 1.421875 1.25q0.515625 0.859375 0.515625 2.234375l0 6.5625l-1.453125 0zm-3.484375 0.25q-1.25 0 -2.078125 -0.4375q-0.8125 -0.453125 -1.21875 -1.15625q-0.40625 -0.71875 -0.40625 -1.515625q0 -1.03125 0.515625 -1.671875q0.515625 -0.65625 1.40625 -0.953125q0.90625 -0.3125 2.015625 -0.3125q0.8125 0 1.609375 0.15625q0.8125 0.15625 1.578125 0.4375l0 1.046875q-0.640625 -0.265625 -1.453125 -0.40625q-0.796875 -0.15625 -1.46875 -0.15625q-1.03125 0 -1.734375 0.421875q-0.703125 0.421875 -0.703125 1.4375q0 0.75 0.53125 1.28125q0.546875 0.53125 1.734375 0.53125q0.828125 0 1.484375 -0.390625q0.671875 -0.390625 1.0625 -0.96875q0.390625 -0.59375 0.390625 -1.171875l0.40625 0q0 1.015625 -0.4375 1.890625q-0.4375 0.875 -1.265625 1.40625q-0.828125 0.53125 -1.96875 0.53125zm12.053528 0q-0.84375 0 -1.5 -0.3125q-0.65625 -0.328125 -1.046875 -0.953125q-0.375 -0.640625 -0.375 -1.609375l0 -10.40625l1.640625 0l0 10.359375q0 1.578125 1.46875 1.578125q0.4375 0 0.84375 -0.09375q0.40625 -0.09375 0.921875 -0.28125l0.234375 1.1875q-0.546875 0.234375 -1.09375 0.375q-0.53125 0.15625 -1.09375 0.15625zm-4.578125 -9.296875l0 -1.140625l6.515625 0l0 1.140625l-6.515625 0zm13.144348 9.296875q-1.375 0 -2.453125 -0.59375q-1.0625 -0.609375 -1.6875 -1.796875q-0.609375 -1.203125 -0.609375 -2.953125q0 -1.765625 0.609375 -2.953125q0.625 -1.1875 1.6875 -1.796875q1.078125 -0.609375 2.453125 -0.609375q1.359375 0 2.4375 0.609375q1.078125 0.609375 1.6875 1.796875q0.609375 1.1875 0.609375 2.953125q0 1.75 -0.609375 2.953125q-0.609375 1.1875 -1.6875 1.796875q-1.078125 0.59375 -2.4375 0.59375zm-0.046875 -1.4375q1.0 0 1.6875 -0.46875q0.6875 -0.484375 1.046875 -1.359375q0.359375 -0.875 0.359375 -2.078125q0 -1.828125 -0.765625 -2.875q-0.75 -1.046875 -2.234375 -1.046875q-1.0 0 -1.6875 0.46875q-0.6875 0.46875 -1.046875 1.359375q-0.359375 0.875 -0.359375 2.09375q0 1.796875 0.75 2.859375q0.765625 1.046875 2.25 1.046875zm8.015076 1.1875l0 -10.21875l1.65625 0l0 10.21875l-1.65625 0zm1.15625 -4.609375q0 -1.9375 0.359375 -3.21875q0.375 -1.296875 1.09375 -1.921875q0.71875 -0.640625 1.765625 -0.640625q0.34375 0 0.625 0.046875q0.28125 0.046875 0.5625 0.15625l-0.109375 1.640625q-0.296875 -0.109375 -0.65625 -0.171875q-0.34375 -0.0625 -0.625 -0.0625q-0.90625 0 -1.46875 0.515625q-0.546875 0.515625 -0.796875 1.453125q-0.25 0.9375 -0.25 2.203125l-0.5 0z" fill-rule="nonzero"/><path fill="#000000" fill-opacity="0.0" d="m279.99213 267.32022l98.236206 0l0 38.677155l-98.236206 0z" fill-rule="evenodd"/><path fill="#000000" d="m307.89102 296.8002l0 -10.21875l1.65625 0l0 10.21875l-1.65625 0zm1.15625 -4.609375q0 -1.9375 0.359375 -3.21875q0.375 -1.296875 1.09375 -1.921875q0.71875 -0.640625 1.765625 -0.640625q0.34375 0 0.625 0.046875q0.28125 0.046875 0.5625 0.15625l-0.109375 1.640625q-0.296875 -0.109375 -0.65625 -0.171875q-0.34375 -0.0625 -0.625 -0.0625q-0.90625 0 -1.46875 0.515625q-0.546875 0.515625 -0.796875 1.453125q-0.25 0.9375 -0.25 2.203125l-0.5 0zm10.241333 4.859375q-1.375 0 -2.453125 -0.59375q-1.0625 -0.609375 -1.6875 -1.796875q-0.609375 -1.203125 -0.609375 -2.953125q0 -1.765625 0.609375 -2.953125q0.625 -1.1875 1.6875 -1.796875q1.078125 -0.609375 2.453125 -0.609375q1.359375 0 2.4375 0.609375q1.078125 0.609375 1.6875 1.796875q0.609375 1.1875 0.609375 2.953125q0 1.75 -0.609375 2.953125q-0.609375 1.1875 -1.6875 1.796875q-1.078125 0.59375 -2.4375 0.59375zm-0.046875 -1.4375q1.0 0 1.6875 -0.46875q0.6875 -0.484375 1.046875 -1.359375q0.359375 -0.875 0.359375 -2.078125q0 -1.828125 -0.765625 -2.875q-0.75 -1.046875 -2.234375 -1.046875q-1.0 0 -1.6875 0.46875q-0.6875 0.46875 -1.046875 1.359375q-0.359375 0.875 -0.359375 2.09375q0 1.796875 0.75 2.859375q0.765625 1.046875 2.25 1.046875zm11.155731 1.4375q-0.84375 0 -1.5 -0.3125q-0.65625 -0.328125 -1.046875 -0.953125q-0.375 -0.640625 -0.375 -1.609375l0 -10.40625l1.640625 0l0 10.359375q0 1.578125 1.46875 1.578125q0.4375 0 0.84375 -0.09375q0.40625 -0.09375 0.921875 -0.28125l0.234375 1.1875q-0.546875 0.234375 -1.09375 0.375q-0.53125 0.15625 -1.09375 0.15625zm-4.578125 -9.296875l0 -1.140625l6.515625 0l0 1.140625l-6.515625 0zm13.144318 9.296875q-1.375 0 -2.453125 -0.59375q-1.0625 -0.609375 -1.6875 -1.796875q-0.609375 -1.203125 -0.609375 -2.953125q0 -1.765625 0.609375 -2.953125q0.625 -1.1875 1.6875 -1.796875q1.078125 -0.609375 2.453125 -0.609375q1.359375 0 2.4375 0.609375q1.078125 0.609375 1.6875 1.796875q0.609375 1.1875 0.609375 2.953125q0 1.75 -0.609375 2.953125q-0.609375 1.1875 -1.6875 1.796875q-1.078125 0.59375 -2.4375 0.59375zm-0.046875 -1.4375q1.0 0 1.6875 -0.46875q0.6875 -0.484375 1.046875 -1.359375q0.359375 -0.875 0.359375 -2.078125q0 -1.828125 -0.765625 -2.875q-0.75 -1.046875 -2.234375 -1.046875q-1.0 0 -1.6875 0.46875q-0.6875 0.46875 -1.046875 1.359375q-0.359375 0.875 -0.359375 2.09375q0 1.796875 0.75 2.859375q0.765625 1.046875 2.25 1.046875zm8.015106 1.1875l0 -10.21875l1.65625 0l0 10.21875l-1.65625 0zm1.15625 -4.609375q0 -1.9375 0.359375 -3.21875q0.375 -1.296875 1.09375 -1.921875q0.71875 -0.640625 1.765625 -0.640625q0.34375 0 0.625 0.046875q0.28125 0.046875 0.5625 0.15625l-0.109375 1.640625q-0.296875 -0.109375 -0.65625 -0.171875q-0.34375 -0.0625 -0.625 -0.0625q-0.90625 0 -1.46875 0.515625q-0.546875 0.515625 -0.796875 1.453125q-0.25 0.9375 -0.25 2.203125l-0.5 0z" fill-rule="nonzero"/><path fill="#000000" fill-opacity="0.0" d="m326.98425 381.95013l-85.19685 23.905518" fill-rule="evenodd"/><path stroke="#242424" stroke-width="2.0" stroke-linejoin="round" stroke-linecap="butt" d="m326.98425 381.95013l-73.64307 20.663635" fill-rule="evenodd"/><path fill="#242424" stroke="#242424" stroke-width="2.0" stroke-linecap="butt" d="m252.44873 399.4331l-7.846237 5.63266l9.631165 0.7286072z" fill-rule="evenodd"/><path fill="#000000" fill-opacity="0.0" d="m161.80315 386.62204l98.23622 0l0 38.677185l-98.23622 0z" fill-rule="evenodd"/><path fill="#000000" d="m189.11295 405.91455l1.859375 0l3.328125 8.734375l-0.390625 0l2.578125 -8.734375l1.71875 0l-3.84375 12.234375q-0.484375 1.53125 -1.28125 2.359375q-0.796875 0.84375 -2.046875 0.84375q-0.671875 0 -1.28125 -0.203125q-0.59375 -0.1875 -1.234375 -0.546875l0 -1.53125q0.5625 0.4375 1.09375 0.625q0.53125 0.203125 1.09375 0.203125q0.640625 0 1.078125 -0.40625q0.4375 -0.40625 0.71875 -1.046875q0.28125 -0.625 0.484375 -1.3125l0.3125 -1.03125l-4.1875 -10.1875zm15.303177 10.4375q-1.375 0 -2.453125 -0.59375q-1.0625 -0.609375 -1.6875 -1.796875q-0.609375 -1.203125 -0.609375 -2.953125q0 -1.765625 0.609375 -2.953125q0.625 -1.1875 1.6875 -1.796875q1.078125 -0.609375 2.453125 -0.609375q1.359375 0 2.4375 0.609375q1.078125 0.609375 1.6875 1.796875q0.609375 1.1875 0.609375 2.953125q0 1.75 -0.609375 2.953125q-0.609375 1.1875 -1.6875 1.796875q-1.078125 0.59375 -2.4375 0.59375zm-0.046875 -1.4375q1.0 0 1.6875 -0.46875q0.6875 -0.484375 1.046875 -1.359375q0.359375 -0.875 0.359375 -2.078125q0 -1.828125 -0.765625 -2.875q-0.75 -1.046875 -2.234375 -1.046875q-1.0 0 -1.6875 0.46875q-0.6875 0.46875 -1.046875 1.359375q-0.359375 0.875 -0.359375 2.09375q0 1.796875 0.75 2.859375q0.765625 1.046875 2.25 1.046875zm8.015106 1.1875l0 -14.546875l1.65625 0l0 14.546875l-1.65625 0zm1.40625 -5.84375l5.203125 -4.34375l2.328125 0l-7.53125 6.109375l0 -1.765625zm5.71875 5.84375l-4.84375 -6.4375l1.6875 -0.296875l5.203125 6.734375l-2.046875 0zm8.424561 0.25q-1.3125 0 -2.359375 -0.671875q-1.03125 -0.671875 -1.640625 -1.875q-0.59375 -1.21875 -0.59375 -2.78125q0 -1.671875 0.59375 -2.875q0.59375 -1.203125 1.625 -1.84375q1.046875 -0.65625 2.375 -0.65625q1.171875 0 1.984375 0.46875q0.828125 0.46875 1.328125 1.28125q0.5 0.796875 0.6875 1.8125q0.203125 1.0 0.125 2.078125l-7.375 0l0 -1.03125l6.28125 0l-0.5 0.3125q0.03125 -0.625 -0.078125 -1.25q-0.09375 -0.625 -0.375 -1.15625q-0.265625 -0.53125 -0.765625 -0.84375q-0.5 -0.328125 -1.28125 -0.328125q-0.984375 0 -1.65625 0.5q-0.65625 0.5 -0.984375 1.328125q-0.328125 0.8125 -0.328125 1.75l0 0.6875q0 1.0625 0.328125 1.90625q0.328125 0.84375 0.96875 1.34375q0.65625 0.484375 1.640625 0.484375q1.0 0 1.640625 -0.46875q0.640625 -0.484375 0.78125 -1.421875l1.71875 0q-0.15625 1.0 -0.71875 1.734375q-0.5625 0.734375 -1.4375 1.125q-0.875 0.390625 -1.984375 0.390625z" fill-rule="nonzero"/><path fill="#000000" fill-opacity="0.0" d="m319.61417 142.25984l-91.49606 -5.5433044" fill-rule="evenodd"/><path stroke="#000000" stroke-width="2.0" stroke-linejoin="round" stroke-linecap="butt" d="m319.61417 142.25984l-79.51802 -4.8176117" fill-rule="evenodd"/><path fill="#000000" stroke="#000000" stroke-width="2.0" stroke-linecap="butt" d="m240.29593 134.1448l-9.259369 2.7485504l8.8598175 3.846283z" fill-rule="evenodd"/><path fill="#000000" fill-opacity="0.0" d="m144.88452 103.58268l98.236206 0l0 38.677162l-98.236206 0z" fill-rule="evenodd"/><path fill="#000000" d="m173.18874 133.31268q-0.84375 0 -1.5 -0.3125q-0.65625 -0.328125 -1.046875 -0.953125q-0.375 -0.640625 -0.375 -1.609375l0 -10.406258l1.640625 0l0 10.359383q0 1.578125 1.46875 1.578125q0.4375 0 0.84375 -0.09375q0.40625 -0.09375 0.921875 -0.28125l0.234375 1.1875q-0.546875 0.234375 -1.09375 0.375q-0.53125 0.15625 -1.09375 0.15625zm-4.578125 -9.296883l0 -1.140625l6.515625 0l0 1.140625l-6.515625 0zm13.144318 9.296883q-1.375 0 -2.453125 -0.59375q-1.0625 -0.609375 -1.6875 -1.796875q-0.609375 -1.203125 -0.609375 -2.9531326q0 -1.765625 0.609375 -2.953125q0.625 -1.1875 1.6875 -1.796875q1.078125 -0.609375 2.453125 -0.609375q1.359375 0 2.4375 0.609375q1.078125 0.609375 1.6875 1.796875q0.609375 1.1875 0.609375 2.953125q0 1.7500076 -0.609375 2.9531326q-0.609375 1.1875 -1.6875 1.796875q-1.078125 0.59375 -2.4375 0.59375zm-0.046875 -1.4375q1.0 0 1.6875 -0.46875q0.6875 -0.484375 1.046875 -1.359375q0.359375 -0.875 0.359375 -2.0781326q0 -1.828125 -0.765625 -2.875q-0.75 -1.046875 -2.234375 -1.046875q-1.0 0 -1.6875 0.46875q-0.6875 0.46875 -1.046875 1.359375q-0.359375 0.875 -0.359375 2.09375q0 1.7968826 0.75 2.8593826q0.765625 1.046875 2.25 1.046875zm11.702606 1.4375q-1.375 0 -2.453125 -0.59375q-1.0625 -0.609375 -1.6875 -1.796875q-0.609375 -1.203125 -0.609375 -2.9531326q0 -1.765625 0.609375 -2.953125q0.625 -1.1875 1.6875 -1.796875q1.078125 -0.609375 2.453125 -0.609375q1.359375 0 2.4375 0.609375q1.078125 0.609375 1.6875 1.796875q0.609375 1.1875 0.609375 2.953125q0 1.7500076 -0.609375 2.9531326q-0.609375 1.1875 -1.6875 1.796875q-1.078125 0.59375 -2.4375 0.59375zm-0.046875 -1.4375q1.0 0 1.6875 -0.46875q0.6875 -0.484375 1.046875 -1.359375q0.359375 -0.875 0.359375 -2.0781326q0 -1.828125 -0.765625 -2.875q-0.75 -1.046875 -2.234375 -1.046875q-1.0 0 -1.6875 0.46875q-0.6875 0.46875 -1.046875 1.359375q-0.359375 0.875 -0.359375 2.09375q0 1.7968826 0.75 2.8593826q0.765625 1.046875 2.25 1.046875zm11.155731 1.4375q-0.84375 0 -1.5 -0.3125q-0.65625 -0.328125 -1.046875 -0.953125q-0.375 -0.640625 -0.375 -1.609375l0 -10.406258l1.640625 0l0 10.359383q0 1.578125 1.46875 1.578125q0.4375 0 0.84375 -0.09375q0.40625 -0.09375 0.921875 -0.28125l0.234375 1.1875q-0.546875 0.234375 -1.09375 0.375q-0.53125 0.15625 -1.09375 0.15625zm-4.578125 -9.296883l0 -1.140625l6.515625 0l0 1.140625l-6.515625 0zm16.706818 9.046883l0 -6.0000076q0 -1.453125 -0.703125 -2.21875q-0.6875 -0.765625 -1.90625 -0.765625q-0.90625 0 -1.578125 0.5q-0.671875 0.5 -1.046875 1.4375q-0.359375 0.9375 -0.359375 2.2343826l-0.640625 0q0 -1.7812576 0.46875 -3.0468826q0.46875 -1.265625 1.375 -1.921875q0.90625 -0.671875 2.1875 -0.671875q1.203125 0 2.0625 0.546875q0.859375 0.53125 1.3125 1.53125q0.46875 1.0 0.46875 2.375l0 6.0000076l-1.640625 0zm-7.25 0l0 -14.546883l1.65625 0l0 14.546883l-1.65625 0z" fill-rule="nonzero"/><path fill="#000000" fill-opacity="0.0" d="m279.09448 247.78215l0 0c0 -41.530075 23.61258 -75.19685 52.740173 -75.19685l0 0c13.987549 0 27.402222 7.9225006 37.292908 22.024658c9.890717 14.102142 15.447235 33.22876 15.447235 53.172195l0 0c0 41.530075 -23.61258 75.19685 -52.740143 75.19685l0 0c-29.127594 0 -52.740173 -33.66678 -52.740173 -75.19685z" fill-rule="evenodd"/><path stroke="#a5c7d5" stroke-width="3.0" stroke-linejoin="round" stroke-linecap="butt" stroke-dasharray="3.0,9.0" d="m279.09448 247.78215l0 0c0 -41.530075 23.61258 -75.19685 52.740173 -75.19685l0 0c13.987549 0 27.402222 7.9225006 37.292908 22.024658c9.890717 14.102142 15.447235 33.22876 15.447235 53.172195l0 0c0 41.530075 -23.61258 75.19685 -52.740143 75.19685l0 0c-29.127594 0 -52.740173 -33.66678 -52.740173 -75.19685z" fill-rule="evenodd"/><path fill="#000000" fill-opacity="0.0" d="m331.83466 172.5853l-105.41733 31.622055" fill-rule="evenodd"/><path stroke="#242424" stroke-width="2.0" stroke-linejoin="round" stroke-linecap="butt" d="m331.83466 172.5853l-93.923325 28.174194" fill-rule="evenodd"/><path fill="#242424" stroke="#242424" stroke-width="2.0" stroke-linecap="butt" d="m236.96217 197.59532l-7.7443237 5.7719574l9.642639 0.5563812z" fill-rule="evenodd"/><path fill="#000000" fill-opacity="0.0" d="m143.55118 181.82677l98.23622 0l0 38.67717l-98.23622 0z" fill-rule="evenodd"/><path fill="#000000" d="m170.28185 211.30678l-0.21875 -2.234375l0 -4.375q0 -1.375 -0.59375 -1.96875q-0.578125 -0.609375 -1.75 -0.609375q-0.65625 0 -1.203125 0.1875q-0.53125 0.1875 -0.84375 0.59375q-0.3125 0.390625 -0.3125 1.03125l-1.859375 0q0 -1.109375 0.53125 -1.78125q0.546875 -0.6875 1.5 -0.984375q0.96875 -0.3125 2.1875 -0.3125q1.171875 0 2.078125 0.40625q0.90625 0.390625 1.421875 1.25q0.515625 0.859375 0.515625 2.234375l0 6.5625l-1.453125 0zm-3.484375 0.25q-1.25 0 -2.078125 -0.4375q-0.8125 -0.453125 -1.21875 -1.15625q-0.40625 -0.71875 -0.40625 -1.515625q0 -1.03125 0.515625 -1.671875q0.515625 -0.65625 1.40625 -0.953125q0.90625 -0.3125 2.015625 -0.3125q0.8125 0 1.609375 0.15625q0.8125 0.15625 1.578125 0.4375l0 1.046875q-0.640625 -0.265625 -1.453125 -0.40625q-0.796875 -0.15625 -1.46875 -0.15625q-1.03125 0 -1.734375 0.421875q-0.703125 0.421875 -0.703125 1.4375q0 0.75 0.53125 1.28125q0.546875 0.53125 1.734375 0.53125q0.828125 0 1.484375 -0.390625q0.671875 -0.390625 1.0625 -0.96875q0.390625 -0.59375 0.390625 -1.171875l0.40625 0q0 1.015625 -0.4375 1.890625q-0.4375 0.875 -1.265625 1.40625q-0.828125 0.53125 -1.96875 0.53125zm9.850418 -12.859375q-0.515625 0 -0.8125 -0.28125q-0.296875 -0.296875 -0.296875 -0.78125q0 -0.46875 0.296875 -0.734375q0.296875 -0.28125 0.8125 -0.28125q0.515625 0 0.8125 0.28125q0.296875 0.265625 0.296875 0.734375q0 0.484375 -0.296875 0.78125q-0.296875 0.28125 -0.8125 0.28125zm-0.828125 12.609375l0 -10.21875l1.65625 0l0 10.21875l-1.65625 0zm6.2463684 0l0 -10.21875l1.65625 0l0 10.21875l-1.65625 0zm1.15625 -4.609375q0 -1.9375 0.359375 -3.21875q0.375 -1.296875 1.09375 -1.921875q0.71875 -0.640625 1.765625 -0.640625q0.34375 0 0.625 0.046875q0.28125 0.046875 0.5625 0.15625l-0.109375 1.640625q-0.296875 -0.109375 -0.65625 -0.171875q-0.34375 -0.0625 -0.625 -0.0625q-0.90625 0 -1.46875 0.515625q-0.546875 0.515625 -0.796875 1.453125q-0.25 0.9375 -0.25 2.203125l-0.5 0zm9.821854 9.859375q-1.578125 0 -2.734375 -0.453125q-1.140625 -0.4375 -1.78125 -1.1875q-0.625 -0.734375 -0.625 -1.625q0 -1.1875 0.859375 -1.8125q0.875 -0.625 2.25 -0.625l0.921875 0.578125q-1.15625 0 -1.796875 0.484375q-0.625 0.484375 -0.625 1.3125q0 0.828125 0.890625 1.40625q0.90625 0.578125 2.640625 0.578125q1.265625 0 2.234375 -0.375q0.96875 -0.359375 1.5 -0.953125q0.546875 -0.59375 0.546875 -1.28125q0 -0.46875 -0.359375 -0.828125q-0.34375 -0.34375 -1.078125 -0.34375l-3.953125 0q-1.046875 0 -1.796875 -0.3125q-0.75 -0.3125 -1.15625 -0.828125q-0.40625 -0.515625 -0.40625 -1.109375q0 -0.640625 0.359375 -1.09375q0.375 -0.453125 0.953125 -0.6875q0.578125 -0.234375 1.25 -0.234375l0.328125 0.625q-0.328125 0 -0.65625 0.140625q-0.328125 0.140625 -0.546875 0.421875q-0.21875 0.28125 -0.21875 0.71875q0 0.484375 0.40625 0.8125q0.40625 0.328125 1.484375 0.328125l3.953125 0q1.453125 0 2.265625 0.609375q0.828125 0.609375 0.828125 1.703125q0 1.0 -0.71875 1.921875q-0.703125 0.921875 -2.046875 1.515625q-1.328125 0.59375 -3.171875 0.59375zm0.296875 -8.234375q-1.171875 0 -2.125 -0.46875q-0.9375 -0.46875 -1.5 -1.3125q-0.546875 -0.84375 -0.546875 -1.953125q0 -1.125 0.546875 -1.953125q0.5625 -0.84375 1.5 -1.3125q0.953125 -0.46875 2.125 -0.46875q1.140625 0 2.0625 0.46875q0.9375 0.46875 1.484375 1.3125q0.5625 0.828125 0.5625 1.953125q0 1.109375 -0.5625 1.953125q-0.546875 0.84375 -1.484375 1.3125q-0.921875 0.46875 -2.0625 0.46875zm0 -1.203125q1.171875 0 1.8125 -0.71875q0.65625 -0.71875 0.65625 -1.8125q0 -1.125 -0.65625 -1.8125q-0.640625 -0.703125 -1.8125 -0.703125q-1.171875 0 -1.84375 0.703125q-0.65625 0.6875 -0.65625 1.8125q0 1.09375 0.65625 1.8125q0.671875 0.71875 1.84375 0.71875zm3.34375 -4.640625l-0.796875 -0.328125q0 -0.890625 0.359375 -1.5625q0.359375 -0.6875 1.0 -1.0625q0.65625 -0.375 1.546875 -0.375l-0.125 1.640625q-0.96875 0 -1.484375 0.421875q-0.5 0.40625 -0.5 1.265625zm11.102142 8.828125l-0.21875 -2.234375l0 -4.375q0 -1.375 -0.59375 -1.96875q-0.578125 -0.609375 -1.75 -0.609375q-0.65625 0 -1.203125 0.1875q-0.53125 0.1875 -0.84375 0.59375q-0.3125 0.390625 -0.3125 1.03125l-1.859375 0q0 -1.109375 0.53125 -1.78125q0.546875 -0.6875 1.5 -0.984375q0.96875 -0.3125 2.1875 -0.3125q1.171875 0 2.078125 0.40625q0.90625 0.390625 1.421875 1.25q0.515625 0.859375 0.515625 2.234375l0 6.5625l-1.453125 0zm-3.484375 0.25q-1.25 0 -2.078125 -0.4375q-0.8125 -0.453125 -1.21875 -1.15625q-0.40625 -0.71875 -0.40625 -1.515625q0 -1.03125 0.515625 -1.671875q0.515625 -0.65625 1.40625 -0.953125q0.90625 -0.3125 2.015625 -0.3125q0.8125 0 1.609375 0.15625q0.8125 0.15625 1.578125 0.4375l0 1.046875q-0.640625 -0.265625 -1.453125 -0.40625q-0.796875 -0.15625 -1.46875 -0.15625q-1.03125 0 -1.734375 0.421875q-0.703125 0.421875 -0.703125 1.4375q0 0.75 0.53125 1.28125q0.546875 0.53125 1.734375 0.53125q0.828125 0 1.484375 -0.390625q0.671875 -0.390625 1.0625 -0.96875q0.390625 -0.59375 0.390625 -1.171875l0.40625 0q0 1.015625 -0.4375 1.890625q-0.4375 0.875 -1.265625 1.40625q-0.828125 0.53125 -1.96875 0.53125zm13.537918 0q-1.125 0 -1.953125 -0.5q-0.8125 -0.515625 -1.265625 -1.5q-0.453125 -0.984375 -0.453125 -2.40625l0.703125 0q0 0.953125 0.390625 1.609375q0.40625 0.640625 1.03125 0.984375q0.640625 0.328125 1.359375 0.328125q0.765625 0 1.46875 -0.4375q0.703125 -0.453125 1.140625 -1.3125q0.453125 -0.859375 0.453125 -2.140625q0 -1.203125 -0.40625 -2.0625q-0.40625 -0.875 -1.109375 -1.328125q-0.6875 -0.46875 -1.53125 -0.46875q-0.71875 0 -1.359375 0.359375q-0.640625 0.34375 -1.046875 1.03125q-0.390625 0.671875 -0.390625 1.671875l-0.703125 0q0 -1.484375 0.484375 -2.484375q0.5 -1.015625 1.34375 -1.53125q0.84375 -0.515625 1.890625 -0.515625q1.1875 0 2.21875 0.640625q1.046875 0.640625 1.6875 1.84375q0.640625 1.1875 0.640625 2.84375q0 1.6875 -0.65625 2.890625q-0.640625 1.203125 -1.6875 1.84375q-1.046875 0.640625 -2.25 0.640625zm-4.625 4.765625l0 -15.203125l1.390625 0l0.265625 2.375l0 12.828125l-1.65625 0z" fill-rule="nonzero"/><path fill="#000000" fill-opacity="0.0" d="m371.27667 171.51443l-137.16536 -5.7637787" fill-rule="evenodd"/><path stroke="#000000" stroke-width="2.0" stroke-linejoin="round" stroke-linecap="butt" d="m371.27664 171.51442l-125.17592 -5.259964" fill-rule="evenodd"/><path fill="#000000" stroke="#000000" stroke-width="2.0" stroke-linecap="butt" d="m246.23941 162.9539l-9.206879 2.9194946l8.929504 3.68161z" fill-rule="evenodd"/><path fill="#000000" fill-opacity="0.0" d="m155.7559 142.70473l98.23622 0l0 38.67717l-98.23622 0z" fill-rule="evenodd"/><path fill="#000000" d="m192.27478 172.43472q-1.484375 0 -2.484375 -0.421875q-0.984375 -0.421875 -1.5 -1.15625q-0.515625 -0.734375 -0.546875 -1.703125l1.609375 0q0.046875 0.96875 0.78125 1.453125q0.734375 0.484375 1.984375 0.484375q0.65625 0 1.203125 -0.203125q0.5625 -0.21875 0.890625 -0.59375q0.34375 -0.375 0.34375 -0.84375q0 -0.59375 -0.4375 -0.9375q-0.4375 -0.34375 -1.40625 -0.59375l-1.984375 -0.640625q-1.28125 -0.40625 -1.96875 -1.109375q-0.6875 -0.71875 -0.6875 -1.703125q0 -1.234375 1.078125 -1.984375q1.09375 -0.75 2.859375 -0.75q1.875 0 2.90625 0.765625q1.046875 0.765625 1.09375 1.921875l-1.65625 0q-0.09375 -0.671875 -0.6875 -1.015625q-0.578125 -0.34375 -1.65625 -0.34375q-1.03125 0 -1.609375 0.46875q-0.578125 0.453125 -0.578125 1.015625q0 1.0625 1.8125 1.5625l2.015625 0.6875q1.3125 0.390625 2.015625 1.03125q0.703125 0.640625 0.703125 1.625q0 0.765625 -0.5 1.453125q-0.5 0.6875 -1.421875 1.109375q-0.921875 0.421875 -2.171875 0.421875zm7.53598 -0.25l0 -14.546875l1.65625 0l0 14.546875l-1.65625 0zm9.659332 0.25q-1.375 0 -2.453125 -0.59375q-1.0625 -0.609375 -1.6875 -1.796875q-0.609375 -1.203125 -0.609375 -2.953125q0 -1.765625 0.609375 -2.953125q0.625 -1.1875 1.6875 -1.796875q1.078125 -0.609375 2.453125 -0.609375q1.359375 0 2.4375 0.609375q1.078125 0.609375 1.6875 1.796875q0.609375 1.1875 0.609375 2.953125q0 1.75 -0.609375 2.953125q-0.609375 1.1875 -1.6875 1.796875q-1.078125 0.59375 -2.4375 0.59375zm-0.046875 -1.4375q1.0 0 1.6875 -0.46875q0.6875 -0.484375 1.046875 -1.359375q0.359375 -0.875 0.359375 -2.078125q0 -1.828125 -0.765625 -2.875q-0.75 -1.046875 -2.234375 -1.046875q-1.0 0 -1.6875 0.46875q-0.6875 0.46875 -1.046875 1.359375q-0.359375 0.875 -0.359375 2.09375q0 1.796875 0.75 2.859375q0.765625 1.046875 2.25 1.046875zm11.155731 1.4375q-0.84375 0 -1.5 -0.3125q-0.65625 -0.328125 -1.046875 -0.953125q-0.375 -0.640625 -0.375 -1.609375l0 -10.40625l1.640625 0l0 10.359375q0 1.578125 1.46875 1.578125q0.4375 0 0.84375 -0.09375q0.40625 -0.09375 0.921875 -0.28125l0.234375 1.1875q-0.546875 0.234375 -1.09375 0.375q-0.53125 0.15625 -1.09375 0.15625zm-4.578125 -9.296875l0 -1.140625l6.515625 0l0 1.140625l-6.515625 0z" fill-rule="nonzero"/></g></svg>