<svg version="1.1" viewBox="0.0 0.0 960.0 540.0" fill="none" stroke="none" stroke-linecap="square" stroke-miterlimit="10" xmlns:xlink="http://www.w3.org/1999/xlink" xmlns="http://www.w3.org/2000/svg"><clipPath id="p.0"><path d="m0 0l960.0 0l0 540.0l-960.0 0l0 -540.0z" clip-rule="nonzero"/></clipPath><g clip-path="url(#p.0)"><path fill="#000000" fill-opacity="0.0" d="m0 0l960.0 0l0 540.0l-960.0 0z" fill-rule="evenodd"/><path fill="#595959" d="m64.905975 268.93762l0 0c0 -138.03581 113.002304 -249.93594 252.3977 -249.93594l0 0c66.94003 0 131.13837 26.332458 178.47214 73.204544c47.33374 46.87207 73.92554 110.44426 73.92554 176.7314l0 0c0 138.0358 -113.00226 249.93591 -252.39767 249.93591l0 0c-139.3954 0 -252.3977 -111.900116 -252.3977 -249.93591zm46.71302 0l0 0c0 112.23691 92.08817 203.2229 205.6847 203.2229c113.5965 0 205.68466 -90.98599 205.68466 -203.2229l0 0c0 -112.23692 -92.088165 -203.22292 -205.68466 -203.22292l0 0c-113.59651 0 -205.6847 90.98599 -205.6847 203.22292z" fill-rule="evenodd"/><path stroke="#595959" stroke-width="1.0" stroke-linejoin="round" stroke-linecap="butt" d="m64.905975 268.93762l0 0c0 -138.03581 113.002304 -249.93594 252.3977 -249.93594l0 0c66.94003 0 131.13837 26.332458 178.47214 73.204544c47.33374 46.87207 73.92554 110.44426 73.92554 176.7314l0 0c0 138.0358 -113.00226 249.93591 -252.39767 249.93591l0 0c-139.3954 0 -252.3977 -111.900116 -252.3977 -249.93591zm46.71302 0l0 0c0 112.23691 92.08817 203.2229 205.6847 203.2229c113.5965 0 205.68466 -90.98599 205.68466 -203.2229l0 0c0 -112.23692 -92.088165 -203.22292 -205.68466 -203.22292l0 0c-113.59651 0 -205.6847 90.98599 -205.6847 203.22292z" fill-rule="evenodd"/><path fill="#cfe2f3" d="m46.318768 269.99988l0 0c0 -146.06589 121.00508 -264.47568 270.27243 -264.47568l0 0c71.680695 0 140.42554 27.864323 191.11145 77.463135c50.685913 49.598816 79.16095 116.86925 79.16095 187.01256l0 0c0 146.06589 -121.005066 264.4757 -270.2724 264.4757l0 0c-149.26733 0 -270.27243 -118.40982 -270.27243 -264.4757zm19.846256 0l0 0c0 135.1051 112.11961 244.6294 250.42616 244.6294c138.30655 0 250.42615 -109.52429 250.42615 -244.6294l0 0c0 -135.1051 -112.1196 -244.62944 -250.42615 -244.62944l0 0c-138.30655 0 -250.42616 109.52433 -250.42616 244.62944z" fill-rule="evenodd"/><path fill="#999999" d="m114.958015 269.99988l7.7962723 -7.7962646l0 3.8981323l389.07007 0l0 -3.8981323l7.796295 7.7962646l-7.796295 7.7962646l0 -3.8981323l-389.07007 0l0 3.8981323z" fill-rule="evenodd"/><path fill="#000000" fill-opacity="0.0" d="m330.95596 221.05978l167.32791 0l0 56.73636l-167.32791 0z" fill-rule="evenodd"/><path fill="#595959" d="m350.7404 233.91353l0 17.90625l-4.671875 0l0 -17.90625l4.671875 0zm6.276947 3.21875l-0.078125 1.359375q0.484375 -0.8125 1.1875 -1.21875q0.703125 -0.40625 1.625 -0.40625q1.140625 0 1.875 0.546875q0.734375 0.546875 0.9375 1.375q0.21875 0.8125 0.21875 2.75l0 10.28125l-4.46875 0l0 -10.171875q0 -1.515625 -0.109375 -1.84375q-0.09375 -0.328125 -0.546875 -0.328125q-0.46875 0 -0.59375 0.390625q-0.125 0.375 -0.125 2.03125l0 9.921875l-4.46875 0l0 -14.6875l4.546875 0zm11.8480835 0l-0.078125 1.359375q0.484375 -0.8125 1.1875 -1.21875q0.703125 -0.40625 1.625 -0.40625q1.140625 0 1.875 0.546875q0.734375 0.546875 0.9375 1.375q0.21875 0.8125 0.21875 2.75l0 10.28125l-4.46875 0l0 -10.171875q0 -1.515625 -0.109375 -1.84375q-0.09375 -0.328125 -0.546875 -0.328125q-0.46875 0 -0.59375 0.390625q-0.125 0.375 -0.125 2.03125l0 9.921875l-4.46875 0l0 -14.6875l4.546875 0zm17.426178 7.609375l-5.78125 0l0 3.171875q0 1.0 0.140625 1.296875q0.140625 0.28125 0.546875 0.28125q0.515625 0 0.6875 -0.375q0.171875 -0.390625 0.171875 -1.484375l0 -1.9375l4.234375 0l0 1.078125q0 1.359375 -0.171875 2.09375q-0.171875 0.734375 -0.8125 1.5625q-0.625 0.828125 -1.59375 1.25q-0.96875 0.40625 -2.421875 0.40625q-1.421875 0 -2.515625 -0.40625q-1.078125 -0.40625 -1.6875 -1.125q-0.59375 -0.71875 -0.828125 -1.5625q-0.234375 -0.859375 -0.234375 -2.5l0 -4.28125q0 -1.921875 0.515625 -3.03125q0.53125 -1.125 1.71875 -1.71875q1.1875 -0.59375 2.71875 -0.59375q1.875 0 3.09375 0.71875q1.234375 0.71875 1.71875 1.90625q0.5 1.171875 0.5 3.296875l0 1.953125zm-4.484375 -2.390625l0 -1.078125q0 -1.140625 -0.125 -1.46875q-0.125 -0.328125 -0.5 -0.328125q-0.453125 0 -0.5625 0.28125q-0.109375 0.28125 -0.109375 1.515625l0 1.078125l1.296875 0zm10.410706 -5.21875l-0.171875 1.9375q0.96875 -2.078125 2.8125 -2.203125l0 5.171875q-1.21875 0 -1.796875 0.34375q-0.578125 0.328125 -0.71875 0.921875q-0.125 0.578125 -0.125 2.71875l0 5.796875l-4.46875 0l0 -14.6875l4.46875 0zm17.805634 -3.21875l0 17.90625l-4.46875 0l0 -1.0625q-0.640625 0.671875 -1.359375 1.0q-0.703125 0.328125 -1.484375 0.328125q-1.03125 0 -1.796875 -0.546875q-0.765625 -0.546875 -0.984375 -1.265625q-0.21875 -0.71875 -0.21875 -2.34375l0 -6.875q0 -1.6875 0.21875 -2.390625q0.21875 -0.71875 0.984375 -1.25q0.78125 -0.546875 1.859375 -0.546875q0.828125 0 1.515625 0.3125q0.6875 0.296875 1.265625 0.890625l0 -4.15625l4.46875 0zm-4.46875 6.921875q0 -0.8125 -0.140625 -1.078125q-0.140625 -0.28125 -0.546875 -0.28125q-0.40625 0 -0.546875 0.25q-0.125 0.25 -0.125 1.109375l0 7.1875q0 0.90625 0.125 1.1875q0.140625 0.28125 0.515625 0.28125q0.421875 0 0.5625 -0.3125q0.15625 -0.328125 0.15625 -1.546875l0 -6.796875zm10.67688 -6.921875l0 2.328125l-4.609375 0l0 -2.328125l4.609375 0zm0 3.21875l0 14.6875l-4.609375 0l0 -14.6875l4.609375 0zm5.5967407 5.6875l-4.203125 0l0 -0.984375q0 -1.703125 0.390625 -2.625q0.40625 -0.921875 1.578125 -1.625q1.1875 -0.71875 3.078125 -0.71875q2.265625 0 3.40625 0.8125q1.15625 0.796875 1.390625 1.96875q0.234375 1.171875 0.234375 4.796875l0 7.375l-4.34375 0l0 -1.3125q-0.40625 0.796875 -1.0625 1.1875q-0.640625 0.390625 -1.53125 0.390625q-1.171875 0 -2.15625 -0.65625q-0.984375 -0.65625 -0.984375 -2.890625l0 -1.203125q0 -1.640625 0.515625 -2.234375q0.53125 -0.609375 2.578125 -1.40625q2.203125 -0.859375 2.359375 -1.15625q0.15625 -0.296875 0.15625 -1.21875q0 -1.15625 -0.171875 -1.5q-0.171875 -0.34375 -0.5625 -0.34375q-0.453125 0 -0.5625 0.296875q-0.109375 0.28125 -0.109375 1.515625l0 1.53125zm1.40625 2.015625q-1.0625 0.796875 -1.234375 1.328125q-0.171875 0.515625 -0.171875 1.515625q0 1.140625 0.140625 1.484375q0.15625 0.328125 0.59375 0.328125q0.421875 0 0.546875 -0.265625q0.125 -0.265625 0.125 -1.359375l0 -3.03125zm10.416626 -7.703125l-0.0625 1.40625q0.515625 -0.828125 1.234375 -1.25q0.71875 -0.421875 1.640625 -0.421875q1.78125 0 2.8125 1.671875q0.5625 -0.828125 1.265625 -1.25q0.71875 -0.421875 1.578125 -0.421875q1.140625 0 1.890625 0.5625q0.75 0.546875 0.953125 1.359375q0.21875 0.796875 0.21875 2.59375l0 10.4375l-4.34375 0l0 -9.5625q0 -1.890625 -0.125 -2.328125q-0.125 -0.453125 -0.59375 -0.453125q-0.46875 0 -0.609375 0.453125q-0.140625 0.4375 -0.140625 2.328125l0 9.5625l-4.34375 0l0 -9.328125q0 -2.15625 -0.109375 -2.578125q-0.09375 -0.4375 -0.578125 -0.4375q-0.296875 0 -0.515625 0.234375q-0.203125 0.21875 -0.21875 0.546875q-0.015625 0.328125 -0.015625 1.390625l0 10.171875l-4.34375 0l0 -14.6875l4.40625 0zm23.186646 7.609375l-5.78125 0l0 3.171875q0 1.0 0.140625 1.296875q0.140625 0.28125 0.546875 0.28125q0.515625 0 0.6875 -0.375q0.171875 -0.390625 0.171875 -1.484375l0 -1.9375l4.234375 0l0 1.078125q0 1.359375 -0.171875 2.09375q-0.171875 0.734375 -0.8125 1.5625q-0.625 0.828125 -1.59375 1.25q-0.96875 0.40625 -2.421875 0.40625q-1.421875 0 -2.515625 -0.40625q-1.078125 -0.40625 -1.6875 -1.125q-0.59375 -0.71875 -0.828125 -1.5625q-0.234375 -0.859375 -0.234375 -2.5l0 -4.28125q0 -1.921875 0.515625 -3.03125q0.53125 -1.125 1.71875 -1.71875q1.1875 -0.59375 2.71875 -0.59375q1.875 0 3.09375 0.71875q1.234375 0.71875 1.71875 1.90625q0.5 1.171875 0.5 3.296875l0 1.953125zm-4.484375 -2.390625l0 -1.078125q0 -1.140625 -0.125 -1.46875q-0.125 -0.328125 -0.5 -0.328125q-0.453125 0 -0.5625 0.28125q-0.109375 0.28125 -0.109375 1.515625l0 1.078125l1.296875 0zm10.660675 -7.171875l0 2.3125l1.203125 0l0 2.328125l-1.203125 0l0 7.84375q0 1.453125 0.140625 1.625q0.15625 0.15625 1.25 0.15625l0 2.375l-1.8125 0q-1.515625 0 -2.171875 -0.125q-0.65625 -0.125 -1.15625 -0.578125q-0.5 -0.46875 -0.625 -1.0625q-0.109375 -0.59375 -0.109375 -2.78125l0 -7.453125l-0.96875 0l0 -2.328125l0.96875 0l0 -2.3125l4.484375 0zm12.309326 9.5625l-5.78125 0l0 3.171875q0 1.0 0.140625 1.296875q0.140625 0.28125 0.546875 0.28125q0.515625 0 0.6875 -0.375q0.171875 -0.390625 0.171875 -1.484375l0 -1.9375l4.234375 0l0 1.078125q0 1.359375 -0.171875 2.09375q-0.171875 0.734375 -0.8125 1.5625q-0.625 0.828125 -1.59375 1.25q-0.96875 0.40625 -2.421875 0.40625q-1.421875 0 -2.515625 -0.40625q-1.078125 -0.40625 -1.6875 -1.125q-0.59375 -0.71875 -0.828125 -1.5625q-0.234375 -0.859375 -0.234375 -2.5l0 -4.28125q0 -1.921875 0.515625 -3.03125q0.53125 -1.125 1.71875 -1.71875q1.1875 -0.59375 2.71875 -0.59375q1.875 0 3.09375 0.71875q1.234375 0.71875 1.71875 1.90625q0.5 1.171875 0.5 3.296875l0 1.953125zm-4.484375 -2.390625l0 -1.078125q0 -1.140625 -0.125 -1.46875q-0.125 -0.328125 -0.5 -0.328125q-0.453125 0 -0.5625 0.28125q-0.109375 0.28125 -0.109375 1.515625l0 1.078125l1.296875 0zm10.410706 -5.21875l-0.171875 1.9375q0.96875 -2.078125 2.8125 -2.203125l0 5.171875q-1.21875 0 -1.796875 0.34375q-0.578125 0.328125 -0.71875 0.921875q-0.125 0.578125 -0.125 2.71875l0 5.796875l-4.46875 0l0 -14.6875l4.46875 0z" fill-rule="nonzero"/><path fill="#eeeeee" d="m111.14209 136.74245l10.948494 -1.8995209l-2.2666168 3.186798l389.36465 271.5469l2.2666016 -3.186798l1.8820496 10.847656l-10.948486 1.8995056l2.2666016 -3.186798l-389.36465 -271.54688l-2.2666168 3.186798z" fill-rule="evenodd"/><path stroke="#eeeeee" stroke-width="1.0" stroke-linejoin="round" stroke-linecap="butt" d="m111.14209 136.74245l10.948494 -1.8995209l-2.2666168 3.186798l389.36465 271.5469l2.2666016 -3.186798l1.8820496 10.847656l-10.948486 1.8995056l2.2666016 -3.186798l-389.36465 -271.54688l-2.2666168 3.186798z" fill-rule="evenodd"/><path fill="#000000" fill-opacity="0.0" d="m186.07239 130.36658l135.59528 97.25421l-33.511505 45.980927l-135.59525 -97.25421z" fill-rule="evenodd"/><path fill="#595959" d="m194.2487 152.04906l3.8217468 2.7411041q1.5363159 1.1018982 2.1867523 1.9337616q0.6631317 0.84095764 0.7508087 1.5960693q0.087677 0.75512695 -0.23852539 1.5210419q-0.31700134 0.75328064 -1.3017426 2.1044312l-0.92030334 1.2627716q-1.0123596 1.3890381 -1.7737427 1.8235931q-0.752182 0.42192078 -1.775177 0.20736694q-1.0010986 -0.21809387 -2.2326813 -1.1014404l-1.0157471 -0.7285309l-4.2518616 5.833954l-3.7963562 -2.7228851l10.546829 -14.471237zm1.9925232 5.197891l-2.687317 3.687271q0.15235901 0.10928345 0.26663208 0.1912384q0.53326416 0.3824768 0.90779114 0.26652527q0.38720703 -0.10684204 0.97621155 -0.91500854l0.86509705 -1.1869965q0.542984 -0.74502563 0.4709015 -1.1236267q-0.06289673 -0.39120483 -0.7993164 -0.9194031zm10.892624 4.0438385l-1.3712769 1.8815155l-3.7455597 -2.6864777l1.3712769 -1.8815002l3.7455597 2.6864624zm-1.8958588 2.6012878l-8.65097 11.869949l-3.7455597 -2.6864624l8.65097 -11.869949l3.7455597 2.6864624zm4.9922943 3.580658l-0.8273468 1.0025635q0.9426422 -0.2853241 1.7567749 -0.18211365q0.8141327 0.10322571 1.5124664 0.6040802q0.8379822 0.6010437 1.1161194 1.4927521q0.29083252 0.90083313 0.010635376 1.6036072q-0.27098083 0.6901398 -1.3017273 2.1044464l-3.644455 5.000519q-1.178009 1.6163483 -1.8746338 2.1742554q-0.6874237 0.54530334 -1.5786743 0.5213623q-0.8912506 -0.023925781 -1.7419434 -0.634079q-0.67292786 -0.48265076 -1.0142059 -1.2081299q-0.34127808 -0.7254944 -0.38200378 -1.6776733l-1.9786835 2.7149353l-3.6312866 -2.6045074l9.884201 -13.562042l3.6947632 2.6500244zm-1.4932251 4.1976166q0.8006897 -1.0986023 0.890152 -1.380539q0.09867859 -0.29457092 -0.269516 -0.55867004q-0.36820984 -0.26408386 -0.6630554 -0.071762085q-0.29484558 0.19232178 -1.0494995 1.2277985l-3.5800323 4.91214q-0.78227234 1.0733337 -0.88316345 1.423996q-0.07899475 0.3471527 0.27651978 0.6021271q0.35551453 0.25498962 0.6065521 0.06970215q0.27293396 -0.188797 0.96318054 -1.1358643l3.7088623 -5.088928zm11.099838 12.0569l-4.697815 -3.369461l-1.8682404 2.5634003q-0.5890045 0.8081665 -0.64959717 1.1300507q-0.0513916 0.30924988 0.2787323 0.54603577q0.4189911 0.3005066 0.779541 0.09762573q0.36973572 -0.21551514 1.0139618 -1.0994568l1.1411896 -1.5658264l3.4408417 2.4679108l-0.635025 0.8713074q-0.80067444 1.0986023 -1.372879 1.591919q-0.57221985 0.4933319 -1.5805511 0.7892151q-0.995636 0.30500793 -2.0313263 0.081329346q-1.0264893 -0.23628235 -2.2072906 -1.0832062q-1.1554108 -0.82870483 -1.8049164 -1.7944946q-0.63679504 -0.9566803 -0.70861816 -1.8927002q-0.059143066 -0.92692566 0.24737549 -1.7454224q0.3157196 -0.8311157 1.2820587 -2.157013l2.5216675 -3.459961q1.1319885 -1.5532074 2.2044067 -2.1492462q1.0943146 -0.59954834 2.4089966 -0.38729858q1.314682 0.21224976 2.5589752 1.1047058q1.5236053 1.092804 2.090622 2.3839874q0.57969666 1.300293 0.27386475 2.5423126q-0.28393555 1.2384796 -1.5355682 2.9558258l-1.1504059 1.5784607zm-2.2359009 -4.545639l0.635025 -0.8713074q0.6718292 -0.92181396 0.7635193 -1.2598419q0.09169006 -0.3380432 -0.21302795 -0.55659485q-0.36820984 -0.26409912 -0.6227417 -0.10054016q-0.25454712 0.1635437 -0.98158264 1.1611328l-0.635025 0.8712921l1.053833 0.7558594zm21.308945 4.900223l-10.546829 14.471237l-3.6312866 -2.6045074l0.6258087 -0.8586731q-0.91630554 0.1696167 -1.693634 0.0158844q-0.7646179 -0.14460754 -1.3994598 -0.59994507q-0.8379822 -0.6010437 -1.1380157 -1.4892426q-0.30003357 -0.8881836 -0.05444336 -1.5965424q0.24559021 -0.708374 1.202713 -2.021637l4.0493927 -5.5561523q0.99394226 -1.3637848 1.5858307 -1.8045349q0.60110474 -0.45336914 1.5361633 -0.43647766q0.95695496 0.013366699 1.8330231 0.64172363q0.6729431 0.48265076 1.0475311 1.1358948q0.38380432 0.64060974 0.5038605 1.4574127l2.4480438 -3.3589478l3.6313019 2.6045074zm-7.7082977 2.9895325q0.4785614 -0.6566467 0.52075195 -0.9532776q0.051376343 -0.30924988 -0.2787323 -0.5460205q-0.3301239 -0.23677063 -0.5916443 -0.11669922q-0.24882507 0.12919617 -0.7550049 0.8237152l-4.233444 5.8087006q-0.53378296 0.73239136 -0.5978699 1.032547q-0.0513916 0.30926514 0.25334167 0.5278168q0.34280396 0.24588013 0.6411438 0.075286865q0.3202362 -0.17411804 1.0380859 -1.1590729l4.003372 -5.492996zm12.753006 0.62872314l-1.3712769 1.8815155l-3.7455597 -2.6864624l1.3712616 -1.8815155l3.745575 2.6864624zm-1.8958588 2.6012878l-8.65097 11.869949l-3.7455597 -2.6864624l8.65097 -11.869949l3.7455597 2.6864624zm1.1979523 7.858383l-3.4154358 -2.4496918l0.5797882 -0.7955322q1.0031433 -1.3764038 1.8635559 -1.8937683q0.8731079 -0.508255 2.239502 -0.3935089q1.3883057 0.11123657 2.9246216 1.21315q1.8410492 1.3204651 2.2893524 2.6418915q0.47019958 1.3179016 -0.029586792 2.4015656q-0.49978638 1.083664 -2.6349182 4.013275l-4.3438873 5.9602356l-3.5297241 -2.531662l0.7730713 -1.0607147q-0.79948425 0.40724182 -1.5628204 0.3404541q-0.7506561 -0.05769348 -1.4743805 -0.57676697q-0.95225525 -0.68299866 -1.3656311 -1.7870789q-0.4133606 -1.1040802 0.9026947 -2.9098206l0.7086334 -0.9723358q0.9663391 -1.3258972 1.7350616 -1.5052185q0.79060364 -0.18286133 2.9232483 0.36610413q2.2964325 0.5895233 2.5982666 0.44065857q0.30181885 -0.14884949 0.84480286 -0.8938751q0.68104553 -0.93444824 0.7438507 -1.3124237q0.062805176 -0.37799072 -0.2546234 -0.60565186q-0.36820984 -0.26409912 -0.63194275 -0.08792114q-0.25453186 0.16355896 -0.98158264 1.1611328l-0.9019165 1.237503zm-0.04449463 2.4485626q-1.3327484 0.024765015 -1.7853088 0.3539276q-0.44337463 0.31652832 -1.0323792 1.1247101q-0.6718292 0.92181396 -0.760025 1.2815704q-0.06629944 0.35624695 0.2892151 0.6112366q0.34280396 0.24588013 0.60084534 0.10406494q0.25802612 -0.14181519 0.90223694 -1.0257416l1.7854156 -2.449768zm13.001678 -0.1543274l-0.8790741 1.1000671q0.90675354 -0.3687439 1.7393036 -0.29078674q0.83255005 0.07795715 1.581665 0.61524963q1.4474182 1.0381622 1.3006897 2.9903564q0.94485474 -0.34143066 1.764679 -0.27256775q0.83255005 0.07795715 1.5308838 0.5788269q0.92684937 0.66477966 1.2049866 1.5565033q0.28735352 0.8790741 -0.026153564 1.6540985q-0.29162598 0.77149963 -1.3499756 2.2236786l-6.147705 8.435242l-3.5297241 -2.5316467l5.632324 -7.7281036q1.1135864 -1.5279388 1.2697144 -1.954361q0.16531372 -0.4390564 -0.21560669 -0.71224976q-0.3808899 -0.27320862 -0.76205444 0.0110321045q-0.37197876 0.2716217 -1.4855347 1.7995605l-5.6323547 7.7280884l-3.5297089 -2.5316467l5.494278 -7.538681q1.2700348 -1.7426147 1.429657 -2.1473083q0.1815033 -0.40820312 -0.21209717 -0.69052124q-0.24124146 -0.17301941 -0.5570526 -0.11109924q-0.29389954 0.058395386 -0.49986267 0.31446838q-0.20596313 0.256073 -0.83177185 1.1147614l-5.9912567 8.220566l-3.5297241 -2.5316467l8.65097 -11.869949l3.5805054 2.5680695zm14.359436 19.663422l-4.697815 -3.369461l-1.8682556 2.5634003q-0.58898926 0.8081665 -0.64956665 1.1300507q-0.0513916 0.30926514 0.27871704 0.54603577q0.41900635 0.30052185 0.779541 0.09762573q0.36975098 -0.21551514 1.013977 -1.0994415l1.1411743 -1.5658264l3.440857 2.4678955l-0.6350403 0.8713074q-0.8006592 1.0986023 -1.3728943 1.5919342q-0.5722046 0.49331665 -1.5805359 0.7892151q-0.995636 0.30499268 -2.0313416 0.081329346q-1.0264587 -0.2362976 -2.2072754 -1.0832214q-1.155426 -0.82870483 -1.8049011 -1.7944794q-0.6368103 -0.9566803 -0.7086487 -1.8927155q-0.05911255 -0.92692566 0.247406 -1.7454071q0.31570435 -0.831131 1.2820435 -2.1570282l2.5216675 -3.459961q1.1319885 -1.5531921 2.2044067 -2.149231q1.0943298 -0.5995636 2.4089966 -0.38731384q1.3146667 0.21226501 2.55896 1.1047211q1.5236206 1.0927887 2.0906372 2.3839874q0.5797119 1.300293 0.27386475 2.5422974q-0.28393555 1.2384796 -1.5355835 2.955841l-1.1503906 1.5784454zm-2.2359009 -4.545639l0.63500977 -0.8713074q0.6718445 -0.92181396 0.7635498 -1.2598419q0.091674805 -0.33802795 -0.21304321 -0.55659485q-0.3682251 -0.26408386 -0.6227417 -0.10054016q-0.25454712 0.1635437 -0.9815979 1.1611328l-0.63500977 0.8713074l1.053833 0.7558441zm12.887085 0.41726685l-1.3620605 1.8688812l0.97766113 0.70121765l-1.3712769 1.8815155l-0.97766113 -0.70121765l-4.6199646 6.3390503q-0.855896 1.1743774 -0.842865 1.3952332q0.034942627 0.21734619 0.92370605 0.8548126l-1.3988647 1.9194031l-1.4728394 -1.0563812q-1.2315979 -0.88334656 -1.6912231 -1.3668365q-0.45965576 -0.48350525 -0.59906006 -1.1411133q-0.1302185 -0.6702423 0.11795044 -1.2229462q0.26083374 -0.54359436 1.5492859 -2.3114624l4.3898926 -6.0233765l-0.7872009 -0.5646057l1.3712769 -1.8815155l0.7872009 0.5646057l1.3620605 -1.8688812l3.643982 2.613617zm4.3702087 14.902283l-4.6978455 -3.369461l-1.8682251 2.5634155q-0.5890198 0.8081665 -0.64959717 1.1300507q-0.0513916 0.30924988 0.27871704 0.5460205q0.41900635 0.30052185 0.779541 0.09764099q0.36975098 -0.2155304 1.013977 -1.0994568l1.1412048 -1.5658264l3.4408264 2.4679108l-0.63500977 0.8713074q-0.8006897 1.0986023 -1.3728943 1.591919q-0.5722046 0.4933319 -1.5805664 0.7892151q-0.995636 0.30499268 -2.031311 0.081329346q-1.0264893 -0.2362976 -2.207306 -1.0832062q-1.1553955 -0.8287201 -1.8049011 -1.7944946q-0.6368103 -0.9566803 -0.70861816 -1.8927155q-0.059143066 -0.9269104 0.24737549 -1.7454071q0.31573486 -0.8311157 1.2820435 -2.157013l2.5216675 -3.4599762q1.1319885 -1.5531921 2.2044067 -2.149231q1.0943298 -0.5995636 2.4089966 -0.38729858q1.3146973 0.21224976 2.5589905 1.1047058q1.5236206 1.092804 2.0906067 2.3839874q0.5797119 1.300293 0.27386475 2.5422974q-0.28393555 1.2384796 -1.535553 2.955841l-1.1503906 1.5784454zm-2.2359009 -4.545624l0.63500977 -0.8713074q0.67181396 -0.92181396 0.7635193 -1.2598572q0.09170532 -0.33802795 -0.21304321 -0.55659485q-0.36819458 -0.26408386 -0.6227417 -0.10054016q-0.2545166 0.16355896 -0.9815674 1.1611328l-0.6350403 0.8713074l1.0538635 0.7558594zm11.533539 1.8499908l-1.2808533 1.4656525q2.0112305 -1.1148529 3.5830688 -0.14129639l-3.0462341 4.1797485q-0.99035645 -0.71032715 -1.6626282 -0.7694702q-0.6630249 -0.071762085 -1.1270447 0.3261261q-0.44207764 0.39437866 -1.7029114 2.1243591l-3.4143677 4.684845l-3.6312866 -2.6045074l8.65097 -11.869949l3.6312866 2.6044922z" fill-rule="nonzero"/><path fill="#cfe2f3" d="m611.17004 275.279l0 0c0 -2.8757935 2.3312988 -5.2070923 5.2070923 -5.2070923l65.388306 0c1.3810425 0 2.7054443 0.5486145 3.6820068 1.525116c0.97650146 0.976532 1.5250854 2.3009644 1.5250854 3.6819763l0 20.82779c0 2.875824 -2.3312988 5.207123 -5.2070923 5.207123l-65.388306 0c-2.8757935 0 -5.2070923 -2.3312988 -5.2070923 -5.207123z" fill-rule="evenodd"/><path fill="#595959" d="m611.17004 202.7604l0 0c0 -2.8758087 2.3312988 -5.2071075 5.2070923 -5.2071075l65.388306 0c1.3810425 0 2.7054443 0.5486145 3.6820068 1.5251312c0.97650146 0.9765167 1.5250854 2.3009644 1.5250854 3.6819763l0 20.82779c0 2.8757935 -2.3312988 5.2070923 -5.2070923 5.2070923l-65.388306 0c-2.8757935 0 -5.2070923 -2.3312988 -5.2070923 -5.2070923z" fill-rule="evenodd"/><path fill="#000000" fill-opacity="0.0" d="m714.1385 257.3247l167.32788 0l0 56.73636l-167.32788 0z" fill-rule="evenodd"/><path fill="#595959" d="m730.145 270.17847l0 17.90625l-4.671875 0l0 -17.90625l4.671875 0zm6.2769165 3.21875l-0.078125 1.359375q0.484375 -0.8125 1.1875 -1.21875q0.703125 -0.40625 1.625 -0.40625q1.140625 0 1.875 0.546875q0.734375 0.546875 0.9375 1.375q0.21875 0.8125 0.21875 2.75l0 10.28125l-4.46875 0l0 -10.171875q0 -1.515625 -0.109375 -1.84375q-0.09375 -0.328125 -0.546875 -0.328125q-0.46875 0 -0.59375 0.390625q-0.125 0.375 -0.125 2.03125l0 9.921875l-4.46875 0l0 -14.6875l4.546875 0zm16.426208 4.703125l-3.953125 0l0 -0.796875q0 -1.015625 -0.125 -1.28125q-0.109375 -0.28125 -0.578125 -0.28125q-0.375 0 -0.5625 0.25q-0.1875 0.25 -0.1875 0.75q0 0.671875 0.09375 0.984375q0.09375 0.3125 0.5625 0.6875q0.46875 0.375 1.9375 1.09375q1.9375 0.953125 2.546875 1.796875q0.609375 0.84375 0.609375 2.4375q0 1.796875 -0.46875 2.71875q-0.453125 0.90625 -1.546875 1.40625q-1.09375 0.484375 -2.625 0.484375q-1.703125 0 -2.921875 -0.53125q-1.203125 -0.53125 -1.65625 -1.4375q-0.453125 -0.90625 -0.453125 -2.75l0 -0.703125l3.953125 0l0 0.9375q0 1.171875 0.140625 1.53125q0.15625 0.359375 0.59375 0.359375q0.484375 0 0.671875 -0.234375q0.1875 -0.25 0.1875 -1.015625q0 -1.046875 -0.25 -1.3125q-0.25 -0.265625 -2.59375 -1.5625q-1.96875 -1.109375 -2.40625 -2.015625q-0.421875 -0.90625 -0.421875 -2.140625q0 -1.765625 0.453125 -2.59375q0.46875 -0.828125 1.578125 -1.28125q1.125 -0.46875 2.59375 -0.46875q1.453125 0 2.46875 0.375q1.03125 0.375 1.578125 0.984375q0.546875 0.609375 0.65625 1.125q0.125 0.515625 0.125 1.625l0 0.859375zm11.773743 -4.703125l0 14.6875l-4.546875 0l0.078125 -1.21875q-0.46875 0.75 -1.15625 1.125q-0.671875 0.359375 -1.5625 0.359375q-1.0 0 -1.671875 -0.34375q-0.65625 -0.359375 -0.96875 -0.9375q-0.3125 -0.59375 -0.390625 -1.234375q-0.078125 -0.640625 -0.078125 -2.53125l0 -9.90625l4.46875 0l0 10.0q0 1.71875 0.09375 2.046875q0.109375 0.3125 0.578125 0.3125q0.5 0 0.59375 -0.328125q0.09375 -0.34375 0.09375 -2.140625l0 -9.890625l4.46875 0zm6.212036 -3.21875l0 17.90625l-4.609375 0l0 -17.90625l4.609375 0zm5.5967407 8.90625l-4.203125 0l0 -0.984375q0 -1.703125 0.390625 -2.625q0.40625 -0.921875 1.578125 -1.625q1.1875 -0.71875 3.078125 -0.71875q2.265625 0 3.40625 0.8125q1.15625 0.796875 1.390625 1.96875q0.234375 1.171875 0.234375 4.796875l0 7.375l-4.34375 0l0 -1.3125q-0.40625 0.796875 -1.0625 1.1875q-0.640625 0.390625 -1.53125 0.390625q-1.171875 0 -2.15625 -0.65625q-0.984375 -0.65625 -0.984375 -2.890625l0 -1.203125q0 -1.640625 0.515625 -2.234375q0.53125 -0.609375 2.578125 -1.40625q2.203125 -0.859375 2.359375 -1.15625q0.15625 -0.296875 0.15625 -1.21875q0 -1.15625 -0.171875 -1.5q-0.171875 -0.34375 -0.5625 -0.34375q-0.453125 0 -0.5625 0.296875q-0.109375 0.28125 -0.109375 1.515625l0 1.53125zm1.40625 2.015625q-1.0625 0.796875 -1.234375 1.328125q-0.171875 0.515625 -0.171875 1.515625q0 1.140625 0.140625 1.484375q0.15625 0.328125 0.59375 0.328125q0.421875 0 0.546875 -0.265625q0.125 -0.265625 0.125 -1.359375l0 -3.03125zm10.729126 -9.65625l0 2.3125l1.203125 0l0 2.328125l-1.203125 0l0 7.84375q0 1.453125 0.140625 1.625q0.15625 0.15625 1.25 0.15625l0 2.375l-1.8125 0q-1.515625 0 -2.171875 -0.125q-0.65625 -0.125 -1.15625 -0.578125q-0.5 -0.46875 -0.625 -1.0625q-0.109375 -0.59375 -0.109375 -2.78125l0 -7.453125l-0.96875 0l0 -2.328125l0.96875 0l0 -2.3125l4.484375 0zm6.793701 -1.265625l0 2.328125l-4.609375 0l0 -2.328125l4.609375 0zm0 3.21875l0 14.6875l-4.609375 0l0 -14.6875l4.609375 0zm11.706116 5.15625l0 3.609375q0 1.96875 -0.203125 2.890625q-0.1875 0.921875 -0.84375 1.734375q-0.65625 0.796875 -1.6875 1.1875q-1.015625 0.375 -2.34375 0.375q-1.484375 0 -2.515625 -0.328125q-1.015625 -0.328125 -1.59375 -0.984375q-0.5625 -0.65625 -0.8125 -1.59375q-0.25 -0.9375 -0.25 -2.796875l0 -3.765625q0 -2.046875 0.4375 -3.1875q0.453125 -1.15625 1.59375 -1.859375q1.15625 -0.703125 2.953125 -0.703125q1.5 0 2.578125 0.453125q1.078125 0.453125 1.65625 1.171875q0.59375 0.71875 0.8125 1.484375q0.21875 0.765625 0.21875 2.3125zm-4.46875 -1.09375q0 -1.140625 -0.125 -1.421875q-0.125 -0.296875 -0.515625 -0.296875q-0.390625 0 -0.53125 0.296875q-0.125 0.28125 -0.125 1.421875l0 6.625q0 1.03125 0.125 1.359375q0.140625 0.3125 0.515625 0.3125q0.40625 0 0.53125 -0.28125q0.125 -0.296875 0.125 -1.25l0 -6.765625zm10.488831 -4.0625l-0.078125 1.359375q0.484375 -0.8125 1.1875 -1.21875q0.703125 -0.40625 1.625 -0.40625q1.140625 0 1.875 0.546875q0.734375 0.546875 0.9375 1.375q0.21875 0.8125 0.21875 2.75l0 10.28125l-4.46875 0l0 -10.171875q0 -1.515625 -0.109375 -1.84375q-0.09375 -0.328125 -0.546875 -0.328125q-0.46875 0 -0.59375 0.390625q-0.125 0.375 -0.125 2.03125l0 9.921875l-4.46875 0l0 -14.6875l4.546875 0zm15.904175 -3.21875l0 17.90625l-4.609375 0l0 -17.90625l4.609375 0zm5.5967407 8.90625l-4.203125 0l0 -0.984375q0 -1.703125 0.390625 -2.625q0.40625 -0.921875 1.578125 -1.625q1.1875 -0.71875 3.078125 -0.71875q2.265625 0 3.40625 0.8125q1.15625 0.796875 1.390625 1.96875q0.234375 1.171875 0.234375 4.796875l0 7.375l-4.34375 0l0 -1.3125q-0.40625 0.796875 -1.0625 1.1875q-0.640625 0.390625 -1.53125 0.390625q-1.171875 0 -2.15625 -0.65625q-0.984375 -0.65625 -0.984375 -2.890625l0 -1.203125q0 -1.640625 0.515625 -2.234375q0.53125 -0.609375 2.578125 -1.40625q2.203125 -0.859375 2.359375 -1.15625q0.15625 -0.296875 0.15625 -1.21875q0 -1.15625 -0.171875 -1.5q-0.171875 -0.34375 -0.5625 -0.34375q-0.453125 0 -0.5625 0.296875q-0.109375 0.28125 -0.109375 1.515625l0 1.53125zm1.40625 2.015625q-1.0625 0.796875 -1.234375 1.328125q-0.171875 0.515625 -0.171875 1.515625q0 1.140625 0.140625 1.484375q0.15625 0.328125 0.59375 0.328125q0.421875 0 0.546875 -0.265625q0.125 -0.265625 0.125 -1.359375l0 -3.03125zm15.369751 -7.703125l-1.28125 10.625q-0.296875 2.53125 -0.5 3.453125q-0.203125 0.90625 -0.6875 1.5q-0.46875 0.609375 -1.328125 0.890625q-0.84375 0.28125 -2.703125 0.28125l-2.703125 0l0 -2.34375q1.03125 0 1.328125 -0.109375q0.3125 -0.109375 0.3125 -0.46875q0 -0.1875 -0.28125 -1.546875l-2.4375 -12.28125l4.046875 0l1.46875 9.90625l0.703125 -9.90625l4.0625 0zm10.921143 7.609375l-5.78125 0l0 3.171875q0 1.0 0.140625 1.296875q0.140625 0.28125 0.546875 0.28125q0.515625 0 0.6875 -0.375q0.171875 -0.390625 0.171875 -1.484375l0 -1.9375l4.234375 0l0 1.078125q0 1.359375 -0.171875 2.09375q-0.171875 0.734375 -0.8125 1.5625q-0.625 0.828125 -1.59375 1.25q-0.96875 0.40625 -2.421875 0.40625q-1.421875 0 -2.515625 -0.40625q-1.078125 -0.40625 -1.6875 -1.125q-0.59375 -0.71875 -0.828125 -1.5625q-0.234375 -0.859375 -0.234375 -2.5l0 -4.28125q0 -1.921875 0.515625 -3.03125q0.53125 -1.125 1.71875 -1.71875q1.1875 -0.59375 2.71875 -0.59375q1.875 0 3.09375 0.71875q1.234375 0.71875 1.71875 1.90625q0.5 1.171875 0.5 3.296875l0 1.953125zm-4.484375 -2.390625l0 -1.078125q0 -1.140625 -0.125 -1.46875q-0.125 -0.328125 -0.5 -0.328125q-0.453125 0 -0.5625 0.28125q-0.109375 0.28125 -0.109375 1.515625l0 1.078125l1.296875 0zm10.410645 -5.21875l-0.171875 1.9375q0.96875 -2.078125 2.8125 -2.203125l0 5.171875q-1.21875 0 -1.796875 0.34375q-0.578125 0.328125 -0.71875 0.921875q-0.125 0.578125 -0.125 2.71875l0 5.796875l-4.46875 0l0 -14.6875l4.46875 0z" fill-rule="nonzero"/><path fill="#000000" fill-opacity="0.0" d="m714.1385 184.80612l167.32788 0l0 56.73636l-167.32788 0z" fill-rule="evenodd"/><path fill="#595959" d="m756.7693 197.65987l4.703125 0q1.890625 0 2.90625 0.296875q1.03125 0.296875 1.546875 0.859375q0.515625 0.5625 0.703125 1.375q0.1875 0.796875 0.1875 2.46875l0 1.5625q0 1.71875 -0.359375 2.515625q-0.359375 0.78125 -1.3125 1.203125q-0.9375 0.40625 -2.453125 0.40625l-1.25 0l0 7.21875l-4.671875 0l0 -17.90625zm4.671875 3.0625l0 4.5625q0.1875 0 0.328125 0q0.65625 0 0.890625 -0.3125q0.25 -0.3125 0.25 -1.3125l0 -1.46875q0 -0.921875 -0.28125 -1.1875q-0.28125 -0.28125 -1.1875 -0.28125zm11.1848755 -3.0625l0 2.328125l-4.609375 0l0 -2.328125l4.609375 0zm0 3.21875l0 14.6875l-4.609375 0l0 -14.6875l4.609375 0zm6.1436157 0l-0.078125 1.296875q0.59375 -0.78125 1.3125 -1.171875q0.71875 -0.390625 1.578125 -0.390625q1.03125 0 1.78125 0.5625q0.765625 0.5625 0.953125 1.296875q0.1875 0.71875 0.1875 2.46875l0 6.1875q0 2.0 -0.234375 2.859375q-0.234375 0.84375 -0.96875 1.34375q-0.734375 0.5 -1.78125 0.5q-0.828125 0 -1.53125 -0.390625q-0.703125 -0.390625 -1.296875 -1.140625l0 3.359375l-4.46875 0l0 -16.78125l4.546875 0zm1.265625 4.28125q0 -1.359375 -0.09375 -1.640625q-0.09375 -0.296875 -0.546875 -0.296875q-0.453125 0 -0.578125 0.328125q-0.125 0.328125 -0.125 1.609375l0 6.078125q0 1.328125 0.125 1.671875q0.140625 0.328125 0.578125 0.328125q0.4375 0 0.53125 -0.296875q0.109375 -0.3125 0.109375 -1.484375l0 -6.296875zm16.072083 3.328125l-5.78125 0l0 3.171875q0 1.0 0.140625 1.296875q0.140625 0.28125 0.546875 0.28125q0.515625 0 0.6875 -0.375q0.171875 -0.390625 0.171875 -1.484375l0 -1.9375l4.234375 0l0 1.078125q0 1.359375 -0.171875 2.09375q-0.171875 0.734375 -0.8125 1.5625q-0.625 0.828125 -1.59375 1.25q-0.96875 0.40625 -2.421875 0.40625q-1.421875 0 -2.515625 -0.40625q-1.078125 -0.40625 -1.6875 -1.125q-0.59375 -0.71875 -0.828125 -1.5625q-0.234375 -0.859375 -0.234375 -2.5l0 -4.28125q0 -1.921875 0.515625 -3.03125q0.53125 -1.125 1.71875 -1.71875q1.1875 -0.59375 2.71875 -0.59375q1.875 0 3.09375 0.71875q1.234375 0.71875 1.71875 1.90625q0.5 1.171875 0.5 3.296875l0 1.953125zm-4.484375 -2.390625l0 -1.078125q0 -1.140625 -0.125 -1.46875q-0.125 -0.328125 -0.5 -0.328125q-0.453125 0 -0.5625 0.28125q-0.109375 0.28125 -0.109375 1.515625l0 1.078125l1.296875 0zm24.373047 -5.21875l-1.78125 14.6875l-4.859375 0q-0.390625 -2.6875 -0.921875 -7.078125q-0.171875 1.921875 -0.5 3.890625l-0.484375 3.1875l-4.859375 0l-1.890625 -14.6875l3.84375 0q0.046875 0.578125 0.96875 8.40625q0.078125 -0.796875 1.0 -8.40625l3.703125 0l0.90625 8.40625q0.21875 -3.671875 1.03125 -8.40625l3.84375 0zm4.72937 5.6875l-4.203125 0l0 -0.984375q0 -1.703125 0.390625 -2.625q0.40625 -0.921875 1.578125 -1.625q1.1875 -0.71875 3.078125 -0.71875q2.265625 0 3.40625 0.8125q1.15625 0.796875 1.390625 1.96875q0.234375 1.171875 0.234375 4.796875l0 7.375l-4.34375 0l0 -1.3125q-0.40625 0.796875 -1.0625 1.1875q-0.640625 0.390625 -1.53125 0.390625q-1.171875 0 -2.15625 -0.65625q-0.984375 -0.65625 -0.984375 -2.890625l0 -1.203125q0 -1.640625 0.515625 -2.234375q0.53125 -0.609375 2.578125 -1.40625q2.203125 -0.859375 2.359375 -1.15625q0.15625 -0.296875 0.15625 -1.21875q0 -1.15625 -0.171875 -1.5q-0.171875 -0.34375 -0.5625 -0.34375q-0.453125 0 -0.5625 0.296875q-0.109375 0.28125 -0.109375 1.515625l0 1.53125zm1.40625 2.015625q-1.0625 0.796875 -1.234375 1.328125q-0.171875 0.515625 -0.171875 1.515625q0 1.140625 0.140625 1.484375q0.15625 0.328125 0.59375 0.328125q0.421875 0 0.546875 -0.265625q0.125 -0.265625 0.125 -1.359375l0 -3.03125zm10.619751 -10.921875l0 17.90625l-4.609375 0l0 -17.90625l4.609375 0zm6.2061157 0l0 17.90625l-4.609375 0l0 -17.90625l4.609375 0z" fill-rule="nonzero"/></g></svg>