<?xml version="1.0" encoding="utf-8" standalone="no"?>
<!DOCTYPE svg PUBLIC "-//W3C//DTD SVG 1.1//EN"
  "http://www.w3.org/Graphics/SVG/1.1/DTD/svg11.dtd">
<svg xmlns:xlink="http://www.w3.org/1999/xlink" width="460.8pt" height="345.6pt" viewBox="0 0 460.8 345.6" xmlns="http://www.w3.org/2000/svg" version="1.1">
 <metadata>
  <rdf:RDF xmlns:dc="http://purl.org/dc/elements/1.1/" xmlns:cc="http://creativecommons.org/ns#" xmlns:rdf="http://www.w3.org/1999/02/22-rdf-syntax-ns#">
   <cc:Work>
    <dc:type rdf:resource="http://purl.org/dc/dcmitype/StillImage"/>
    <dc:date>2025-09-16T14:56:30.409021</dc:date>
    <dc:format>image/svg+xml</dc:format>
    <dc:creator>
     <cc:Agent>
      <dc:title>Matplotlib v3.10.3, https://matplotlib.org/</dc:title>
     </cc:Agent>
    </dc:creator>
   </cc:Work>
  </rdf:RDF>
 </metadata>
 <defs>
  <style type="text/css">*{stroke-linejoin: round; stroke-linecap: butt}</style>
 </defs>
 <g id="figure_1">
  <g id="patch_1">
   <path d="M 0 345.6 
L 460.8 345.6 
L 460.8 0 
L 0 0 
L 0 345.6 
z
" style="fill: none"/>
  </g>
  <g id="axes_1">
   <g id="patch_2">
    <path d="M 57.6 307.584 
L 414.72 307.584 
L 414.72 41.472 
L 57.6 41.472 
L 57.6 307.584 
z
" style="fill: none"/>
   </g>
   <g id="PathCollection_1">
    <defs>
     <path id="md61cd3671c" d="M 0 3 
C 0.795609 3 1.55874 2.683901 2.12132 2.12132 
C 2.683901 1.55874 3 0.795609 3 0 
C 3 -0.795609 2.683901 -1.55874 2.12132 -2.12132 
C 1.55874 -2.683901 0.795609 -3 0 -3 
C -0.795609 -3 -1.55874 -2.683901 -2.12132 -2.12132 
C -2.683901 -1.55874 -3 -0.795609 -3 0 
C -3 0.795609 -2.683901 1.55874 -2.12132 2.12132 
C -1.55874 2.683901 -0.795609 3 0 3 
z
" style="stroke: #0000ff; stroke-opacity: 0.5"/>
    </defs>
    <g clip-path="url(#p7f7974aeac)">
     <use xlink:href="#md61cd3671c" x="74.617549" y="295.134873" style="fill: #0000ff; fill-opacity: 0.5; stroke: #0000ff; stroke-opacity: 0.5"/>
     <use xlink:href="#md61cd3671c" x="82.204162" y="295.134873" style="fill: #0000ff; fill-opacity: 0.5; stroke: #0000ff; stroke-opacity: 0.5"/>
     <use xlink:href="#md61cd3671c" x="89.529159" y="295.134873" style="fill: #0000ff; fill-opacity: 0.5; stroke: #0000ff; stroke-opacity: 0.5"/>
     <use xlink:href="#md61cd3671c" x="96.854169" y="295.134873" style="fill: #0000ff; fill-opacity: 0.5; stroke: #0000ff; stroke-opacity: 0.5"/>
     <use xlink:href="#md61cd3671c" x="104.179166" y="294.781742" style="fill: #0000ff; fill-opacity: 0.5; stroke: #0000ff; stroke-opacity: 0.5"/>
     <use xlink:href="#md61cd3671c" x="112.027383" y="294.781742" style="fill: #0000ff; fill-opacity: 0.5; stroke: #0000ff; stroke-opacity: 0.5"/>
     <use xlink:href="#md61cd3671c" x="118.829174" y="294.781742" style="fill: #0000ff; fill-opacity: 0.5; stroke: #0000ff; stroke-opacity: 0.5"/>
     <use xlink:href="#md61cd3671c" x="127.200596" y="294.781742" style="fill: #0000ff; fill-opacity: 0.5; stroke: #0000ff; stroke-opacity: 0.5"/>
     <use xlink:href="#md61cd3671c" x="133.740784" y="294.781742" style="fill: #0000ff; fill-opacity: 0.5; stroke: #0000ff; stroke-opacity: 0.5"/>
     <use xlink:href="#md61cd3671c" x="141.850603" y="294.781742" style="fill: #0000ff; fill-opacity: 0.5; stroke: #0000ff; stroke-opacity: 0.5"/>
     <use xlink:href="#md61cd3671c" x="149.175601" y="294.781742" style="fill: #0000ff; fill-opacity: 0.5; stroke: #0000ff; stroke-opacity: 0.5"/>
     <use xlink:href="#md61cd3671c" x="157.023817" y="294.25205" style="fill: #0000ff; fill-opacity: 0.5; stroke: #0000ff; stroke-opacity: 0.5"/>
     <use xlink:href="#md61cd3671c" x="164.087211" y="294.220677" style="fill: #0000ff; fill-opacity: 0.5; stroke: #0000ff; stroke-opacity: 0.5"/>
     <use xlink:href="#md61cd3671c" x="171.412221" y="294.220677" style="fill: #0000ff; fill-opacity: 0.5; stroke: #0000ff; stroke-opacity: 0.5"/>
     <use xlink:href="#md61cd3671c" x="178.214" y="293.898927" style="fill: #0000ff; fill-opacity: 0.5; stroke: #0000ff; stroke-opacity: 0.5"/>
     <use xlink:href="#md61cd3671c" x="186.847038" y="293.898927" style="fill: #0000ff; fill-opacity: 0.5; stroke: #0000ff; stroke-opacity: 0.5"/>
     <use xlink:href="#md61cd3671c" x="193.648841" y="293.898927" style="fill: #0000ff; fill-opacity: 0.5; stroke: #0000ff; stroke-opacity: 0.5"/>
     <use xlink:href="#md61cd3671c" x="201.758648" y="293.722357" style="fill: #0000ff; fill-opacity: 0.5; stroke: #0000ff; stroke-opacity: 0.5"/>
     <use xlink:href="#md61cd3671c" x="208.298836" y="293.192665" style="fill: #0000ff; fill-opacity: 0.5; stroke: #0000ff; stroke-opacity: 0.5"/>
     <use xlink:href="#md61cd3671c" x="215.885437" y="292.839542" style="fill: #0000ff; fill-opacity: 0.5; stroke: #0000ff; stroke-opacity: 0.5"/>
     <use xlink:href="#md61cd3671c" x="223.210447" y="292.662972" style="fill: #0000ff; fill-opacity: 0.5; stroke: #0000ff; stroke-opacity: 0.5"/>
     <use xlink:href="#md61cd3671c" x="231.058663" y="292.309849" style="fill: #0000ff; fill-opacity: 0.5; stroke: #0000ff; stroke-opacity: 0.5"/>
     <use xlink:href="#md61cd3671c" x="238.383672" y="291.956718" style="fill: #0000ff; fill-opacity: 0.5; stroke: #0000ff; stroke-opacity: 0.5"/>
     <use xlink:href="#md61cd3671c" x="246.493479" y="291.780157" style="fill: #0000ff; fill-opacity: 0.5; stroke: #0000ff; stroke-opacity: 0.5"/>
     <use xlink:href="#md61cd3671c" x="252.510461" y="291.427026" style="fill: #0000ff; fill-opacity: 0.5; stroke: #0000ff; stroke-opacity: 0.5"/>
     <use xlink:href="#md61cd3671c" x="260.620268" y="291.427026" style="fill: #0000ff; fill-opacity: 0.5; stroke: #0000ff; stroke-opacity: 0.5"/>
     <use xlink:href="#md61cd3671c" x="267.422071" y="291.250464" style="fill: #0000ff; fill-opacity: 0.5; stroke: #0000ff; stroke-opacity: 0.5"/>
     <use xlink:href="#md61cd3671c" x="276.055109" y="290.367641" style="fill: #0000ff; fill-opacity: 0.5; stroke: #0000ff; stroke-opacity: 0.5"/>
     <use xlink:href="#md61cd3671c" x="282.333682" y="290.367641" style="fill: #0000ff; fill-opacity: 0.5; stroke: #0000ff; stroke-opacity: 0.5"/>
     <use xlink:href="#md61cd3671c" x="290.705104" y="290.01451" style="fill: #0000ff; fill-opacity: 0.5; stroke: #0000ff; stroke-opacity: 0.5"/>
     <use xlink:href="#md61cd3671c" x="297.768499" y="289.661387" style="fill: #0000ff; fill-opacity: 0.5; stroke: #0000ff; stroke-opacity: 0.5"/>
     <use xlink:href="#md61cd3671c" x="305.616715" y="289.308256" style="fill: #0000ff; fill-opacity: 0.5; stroke: #0000ff; stroke-opacity: 0.5"/>
     <use xlink:href="#md61cd3671c" x="312.418494" y="289.131694" style="fill: #0000ff; fill-opacity: 0.5; stroke: #0000ff; stroke-opacity: 0.5"/>
     <use xlink:href="#md61cd3671c" x="320.78994" y="289.131694" style="fill: #0000ff; fill-opacity: 0.5; stroke: #0000ff; stroke-opacity: 0.5"/>
     <use xlink:href="#md61cd3671c" x="327.330104" y="288.602002" style="fill: #0000ff; fill-opacity: 0.5; stroke: #0000ff; stroke-opacity: 0.5"/>
     <use xlink:href="#md61cd3671c" x="334.655114" y="288.602002" style="fill: #0000ff; fill-opacity: 0.5; stroke: #0000ff; stroke-opacity: 0.5"/>
     <use xlink:href="#md61cd3671c" x="342.50333" y="288.072309" style="fill: #0000ff; fill-opacity: 0.5; stroke: #0000ff; stroke-opacity: 0.5"/>
     <use xlink:href="#md61cd3671c" x="350.089931" y="287.542617" style="fill: #0000ff; fill-opacity: 0.5; stroke: #0000ff; stroke-opacity: 0.5"/>
     <use xlink:href="#md61cd3671c" x="357.153325" y="287.542617" style="fill: #0000ff; fill-opacity: 0.5; stroke: #0000ff; stroke-opacity: 0.5"/>
     <use xlink:href="#md61cd3671c" x="365.263156" y="287.366047" style="fill: #0000ff; fill-opacity: 0.5; stroke: #0000ff; stroke-opacity: 0.5"/>
     <use xlink:href="#md61cd3671c" x="371.803344" y="287.189486" style="fill: #0000ff; fill-opacity: 0.5; stroke: #0000ff; stroke-opacity: 0.5"/>
     <use xlink:href="#md61cd3671c" x="379.128336" y="286.659794" style="fill: #0000ff; fill-opacity: 0.5; stroke: #0000ff; stroke-opacity: 0.5"/>
     <use xlink:href="#md61cd3671c" x="387.238167" y="286.483232" style="fill: #0000ff; fill-opacity: 0.5; stroke: #0000ff; stroke-opacity: 0.5"/>
     <use xlink:href="#md61cd3671c" x="394.301562" y="286.130101" style="fill: #0000ff; fill-opacity: 0.5; stroke: #0000ff; stroke-opacity: 0.5"/>
     <use xlink:href="#md61cd3671c" x="73.832727" y="295.488" style="fill: #0000ff; fill-opacity: 0.5; stroke: #0000ff; stroke-opacity: 0.5"/>
     <use xlink:href="#md61cd3671c" x="82.204162" y="295.488" style="fill: #0000ff; fill-opacity: 0.5; stroke: #0000ff; stroke-opacity: 0.5"/>
     <use xlink:href="#md61cd3671c" x="89.267556" y="294.958308" style="fill: #0000ff; fill-opacity: 0.5; stroke: #0000ff; stroke-opacity: 0.5"/>
     <use xlink:href="#md61cd3671c" x="97.115772" y="294.605185" style="fill: #0000ff; fill-opacity: 0.5; stroke: #0000ff; stroke-opacity: 0.5"/>
     <use xlink:href="#md61cd3671c" x="104.179166" y="294.252062" style="fill: #0000ff; fill-opacity: 0.5; stroke: #0000ff; stroke-opacity: 0.5"/>
     <use xlink:href="#md61cd3671c" x="112.027383" y="293.898923" style="fill: #0000ff; fill-opacity: 0.5; stroke: #0000ff; stroke-opacity: 0.5"/>
     <use xlink:href="#md61cd3671c" x="119.090777" y="293.5458" style="fill: #0000ff; fill-opacity: 0.5; stroke: #0000ff; stroke-opacity: 0.5"/>
     <use xlink:href="#md61cd3671c" x="126.154171" y="293.192677" style="fill: #0000ff; fill-opacity: 0.5; stroke: #0000ff; stroke-opacity: 0.5"/>
     <use xlink:href="#md61cd3671c" x="133.740784" y="292.486415" style="fill: #0000ff; fill-opacity: 0.5; stroke: #0000ff; stroke-opacity: 0.5"/>
     <use xlink:href="#md61cd3671c" x="141.850603" y="291.780153" style="fill: #0000ff; fill-opacity: 0.5; stroke: #0000ff; stroke-opacity: 0.5"/>
     <use xlink:href="#md61cd3671c" x="148.390779" y="290.897337" style="fill: #0000ff; fill-opacity: 0.5; stroke: #0000ff; stroke-opacity: 0.5"/>
     <use xlink:href="#md61cd3671c" x="156.238995" y="289.837952" style="fill: #0000ff; fill-opacity: 0.5; stroke: #0000ff; stroke-opacity: 0.5"/>
     <use xlink:href="#md61cd3671c" x="163.040787" y="289.661383" style="fill: #0000ff; fill-opacity: 0.5; stroke: #0000ff; stroke-opacity: 0.5"/>
     <use xlink:href="#md61cd3671c" x="170.627399" y="288.425436" style="fill: #0000ff; fill-opacity: 0.5; stroke: #0000ff; stroke-opacity: 0.5"/>
     <use xlink:href="#md61cd3671c" x="177.429179" y="287.719182" style="fill: #0000ff; fill-opacity: 0.5; stroke: #0000ff; stroke-opacity: 0.5"/>
     <use xlink:href="#md61cd3671c" x="185.800625" y="286.836359" style="fill: #0000ff; fill-opacity: 0.5; stroke: #0000ff; stroke-opacity: 0.5"/>
     <use xlink:href="#md61cd3671c" x="192.864019" y="286.306667" style="fill: #0000ff; fill-opacity: 0.5; stroke: #0000ff; stroke-opacity: 0.5"/>
     <use xlink:href="#md61cd3671c" x="200.189005" y="285.423843" style="fill: #0000ff; fill-opacity: 0.5; stroke: #0000ff; stroke-opacity: 0.5"/>
     <use xlink:href="#md61cd3671c" x="206.729193" y="284.011335" style="fill: #0000ff; fill-opacity: 0.5; stroke: #0000ff; stroke-opacity: 0.5"/>
     <use xlink:href="#md61cd3671c" x="214.054203" y="282.245688" style="fill: #0000ff; fill-opacity: 0.5; stroke: #0000ff; stroke-opacity: 0.5"/>
     <use xlink:href="#md61cd3671c" x="221.379188" y="280.83318" style="fill: #0000ff; fill-opacity: 0.5; stroke: #0000ff; stroke-opacity: 0.5"/>
     <use xlink:href="#md61cd3671c" x="228.442583" y="279.244103" style="fill: #0000ff; fill-opacity: 0.5; stroke: #0000ff; stroke-opacity: 0.5"/>
     <use xlink:href="#md61cd3671c" x="235.767592" y="277.831587" style="fill: #0000ff; fill-opacity: 0.5; stroke: #0000ff; stroke-opacity: 0.5"/>
     <use xlink:href="#md61cd3671c" x="243.092602" y="276.065948" style="fill: #0000ff; fill-opacity: 0.5; stroke: #0000ff; stroke-opacity: 0.5"/>
     <use xlink:href="#md61cd3671c" x="249.632766" y="274.476871" style="fill: #0000ff; fill-opacity: 0.5; stroke: #0000ff; stroke-opacity: 0.5"/>
     <use xlink:href="#md61cd3671c" x="256.69616" y="273.064355" style="fill: #0000ff; fill-opacity: 0.5; stroke: #0000ff; stroke-opacity: 0.5"/>
     <use xlink:href="#md61cd3671c" x="264.282785" y="271.475277" style="fill: #0000ff; fill-opacity: 0.5; stroke: #0000ff; stroke-opacity: 0.5"/>
     <use xlink:href="#md61cd3671c" x="271.346179" y="269.709638" style="fill: #0000ff; fill-opacity: 0.5; stroke: #0000ff; stroke-opacity: 0.5"/>
     <use xlink:href="#md61cd3671c" x="278.147959" y="268.297123" style="fill: #0000ff; fill-opacity: 0.5; stroke: #0000ff; stroke-opacity: 0.5"/>
     <use xlink:href="#md61cd3671c" x="284.949738" y="267.061176" style="fill: #0000ff; fill-opacity: 0.5; stroke: #0000ff; stroke-opacity: 0.5"/>
     <use xlink:href="#md61cd3671c" x="292.536363" y="265.295529" style="fill: #0000ff; fill-opacity: 0.5; stroke: #0000ff; stroke-opacity: 0.5"/>
     <use xlink:href="#md61cd3671c" x="299.599757" y="264.059583" style="fill: #0000ff; fill-opacity: 0.5; stroke: #0000ff; stroke-opacity: 0.5"/>
     <use xlink:href="#md61cd3671c" x="306.924743" y="262.293944" style="fill: #0000ff; fill-opacity: 0.5; stroke: #0000ff; stroke-opacity: 0.5"/>
     <use xlink:href="#md61cd3671c" x="313.988137" y="260.704866" style="fill: #0000ff; fill-opacity: 0.5; stroke: #0000ff; stroke-opacity: 0.5"/>
     <use xlink:href="#md61cd3671c" x="321.051532" y="259.292351" style="fill: #0000ff; fill-opacity: 0.5; stroke: #0000ff; stroke-opacity: 0.5"/>
     <use xlink:href="#md61cd3671c" x="327.853335" y="257.526712" style="fill: #0000ff; fill-opacity: 0.5; stroke: #0000ff; stroke-opacity: 0.5"/>
     <use xlink:href="#md61cd3671c" x="334.393499" y="256.290757" style="fill: #0000ff; fill-opacity: 0.5; stroke: #0000ff; stroke-opacity: 0.5"/>
     <use xlink:href="#md61cd3671c" x="342.50333" y="254.348557" style="fill: #0000ff; fill-opacity: 0.5; stroke: #0000ff; stroke-opacity: 0.5"/>
     <use xlink:href="#md61cd3671c" x="349.043518" y="252.936041" style="fill: #0000ff; fill-opacity: 0.5; stroke: #0000ff; stroke-opacity: 0.5"/>
     <use xlink:href="#md61cd3671c" x="356.368504" y="251.346963" style="fill: #0000ff; fill-opacity: 0.5; stroke: #0000ff; stroke-opacity: 0.5"/>
     <use xlink:href="#md61cd3671c" x="363.431898" y="249.757886" style="fill: #0000ff; fill-opacity: 0.5; stroke: #0000ff; stroke-opacity: 0.5"/>
     <use xlink:href="#md61cd3671c" x="369.972086" y="248.34537" style="fill: #0000ff; fill-opacity: 0.5; stroke: #0000ff; stroke-opacity: 0.5"/>
     <use xlink:href="#md61cd3671c" x="377.29709" y="247.10942" style="fill: #0000ff; fill-opacity: 0.5; stroke: #0000ff; stroke-opacity: 0.5"/>
     <use xlink:href="#md61cd3671c" x="384.88369" y="245.343781" style="fill: #0000ff; fill-opacity: 0.5; stroke: #0000ff; stroke-opacity: 0.5"/>
     <use xlink:href="#md61cd3671c" x="391.423878" y="243.931265" style="fill: #0000ff; fill-opacity: 0.5; stroke: #0000ff; stroke-opacity: 0.5"/>
     <use xlink:href="#md61cd3671c" x="398.487273" y="242.342187" style="fill: #0000ff; fill-opacity: 0.5; stroke: #0000ff; stroke-opacity: 0.5"/>
     <use xlink:href="#md61cd3671c" x="74.094336" y="295.488" style="fill: #0000ff; fill-opacity: 0.5; stroke: #0000ff; stroke-opacity: 0.5"/>
     <use xlink:href="#md61cd3671c" x="81.942558" y="294.958308" style="fill: #0000ff; fill-opacity: 0.5; stroke: #0000ff; stroke-opacity: 0.5"/>
     <use xlink:href="#md61cd3671c" x="89.267556" y="294.428615" style="fill: #0000ff; fill-opacity: 0.5; stroke: #0000ff; stroke-opacity: 0.5"/>
     <use xlink:href="#md61cd3671c" x="96.854169" y="293.36923" style="fill: #0000ff; fill-opacity: 0.5; stroke: #0000ff; stroke-opacity: 0.5"/>
     <use xlink:href="#md61cd3671c" x="103.917563" y="292.133292" style="fill: #0000ff; fill-opacity: 0.5; stroke: #0000ff; stroke-opacity: 0.5"/>
     <use xlink:href="#md61cd3671c" x="111.504164" y="290.897337" style="fill: #0000ff; fill-opacity: 0.5; stroke: #0000ff; stroke-opacity: 0.5"/>
     <use xlink:href="#md61cd3671c" x="118.044352" y="289.837952" style="fill: #0000ff; fill-opacity: 0.5; stroke: #0000ff; stroke-opacity: 0.5"/>
     <use xlink:href="#md61cd3671c" x="126.154171" y="288.601998" style="fill: #0000ff; fill-opacity: 0.5; stroke: #0000ff; stroke-opacity: 0.5"/>
     <use xlink:href="#md61cd3671c" x="132.955963" y="287.36606" style="fill: #0000ff; fill-opacity: 0.5; stroke: #0000ff; stroke-opacity: 0.5"/>
     <use xlink:href="#md61cd3671c" x="139.496139" y="285.24729" style="fill: #0000ff; fill-opacity: 0.5; stroke: #0000ff; stroke-opacity: 0.5"/>
     <use xlink:href="#md61cd3671c" x="146.29793" y="282.775381" style="fill: #0000ff; fill-opacity: 0.5; stroke: #0000ff; stroke-opacity: 0.5"/>
     <use xlink:href="#md61cd3671c" x="153.361324" y="280.83318" style="fill: #0000ff; fill-opacity: 0.5; stroke: #0000ff; stroke-opacity: 0.5"/>
     <use xlink:href="#md61cd3671c" x="160.163103" y="278.89098" style="fill: #0000ff; fill-opacity: 0.5; stroke: #0000ff; stroke-opacity: 0.5"/>
     <use xlink:href="#md61cd3671c" x="166.441676" y="276.77221" style="fill: #0000ff; fill-opacity: 0.5; stroke: #0000ff; stroke-opacity: 0.5"/>
     <use xlink:href="#md61cd3671c" x="172.981864" y="274.65344" style="fill: #0000ff; fill-opacity: 0.5; stroke: #0000ff; stroke-opacity: 0.5"/>
     <use xlink:href="#md61cd3671c" x="180.045259" y="272.53467" style="fill: #0000ff; fill-opacity: 0.5; stroke: #0000ff; stroke-opacity: 0.5"/>
     <use xlink:href="#md61cd3671c" x="187.108653" y="270.239331" style="fill: #0000ff; fill-opacity: 0.5; stroke: #0000ff; stroke-opacity: 0.5"/>
     <use xlink:href="#md61cd3671c" x="193.910432" y="268.297123" style="fill: #0000ff; fill-opacity: 0.5; stroke: #0000ff; stroke-opacity: 0.5"/>
     <use xlink:href="#md61cd3671c" x="200.189005" y="265.64866" style="fill: #0000ff; fill-opacity: 0.5; stroke: #0000ff; stroke-opacity: 0.5"/>
     <use xlink:href="#md61cd3671c" x="205.682756" y="262.117374" style="fill: #0000ff; fill-opacity: 0.5; stroke: #0000ff; stroke-opacity: 0.5"/>
     <use xlink:href="#md61cd3671c" x="210.653301" y="258.409527" style="fill: #0000ff; fill-opacity: 0.5; stroke: #0000ff; stroke-opacity: 0.5"/>
     <use xlink:href="#md61cd3671c" x="215.885437" y="255.054811" style="fill: #0000ff; fill-opacity: 0.5; stroke: #0000ff; stroke-opacity: 0.5"/>
     <use xlink:href="#md61cd3671c" x="221.379188" y="251.523525" style="fill: #0000ff; fill-opacity: 0.5; stroke: #0000ff; stroke-opacity: 0.5"/>
     <use xlink:href="#md61cd3671c" x="226.611348" y="247.639116" style="fill: #0000ff; fill-opacity: 0.5; stroke: #0000ff; stroke-opacity: 0.5"/>
     <use xlink:href="#md61cd3671c" x="232.105099" y="243.931269" style="fill: #0000ff; fill-opacity: 0.5; stroke: #0000ff; stroke-opacity: 0.5"/>
     <use xlink:href="#md61cd3671c" x="237.07562" y="240.576553" style="fill: #0000ff; fill-opacity: 0.5; stroke: #0000ff; stroke-opacity: 0.5"/>
     <use xlink:href="#md61cd3671c" x="242.30778" y="236.868705" style="fill: #0000ff; fill-opacity: 0.5; stroke: #0000ff; stroke-opacity: 0.5"/>
     <use xlink:href="#md61cd3671c" x="247.801531" y="233.337419" style="fill: #0000ff; fill-opacity: 0.5; stroke: #0000ff; stroke-opacity: 0.5"/>
     <use xlink:href="#md61cd3671c" x="253.033667" y="229.629572" style="fill: #0000ff; fill-opacity: 0.5; stroke: #0000ff; stroke-opacity: 0.5"/>
     <use xlink:href="#md61cd3671c" x="258.265803" y="225.921725" style="fill: #0000ff; fill-opacity: 0.5; stroke: #0000ff; stroke-opacity: 0.5"/>
     <use xlink:href="#md61cd3671c" x="263.497963" y="222.390439" style="fill: #0000ff; fill-opacity: 0.5; stroke: #0000ff; stroke-opacity: 0.5"/>
     <use xlink:href="#md61cd3671c" x="269.253306" y="218.682592" style="fill: #0000ff; fill-opacity: 0.5; stroke: #0000ff; stroke-opacity: 0.5"/>
     <use xlink:href="#md61cd3671c" x="273.962235" y="215.504437" style="fill: #0000ff; fill-opacity: 0.5; stroke: #0000ff; stroke-opacity: 0.5"/>
     <use xlink:href="#md61cd3671c" x="279.455987" y="211.620028" style="fill: #0000ff; fill-opacity: 0.5; stroke: #0000ff; stroke-opacity: 0.5"/>
     <use xlink:href="#md61cd3671c" x="284.426531" y="208.265312" style="fill: #0000ff; fill-opacity: 0.5; stroke: #0000ff; stroke-opacity: 0.5"/>
     <use xlink:href="#md61cd3671c" x="289.920283" y="204.380895" style="fill: #0000ff; fill-opacity: 0.5; stroke: #0000ff; stroke-opacity: 0.5"/>
     <use xlink:href="#md61cd3671c" x="295.152419" y="201.20274" style="fill: #0000ff; fill-opacity: 0.5; stroke: #0000ff; stroke-opacity: 0.5"/>
     <use xlink:href="#md61cd3671c" x="300.64617" y="197.318331" style="fill: #0000ff; fill-opacity: 0.5; stroke: #0000ff; stroke-opacity: 0.5"/>
     <use xlink:href="#md61cd3671c" x="306.139921" y="193.610484" style="fill: #0000ff; fill-opacity: 0.5; stroke: #0000ff; stroke-opacity: 0.5"/>
     <use xlink:href="#md61cd3671c" x="311.110466" y="190.255764" style="fill: #0000ff; fill-opacity: 0.5; stroke: #0000ff; stroke-opacity: 0.5"/>
     <use xlink:href="#md61cd3671c" x="316.865832" y="186.547917" style="fill: #0000ff; fill-opacity: 0.5; stroke: #0000ff; stroke-opacity: 0.5"/>
     <use xlink:href="#md61cd3671c" x="322.097968" y="183.016635" style="fill: #0000ff; fill-opacity: 0.5; stroke: #0000ff; stroke-opacity: 0.5"/>
     <use xlink:href="#md61cd3671c" x="327.330104" y="179.308787" style="fill: #0000ff; fill-opacity: 0.5; stroke: #0000ff; stroke-opacity: 0.5"/>
     <use xlink:href="#md61cd3671c" x="332.562264" y="175.60094" style="fill: #0000ff; fill-opacity: 0.5; stroke: #0000ff; stroke-opacity: 0.5"/>
     <use xlink:href="#md61cd3671c" x="337.532785" y="172.069654" style="fill: #0000ff; fill-opacity: 0.5; stroke: #0000ff; stroke-opacity: 0.5"/>
     <use xlink:href="#md61cd3671c" x="342.764945" y="168.714936" style="fill: #0000ff; fill-opacity: 0.5; stroke: #0000ff; stroke-opacity: 0.5"/>
     <use xlink:href="#md61cd3671c" x="347.997081" y="165.183652" style="fill: #0000ff; fill-opacity: 0.5; stroke: #0000ff; stroke-opacity: 0.5"/>
     <use xlink:href="#md61cd3671c" x="353.752447" y="161.299241" style="fill: #0000ff; fill-opacity: 0.5; stroke: #0000ff; stroke-opacity: 0.5"/>
     <use xlink:href="#md61cd3671c" x="358.722968" y="157.944523" style="fill: #0000ff; fill-opacity: 0.5; stroke: #0000ff; stroke-opacity: 0.5"/>
     <use xlink:href="#md61cd3671c" x="364.21672" y="154.236676" style="fill: #0000ff; fill-opacity: 0.5; stroke: #0000ff; stroke-opacity: 0.5"/>
     <use xlink:href="#md61cd3671c" x="369.187264" y="150.528828" style="fill: #0000ff; fill-opacity: 0.5; stroke: #0000ff; stroke-opacity: 0.5"/>
     <use xlink:href="#md61cd3671c" x="374.942631" y="146.644416" style="fill: #0000ff; fill-opacity: 0.5; stroke: #0000ff; stroke-opacity: 0.5"/>
     <use xlink:href="#md61cd3671c" x="379.913169" y="143.642826" style="fill: #0000ff; fill-opacity: 0.5; stroke: #0000ff; stroke-opacity: 0.5"/>
     <use xlink:href="#md61cd3671c" x="390.377442" y="136.050566" style="fill: #0000ff; fill-opacity: 0.5; stroke: #0000ff; stroke-opacity: 0.5"/>
     <use xlink:href="#md61cd3671c" x="396.132808" y="132.519285" style="fill: #0000ff; fill-opacity: 0.5; stroke: #0000ff; stroke-opacity: 0.5"/>
     <use xlink:href="#md61cd3671c" x="385.668512" y="139.758414" style="fill: #0000ff; fill-opacity: 0.5; stroke: #0000ff; stroke-opacity: 0.5"/>
     <use xlink:href="#md61cd3671c" x="74.042011" y="294.993616" style="fill: #0000ff; fill-opacity: 0.5; stroke: #0000ff; stroke-opacity: 0.5"/>
     <use xlink:href="#md61cd3671c" x="82.204163" y="294.146121" style="fill: #0000ff; fill-opacity: 0.5; stroke: #0000ff; stroke-opacity: 0.5"/>
     <use xlink:href="#md61cd3671c" x="88.482736" y="292.874846" style="fill: #0000ff; fill-opacity: 0.5; stroke: #0000ff; stroke-opacity: 0.5"/>
     <use xlink:href="#md61cd3671c" x="95.703092" y="290.967966" style="fill: #0000ff; fill-opacity: 0.5; stroke: #0000ff; stroke-opacity: 0.5"/>
     <use xlink:href="#md61cd3671c" x="101.981665" y="288.849196" style="fill: #0000ff; fill-opacity: 0.5; stroke: #0000ff; stroke-opacity: 0.5"/>
     <use xlink:href="#md61cd3671c" x="109.515945" y="286.518536" style="fill: #0000ff; fill-opacity: 0.5; stroke: #0000ff; stroke-opacity: 0.5"/>
     <use xlink:href="#md61cd3671c" x="115.794518" y="284.187893" style="fill: #0000ff; fill-opacity: 0.5; stroke: #0000ff; stroke-opacity: 0.5"/>
     <use xlink:href="#md61cd3671c" x="122.700951" y="281.645375" style="fill: #0000ff; fill-opacity: 0.5; stroke: #0000ff; stroke-opacity: 0.5"/>
     <use xlink:href="#md61cd3671c" x="129.293447" y="279.526605" style="fill: #0000ff; fill-opacity: 0.5; stroke: #0000ff; stroke-opacity: 0.5"/>
     <use xlink:href="#md61cd3671c" x="134.630249" y="276.772198" style="fill: #0000ff; fill-opacity: 0.5; stroke: #0000ff; stroke-opacity: 0.5"/>
     <use xlink:href="#md61cd3671c" x="139.653102" y="272.958422" style="fill: #0000ff; fill-opacity: 0.5; stroke: #0000ff; stroke-opacity: 0.5"/>
     <use xlink:href="#md61cd3671c" x="145.303827" y="268.932748" style="fill: #0000ff; fill-opacity: 0.5; stroke: #0000ff; stroke-opacity: 0.5"/>
     <use xlink:href="#md61cd3671c" x="150.012757" y="265.542719" style="fill: #0000ff; fill-opacity: 0.5; stroke: #0000ff; stroke-opacity: 0.5"/>
     <use xlink:href="#md61cd3671c" x="155.03561" y="261.728935" style="fill: #0000ff; fill-opacity: 0.5; stroke: #0000ff; stroke-opacity: 0.5"/>
     <use xlink:href="#md61cd3671c" x="160.372387" y="258.127025" style="fill: #0000ff; fill-opacity: 0.5; stroke: #0000ff; stroke-opacity: 0.5"/>
     <use xlink:href="#md61cd3671c" x="165.395241" y="254.31324" style="fill: #0000ff; fill-opacity: 0.5; stroke: #0000ff; stroke-opacity: 0.5"/>
     <use xlink:href="#md61cd3671c" x="171.045966" y="250.71133" style="fill: #0000ff; fill-opacity: 0.5; stroke: #0000ff; stroke-opacity: 0.5"/>
     <use xlink:href="#md61cd3671c" x="176.068819" y="246.685664" style="fill: #0000ff; fill-opacity: 0.5; stroke: #0000ff; stroke-opacity: 0.5"/>
     <use xlink:href="#md61cd3671c" x="181.405621" y="243.083762" style="fill: #0000ff; fill-opacity: 0.5; stroke: #0000ff; stroke-opacity: 0.5"/>
     <use xlink:href="#md61cd3671c" x="186.428474" y="239.693725" style="fill: #0000ff; fill-opacity: 0.5; stroke: #0000ff; stroke-opacity: 0.5"/>
     <use xlink:href="#md61cd3671c" x="191.137404" y="235.879941" style="fill: #0000ff; fill-opacity: 0.5; stroke: #0000ff; stroke-opacity: 0.5"/>
     <use xlink:href="#md61cd3671c" x="196.788105" y="232.066153" style="fill: #0000ff; fill-opacity: 0.5; stroke: #0000ff; stroke-opacity: 0.5"/>
    </g>
   </g>
   <g id="matplotlib.axis_1">
    <g id="xtick_1">
     <g id="line2d_1">
      <defs>
       <path id="m99979cc5d0" d="M 0 0 
L 0 3.5 
" style="stroke: #000000; stroke-width: 0.8"/>
      </defs>
      <g>
       <use xlink:href="#m99979cc5d0" x="64.153259" y="307.584" style="stroke: #000000; stroke-width: 0.8"/>
      </g>
     </g>
     <g id="text_1">
      <!-- 0 -->
      <g transform="translate(60.972009 322.182437) scale(0.1 -0.1)">
       <defs>
        <path id="DejaVuSans-30" d="M 2034 4250 
Q 1547 4250 1301 3770 
Q 1056 3291 1056 2328 
Q 1056 1369 1301 889 
Q 1547 409 2034 409 
Q 2525 409 2770 889 
Q 3016 1369 3016 2328 
Q 3016 3291 2770 3770 
Q 2525 4250 2034 4250 
z
M 2034 4750 
Q 2819 4750 3233 4129 
Q 3647 3509 3647 2328 
Q 3647 1150 3233 529 
Q 2819 -91 2034 -91 
Q 1250 -91 836 529 
Q 422 1150 422 2328 
Q 422 3509 836 4129 
Q 1250 4750 2034 4750 
z
" transform="scale(0.015625)"/>
       </defs>
       <use xlink:href="#DejaVuSans-30"/>
      </g>
     </g>
    </g>
    <g id="xtick_2">
     <g id="line2d_2">
      <g>
       <use xlink:href="#m99979cc5d0" x="131.333988" y="307.584" style="stroke: #000000; stroke-width: 0.8"/>
      </g>
     </g>
     <g id="text_2">
      <!-- 1000 -->
      <g transform="translate(118.608988 322.182437) scale(0.1 -0.1)">
       <defs>
        <path id="DejaVuSans-31" d="M 794 531 
L 1825 531 
L 1825 4091 
L 703 3866 
L 703 4441 
L 1819 4666 
L 2450 4666 
L 2450 531 
L 3481 531 
L 3481 0 
L 794 0 
L 794 531 
z
" transform="scale(0.015625)"/>
       </defs>
       <use xlink:href="#DejaVuSans-31"/>
       <use xlink:href="#DejaVuSans-30" transform="translate(63.623047 0)"/>
       <use xlink:href="#DejaVuSans-30" transform="translate(127.246094 0)"/>
       <use xlink:href="#DejaVuSans-30" transform="translate(190.869141 0)"/>
      </g>
     </g>
    </g>
    <g id="xtick_3">
     <g id="line2d_3">
      <g>
       <use xlink:href="#m99979cc5d0" x="198.514717" y="307.584" style="stroke: #000000; stroke-width: 0.8"/>
      </g>
     </g>
     <g id="text_3">
      <!-- 2000 -->
      <g transform="translate(185.789717 322.182437) scale(0.1 -0.1)">
       <defs>
        <path id="DejaVuSans-32" d="M 1228 531 
L 3431 531 
L 3431 0 
L 469 0 
L 469 531 
Q 828 903 1448 1529 
Q 2069 2156 2228 2338 
Q 2531 2678 2651 2914 
Q 2772 3150 2772 3378 
Q 2772 3750 2511 3984 
Q 2250 4219 1831 4219 
Q 1534 4219 1204 4116 
Q 875 4013 500 3803 
L 500 4441 
Q 881 4594 1212 4672 
Q 1544 4750 1819 4750 
Q 2544 4750 2975 4387 
Q 3406 4025 3406 3419 
Q 3406 3131 3298 2873 
Q 3191 2616 2906 2266 
Q 2828 2175 2409 1742 
Q 1991 1309 1228 531 
z
" transform="scale(0.015625)"/>
       </defs>
       <use xlink:href="#DejaVuSans-32"/>
       <use xlink:href="#DejaVuSans-30" transform="translate(63.623047 0)"/>
       <use xlink:href="#DejaVuSans-30" transform="translate(127.246094 0)"/>
       <use xlink:href="#DejaVuSans-30" transform="translate(190.869141 0)"/>
      </g>
     </g>
    </g>
    <g id="xtick_4">
     <g id="line2d_4">
      <g>
       <use xlink:href="#m99979cc5d0" x="265.695446" y="307.584" style="stroke: #000000; stroke-width: 0.8"/>
      </g>
     </g>
     <g id="text_4">
      <!-- 3000 -->
      <g transform="translate(252.970446 322.182437) scale(0.1 -0.1)">
       <defs>
        <path id="DejaVuSans-33" d="M 2597 2516 
Q 3050 2419 3304 2112 
Q 3559 1806 3559 1356 
Q 3559 666 3084 287 
Q 2609 -91 1734 -91 
Q 1441 -91 1130 -33 
Q 819 25 488 141 
L 488 750 
Q 750 597 1062 519 
Q 1375 441 1716 441 
Q 2309 441 2620 675 
Q 2931 909 2931 1356 
Q 2931 1769 2642 2001 
Q 2353 2234 1838 2234 
L 1294 2234 
L 1294 2753 
L 1863 2753 
Q 2328 2753 2575 2939 
Q 2822 3125 2822 3475 
Q 2822 3834 2567 4026 
Q 2313 4219 1838 4219 
Q 1578 4219 1281 4162 
Q 984 4106 628 3988 
L 628 4550 
Q 988 4650 1302 4700 
Q 1616 4750 1894 4750 
Q 2613 4750 3031 4423 
Q 3450 4097 3450 3541 
Q 3450 3153 3228 2886 
Q 3006 2619 2597 2516 
z
" transform="scale(0.015625)"/>
       </defs>
       <use xlink:href="#DejaVuSans-33"/>
       <use xlink:href="#DejaVuSans-30" transform="translate(63.623047 0)"/>
       <use xlink:href="#DejaVuSans-30" transform="translate(127.246094 0)"/>
       <use xlink:href="#DejaVuSans-30" transform="translate(190.869141 0)"/>
      </g>
     </g>
    </g>
    <g id="xtick_5">
     <g id="line2d_5">
      <g>
       <use xlink:href="#m99979cc5d0" x="332.876175" y="307.584" style="stroke: #000000; stroke-width: 0.8"/>
      </g>
     </g>
     <g id="text_5">
      <!-- 4000 -->
      <g transform="translate(320.151175 322.182437) scale(0.1 -0.1)">
       <defs>
        <path id="DejaVuSans-34" d="M 2419 4116 
L 825 1625 
L 2419 1625 
L 2419 4116 
z
M 2253 4666 
L 3047 4666 
L 3047 1625 
L 3713 1625 
L 3713 1100 
L 3047 1100 
L 3047 0 
L 2419 0 
L 2419 1100 
L 313 1100 
L 313 1709 
L 2253 4666 
z
" transform="scale(0.015625)"/>
       </defs>
       <use xlink:href="#DejaVuSans-34"/>
       <use xlink:href="#DejaVuSans-30" transform="translate(63.623047 0)"/>
       <use xlink:href="#DejaVuSans-30" transform="translate(127.246094 0)"/>
       <use xlink:href="#DejaVuSans-30" transform="translate(190.869141 0)"/>
      </g>
     </g>
    </g>
    <g id="xtick_6">
     <g id="line2d_6">
      <g>
       <use xlink:href="#m99979cc5d0" x="400.056904" y="307.584" style="stroke: #000000; stroke-width: 0.8"/>
      </g>
     </g>
     <g id="text_6">
      <!-- 5000 -->
      <g transform="translate(387.331904 322.182437) scale(0.1 -0.1)">
       <defs>
        <path id="DejaVuSans-35" d="M 691 4666 
L 3169 4666 
L 3169 4134 
L 1269 4134 
L 1269 2991 
Q 1406 3038 1543 3061 
Q 1681 3084 1819 3084 
Q 2600 3084 3056 2656 
Q 3513 2228 3513 1497 
Q 3513 744 3044 326 
Q 2575 -91 1722 -91 
Q 1428 -91 1123 -41 
Q 819 9 494 109 
L 494 744 
Q 775 591 1075 516 
Q 1375 441 1709 441 
Q 2250 441 2565 725 
Q 2881 1009 2881 1497 
Q 2881 1984 2565 2268 
Q 2250 2553 1709 2553 
Q 1456 2553 1204 2497 
Q 953 2441 691 2322 
L 691 4666 
z
" transform="scale(0.015625)"/>
       </defs>
       <use xlink:href="#DejaVuSans-35"/>
       <use xlink:href="#DejaVuSans-30" transform="translate(63.623047 0)"/>
       <use xlink:href="#DejaVuSans-30" transform="translate(127.246094 0)"/>
       <use xlink:href="#DejaVuSans-30" transform="translate(190.869141 0)"/>
      </g>
     </g>
    </g>
    <g id="text_7">
     <!-- Frequency (Hz) -->
     <g transform="translate(198.455312 335.860562) scale(0.1 -0.1)">
      <defs>
       <path id="DejaVuSans-46" d="M 628 4666 
L 3309 4666 
L 3309 4134 
L 1259 4134 
L 1259 2759 
L 3109 2759 
L 3109 2228 
L 1259 2228 
L 1259 0 
L 628 0 
L 628 4666 
z
" transform="scale(0.015625)"/>
       <path id="DejaVuSans-72" d="M 2631 2963 
Q 2534 3019 2420 3045 
Q 2306 3072 2169 3072 
Q 1681 3072 1420 2755 
Q 1159 2438 1159 1844 
L 1159 0 
L 581 0 
L 581 3500 
L 1159 3500 
L 1159 2956 
Q 1341 3275 1631 3429 
Q 1922 3584 2338 3584 
Q 2397 3584 2469 3576 
Q 2541 3569 2628 3553 
L 2631 2963 
z
" transform="scale(0.015625)"/>
       <path id="DejaVuSans-65" d="M 3597 1894 
L 3597 1613 
L 953 1613 
Q 991 1019 1311 708 
Q 1631 397 2203 397 
Q 2534 397 2845 478 
Q 3156 559 3463 722 
L 3463 178 
Q 3153 47 2828 -22 
Q 2503 -91 2169 -91 
Q 1331 -91 842 396 
Q 353 884 353 1716 
Q 353 2575 817 3079 
Q 1281 3584 2069 3584 
Q 2775 3584 3186 3129 
Q 3597 2675 3597 1894 
z
M 3022 2063 
Q 3016 2534 2758 2815 
Q 2500 3097 2075 3097 
Q 1594 3097 1305 2825 
Q 1016 2553 972 2059 
L 3022 2063 
z
" transform="scale(0.015625)"/>
       <path id="DejaVuSans-71" d="M 947 1747 
Q 947 1113 1208 752 
Q 1469 391 1925 391 
Q 2381 391 2643 752 
Q 2906 1113 2906 1747 
Q 2906 2381 2643 2742 
Q 2381 3103 1925 3103 
Q 1469 3103 1208 2742 
Q 947 2381 947 1747 
z
M 2906 525 
Q 2725 213 2448 61 
Q 2172 -91 1784 -91 
Q 1150 -91 751 415 
Q 353 922 353 1747 
Q 353 2572 751 3078 
Q 1150 3584 1784 3584 
Q 2172 3584 2448 3432 
Q 2725 3281 2906 2969 
L 2906 3500 
L 3481 3500 
L 3481 -1331 
L 2906 -1331 
L 2906 525 
z
" transform="scale(0.015625)"/>
       <path id="DejaVuSans-75" d="M 544 1381 
L 544 3500 
L 1119 3500 
L 1119 1403 
Q 1119 906 1312 657 
Q 1506 409 1894 409 
Q 2359 409 2629 706 
Q 2900 1003 2900 1516 
L 2900 3500 
L 3475 3500 
L 3475 0 
L 2900 0 
L 2900 538 
Q 2691 219 2414 64 
Q 2138 -91 1772 -91 
Q 1169 -91 856 284 
Q 544 659 544 1381 
z
M 1991 3584 
L 1991 3584 
z
" transform="scale(0.015625)"/>
       <path id="DejaVuSans-6e" d="M 3513 2113 
L 3513 0 
L 2938 0 
L 2938 2094 
Q 2938 2591 2744 2837 
Q 2550 3084 2163 3084 
Q 1697 3084 1428 2787 
Q 1159 2491 1159 1978 
L 1159 0 
L 581 0 
L 581 3500 
L 1159 3500 
L 1159 2956 
Q 1366 3272 1645 3428 
Q 1925 3584 2291 3584 
Q 2894 3584 3203 3211 
Q 3513 2838 3513 2113 
z
" transform="scale(0.015625)"/>
       <path id="DejaVuSans-63" d="M 3122 3366 
L 3122 2828 
Q 2878 2963 2633 3030 
Q 2388 3097 2138 3097 
Q 1578 3097 1268 2742 
Q 959 2388 959 1747 
Q 959 1106 1268 751 
Q 1578 397 2138 397 
Q 2388 397 2633 464 
Q 2878 531 3122 666 
L 3122 134 
Q 2881 22 2623 -34 
Q 2366 -91 2075 -91 
Q 1284 -91 818 406 
Q 353 903 353 1747 
Q 353 2603 823 3093 
Q 1294 3584 2113 3584 
Q 2378 3584 2631 3529 
Q 2884 3475 3122 3366 
z
" transform="scale(0.015625)"/>
       <path id="DejaVuSans-79" d="M 2059 -325 
Q 1816 -950 1584 -1140 
Q 1353 -1331 966 -1331 
L 506 -1331 
L 506 -850 
L 844 -850 
Q 1081 -850 1212 -737 
Q 1344 -625 1503 -206 
L 1606 56 
L 191 3500 
L 800 3500 
L 1894 763 
L 2988 3500 
L 3597 3500 
L 2059 -325 
z
" transform="scale(0.015625)"/>
       <path id="DejaVuSans-20" transform="scale(0.015625)"/>
       <path id="DejaVuSans-28" d="M 1984 4856 
Q 1566 4138 1362 3434 
Q 1159 2731 1159 2009 
Q 1159 1288 1364 580 
Q 1569 -128 1984 -844 
L 1484 -844 
Q 1016 -109 783 600 
Q 550 1309 550 2009 
Q 550 2706 781 3412 
Q 1013 4119 1484 4856 
L 1984 4856 
z
" transform="scale(0.015625)"/>
       <path id="DejaVuSans-48" d="M 628 4666 
L 1259 4666 
L 1259 2753 
L 3553 2753 
L 3553 4666 
L 4184 4666 
L 4184 0 
L 3553 0 
L 3553 2222 
L 1259 2222 
L 1259 0 
L 628 0 
L 628 4666 
z
" transform="scale(0.015625)"/>
       <path id="DejaVuSans-7a" d="M 353 3500 
L 3084 3500 
L 3084 2975 
L 922 459 
L 3084 459 
L 3084 0 
L 275 0 
L 275 525 
L 2438 3041 
L 353 3041 
L 353 3500 
z
" transform="scale(0.015625)"/>
       <path id="DejaVuSans-29" d="M 513 4856 
L 1013 4856 
Q 1481 4119 1714 3412 
Q 1947 2706 1947 2009 
Q 1947 1309 1714 600 
Q 1481 -109 1013 -844 
L 513 -844 
Q 928 -128 1133 580 
Q 1338 1288 1338 2009 
Q 1338 2731 1133 3434 
Q 928 4138 513 4856 
z
" transform="scale(0.015625)"/>
      </defs>
      <use xlink:href="#DejaVuSans-46"/>
      <use xlink:href="#DejaVuSans-72" transform="translate(50.269531 0)"/>
      <use xlink:href="#DejaVuSans-65" transform="translate(89.132812 0)"/>
      <use xlink:href="#DejaVuSans-71" transform="translate(150.65625 0)"/>
      <use xlink:href="#DejaVuSans-75" transform="translate(214.132812 0)"/>
      <use xlink:href="#DejaVuSans-65" transform="translate(277.511719 0)"/>
      <use xlink:href="#DejaVuSans-6e" transform="translate(339.035156 0)"/>
      <use xlink:href="#DejaVuSans-63" transform="translate(402.414062 0)"/>
      <use xlink:href="#DejaVuSans-79" transform="translate(457.394531 0)"/>
      <use xlink:href="#DejaVuSans-20" transform="translate(516.574219 0)"/>
      <use xlink:href="#DejaVuSans-28" transform="translate(548.361328 0)"/>
      <use xlink:href="#DejaVuSans-48" transform="translate(587.375 0)"/>
      <use xlink:href="#DejaVuSans-7a" transform="translate(662.570312 0)"/>
      <use xlink:href="#DejaVuSans-29" transform="translate(715.060547 0)"/>
     </g>
    </g>
   </g>
   <g id="matplotlib.axis_2">
    <g id="ytick_1">
     <g id="line2d_7">
      <defs>
       <path id="m2034058eee" d="M 0 0 
L -3.5 0 
" style="stroke: #000000; stroke-width: 0.8"/>
      </defs>
      <g>
       <use xlink:href="#m2034058eee" x="57.6" y="295.708704" style="stroke: #000000; stroke-width: 0.8"/>
      </g>
     </g>
     <g id="text_8">
      <!-- 0 -->
      <g transform="translate(44.2375 299.507923) scale(0.1 -0.1)">
       <use xlink:href="#DejaVuSans-30"/>
      </g>
     </g>
    </g>
    <g id="ytick_2">
     <g id="line2d_8">
      <g>
       <use xlink:href="#m2034058eee" x="57.6" y="243.723171" style="stroke: #000000; stroke-width: 0.8"/>
      </g>
     </g>
     <g id="text_9">
      <!-- 1000 -->
      <g transform="translate(25.15 247.52239) scale(0.1 -0.1)">
       <use xlink:href="#DejaVuSans-31"/>
       <use xlink:href="#DejaVuSans-30" transform="translate(63.623047 0)"/>
       <use xlink:href="#DejaVuSans-30" transform="translate(127.246094 0)"/>
       <use xlink:href="#DejaVuSans-30" transform="translate(190.869141 0)"/>
      </g>
     </g>
    </g>
    <g id="ytick_3">
     <g id="line2d_9">
      <g>
       <use xlink:href="#m2034058eee" x="57.6" y="191.737639" style="stroke: #000000; stroke-width: 0.8"/>
      </g>
     </g>
     <g id="text_10">
      <!-- 2000 -->
      <g transform="translate(25.15 195.536858) scale(0.1 -0.1)">
       <use xlink:href="#DejaVuSans-32"/>
       <use xlink:href="#DejaVuSans-30" transform="translate(63.623047 0)"/>
       <use xlink:href="#DejaVuSans-30" transform="translate(127.246094 0)"/>
       <use xlink:href="#DejaVuSans-30" transform="translate(190.869141 0)"/>
      </g>
     </g>
    </g>
    <g id="ytick_4">
     <g id="line2d_10">
      <g>
       <use xlink:href="#m2034058eee" x="57.6" y="139.752106" style="stroke: #000000; stroke-width: 0.8"/>
      </g>
     </g>
     <g id="text_11">
      <!-- 3000 -->
      <g transform="translate(25.15 143.551325) scale(0.1 -0.1)">
       <use xlink:href="#DejaVuSans-33"/>
       <use xlink:href="#DejaVuSans-30" transform="translate(63.623047 0)"/>
       <use xlink:href="#DejaVuSans-30" transform="translate(127.246094 0)"/>
       <use xlink:href="#DejaVuSans-30" transform="translate(190.869141 0)"/>
      </g>
     </g>
    </g>
    <g id="ytick_5">
     <g id="line2d_11">
      <g>
       <use xlink:href="#m2034058eee" x="57.6" y="87.766574" style="stroke: #000000; stroke-width: 0.8"/>
      </g>
     </g>
     <g id="text_12">
      <!-- 4000 -->
      <g transform="translate(25.15 91.565793) scale(0.1 -0.1)">
       <use xlink:href="#DejaVuSans-34"/>
       <use xlink:href="#DejaVuSans-30" transform="translate(63.623047 0)"/>
       <use xlink:href="#DejaVuSans-30" transform="translate(127.246094 0)"/>
       <use xlink:href="#DejaVuSans-30" transform="translate(190.869141 0)"/>
      </g>
     </g>
    </g>
    <g id="text_13">
     <!-- Iron losses (W/kg) -->
     <g transform="translate(19.070312 219.2905) rotate(-90) scale(0.1 -0.1)">
      <defs>
       <path id="DejaVuSans-49" d="M 628 4666 
L 1259 4666 
L 1259 0 
L 628 0 
L 628 4666 
z
" transform="scale(0.015625)"/>
       <path id="DejaVuSans-6f" d="M 1959 3097 
Q 1497 3097 1228 2736 
Q 959 2375 959 1747 
Q 959 1119 1226 758 
Q 1494 397 1959 397 
Q 2419 397 2687 759 
Q 2956 1122 2956 1747 
Q 2956 2369 2687 2733 
Q 2419 3097 1959 3097 
z
M 1959 3584 
Q 2709 3584 3137 3096 
Q 3566 2609 3566 1747 
Q 3566 888 3137 398 
Q 2709 -91 1959 -91 
Q 1206 -91 779 398 
Q 353 888 353 1747 
Q 353 2609 779 3096 
Q 1206 3584 1959 3584 
z
" transform="scale(0.015625)"/>
       <path id="DejaVuSans-6c" d="M 603 4863 
L 1178 4863 
L 1178 0 
L 603 0 
L 603 4863 
z
" transform="scale(0.015625)"/>
       <path id="DejaVuSans-73" d="M 2834 3397 
L 2834 2853 
Q 2591 2978 2328 3040 
Q 2066 3103 1784 3103 
Q 1356 3103 1142 2972 
Q 928 2841 928 2578 
Q 928 2378 1081 2264 
Q 1234 2150 1697 2047 
L 1894 2003 
Q 2506 1872 2764 1633 
Q 3022 1394 3022 966 
Q 3022 478 2636 193 
Q 2250 -91 1575 -91 
Q 1294 -91 989 -36 
Q 684 19 347 128 
L 347 722 
Q 666 556 975 473 
Q 1284 391 1588 391 
Q 1994 391 2212 530 
Q 2431 669 2431 922 
Q 2431 1156 2273 1281 
Q 2116 1406 1581 1522 
L 1381 1569 
Q 847 1681 609 1914 
Q 372 2147 372 2553 
Q 372 3047 722 3315 
Q 1072 3584 1716 3584 
Q 2034 3584 2315 3537 
Q 2597 3491 2834 3397 
z
" transform="scale(0.015625)"/>
       <path id="DejaVuSans-57" d="M 213 4666 
L 850 4666 
L 1831 722 
L 2809 4666 
L 3519 4666 
L 4500 722 
L 5478 4666 
L 6119 4666 
L 4947 0 
L 4153 0 
L 3169 4050 
L 2175 0 
L 1381 0 
L 213 4666 
z
" transform="scale(0.015625)"/>
       <path id="DejaVuSans-2f" d="M 1625 4666 
L 2156 4666 
L 531 -594 
L 0 -594 
L 1625 4666 
z
" transform="scale(0.015625)"/>
       <path id="DejaVuSans-6b" d="M 581 4863 
L 1159 4863 
L 1159 1991 
L 2875 3500 
L 3609 3500 
L 1753 1863 
L 3688 0 
L 2938 0 
L 1159 1709 
L 1159 0 
L 581 0 
L 581 4863 
z
" transform="scale(0.015625)"/>
       <path id="DejaVuSans-67" d="M 2906 1791 
Q 2906 2416 2648 2759 
Q 2391 3103 1925 3103 
Q 1463 3103 1205 2759 
Q 947 2416 947 1791 
Q 947 1169 1205 825 
Q 1463 481 1925 481 
Q 2391 481 2648 825 
Q 2906 1169 2906 1791 
z
M 3481 434 
Q 3481 -459 3084 -895 
Q 2688 -1331 1869 -1331 
Q 1566 -1331 1297 -1286 
Q 1028 -1241 775 -1147 
L 775 -588 
Q 1028 -725 1275 -790 
Q 1522 -856 1778 -856 
Q 2344 -856 2625 -561 
Q 2906 -266 2906 331 
L 2906 616 
Q 2728 306 2450 153 
Q 2172 0 1784 0 
Q 1141 0 747 490 
Q 353 981 353 1791 
Q 353 2603 747 3093 
Q 1141 3584 1784 3584 
Q 2172 3584 2450 3431 
Q 2728 3278 2906 2969 
L 2906 3500 
L 3481 3500 
L 3481 434 
z
" transform="scale(0.015625)"/>
      </defs>
      <use xlink:href="#DejaVuSans-49"/>
      <use xlink:href="#DejaVuSans-72" transform="translate(29.492188 0)"/>
      <use xlink:href="#DejaVuSans-6f" transform="translate(68.355469 0)"/>
      <use xlink:href="#DejaVuSans-6e" transform="translate(129.537109 0)"/>
      <use xlink:href="#DejaVuSans-20" transform="translate(192.916016 0)"/>
      <use xlink:href="#DejaVuSans-6c" transform="translate(224.703125 0)"/>
      <use xlink:href="#DejaVuSans-6f" transform="translate(252.486328 0)"/>
      <use xlink:href="#DejaVuSans-73" transform="translate(313.667969 0)"/>
      <use xlink:href="#DejaVuSans-73" transform="translate(365.767578 0)"/>
      <use xlink:href="#DejaVuSans-65" transform="translate(417.867188 0)"/>
      <use xlink:href="#DejaVuSans-73" transform="translate(479.390625 0)"/>
      <use xlink:href="#DejaVuSans-20" transform="translate(531.490234 0)"/>
      <use xlink:href="#DejaVuSans-28" transform="translate(563.277344 0)"/>
      <use xlink:href="#DejaVuSans-57" transform="translate(602.291016 0)"/>
      <use xlink:href="#DejaVuSans-2f" transform="translate(701.167969 0)"/>
      <use xlink:href="#DejaVuSans-6b" transform="translate(734.859375 0)"/>
      <use xlink:href="#DejaVuSans-67" transform="translate(792.769531 0)"/>
      <use xlink:href="#DejaVuSans-29" transform="translate(856.246094 0)"/>
     </g>
    </g>
   </g>
   <g id="line2d_12">
    <path d="M 73.832727 294.934958 
L 77.112066 294.940739 
L 80.391405 294.957317 
L 83.670744 294.977664 
L 86.950083 294.998114 
L 90.229421 295.016599 
L 93.50876 295.031901 
L 96.788099 295.043291 
L 100.067438 295.050336 
L 103.346777 295.052792 
L 106.626116 295.050537 
L 109.905455 295.04353 
L 113.184793 295.031785 
L 116.464132 295.015354 
L 119.743471 294.994315 
L 123.02281 294.968764 
L 126.302149 294.938807 
L 129.581488 294.90456 
L 132.860826 294.866143 
L 136.140165 294.823677 
L 139.419504 294.777287 
L 142.698843 294.727094 
L 145.978182 294.673223 
L 149.257521 294.615793 
L 152.53686 294.554924 
L 155.816198 294.490733 
L 159.095537 294.423335 
L 162.374876 294.352841 
L 165.654215 294.27936 
L 168.933554 294.203001 
L 172.212893 294.123867 
L 175.492231 294.042059 
L 178.77157 293.957678 
L 182.050909 293.870819 
L 185.330248 293.781577 
L 188.609587 293.690044 
L 191.888926 293.596308 
L 195.168264 293.500458 
L 198.447603 293.402578 
L 201.726942 293.302751 
L 205.006281 293.201058 
L 208.28562 293.097577 
L 211.564959 292.992386 
L 214.844298 292.88556 
L 218.123636 292.777172 
L 221.402975 292.667293 
L 224.682314 292.555993 
L 227.961653 292.443341 
L 231.240992 292.329402 
L 234.520331 292.214243 
L 237.799669 292.097927 
L 241.079008 291.980516 
L 244.358347 291.862071 
L 247.637686 291.742652 
L 250.917025 291.622317 
L 254.196364 291.501123 
L 257.475702 291.379126 
L 260.755041 291.256381 
L 264.03438 291.132941 
L 267.313719 291.008859 
L 270.593058 290.884187 
L 273.872397 290.758974 
L 277.151736 290.633271 
L 280.431074 290.507126 
L 283.710413 290.380586 
L 286.989752 290.253699 
L 290.269091 290.126511 
L 293.54843 289.999065 
L 296.827769 289.871407 
L 300.107107 289.74358 
L 303.386446 289.615626 
L 306.665785 289.487587 
L 309.945124 289.359506 
L 313.224463 289.231421 
L 316.503802 289.103373 
L 319.78314 288.9754 
L 323.062479 288.847542 
L 326.341818 288.719836 
L 329.621157 288.59232 
L 332.900496 288.465029 
L 336.179835 288.338 
L 339.459174 288.211268 
L 342.738512 288.084869 
L 346.017851 287.958836 
L 349.29719 287.833203 
L 352.576529 287.708004 
L 355.855868 287.583271 
L 359.135207 287.459036 
L 362.414545 287.335332 
L 365.693884 287.21219 
L 368.973223 287.089641 
L 372.252562 286.967714 
L 375.531901 286.846441 
L 378.81124 286.725851 
L 382.090579 286.605972 
L 385.369917 286.486834 
L 388.649256 286.368465 
L 391.928595 286.250893 
L 395.207934 286.134146 
L 398.487273 286.01825 
" clip-path="url(#p7f7974aeac)" style="fill: none; stroke: #ff0000; stroke-width: 1.5; stroke-linecap: square"/>
   </g>
   <g id="line2d_13">
    <path d="M 73.832727 294.422496 
L 77.112066 294.534327 
L 80.391405 294.641264 
L 83.670744 294.730585 
L 86.950083 294.796505 
L 90.229421 294.836381 
L 93.50876 294.849152 
L 96.788099 294.8346 
L 100.067438 294.79298 
L 103.346777 294.724813 
L 106.626116 294.630772 
L 109.905455 294.511607 
L 113.184793 294.368109 
L 116.464132 294.201081 
L 119.743471 294.011322 
L 123.02281 293.79962 
L 126.302149 293.566741 
L 129.581488 293.313429 
L 132.860826 293.040404 
L 136.140165 292.748362 
L 139.419504 292.437971 
L 142.698843 292.109875 
L 145.978182 291.764696 
L 149.257521 291.40303 
L 152.53686 291.025451 
L 155.816198 290.632511 
L 159.095537 290.224744 
L 162.374876 289.802663 
L 165.654215 289.366761 
L 168.933554 288.917515 
L 172.212893 288.455385 
L 175.492231 287.980816 
L 178.77157 287.494236 
L 182.050909 286.99606 
L 185.330248 286.48669 
L 188.609587 285.966514 
L 191.888926 285.435907 
L 195.168264 284.895234 
L 198.447603 284.344849 
L 201.726942 283.785092 
L 205.006281 283.216298 
L 208.28562 282.638788 
L 211.564959 282.052876 
L 214.844298 281.458867 
L 218.123636 280.857057 
L 221.402975 280.247735 
L 224.682314 279.631181 
L 227.961653 279.007667 
L 231.240992 278.377462 
L 234.520331 277.740823 
L 237.799669 277.098004 
L 241.079008 276.449251 
L 244.358347 275.794805 
L 247.637686 275.1349 
L 250.917025 274.469767 
L 254.196364 273.79963 
L 257.475702 273.124706 
L 260.755041 272.44521 
L 264.03438 271.761352 
L 267.313719 271.073336 
L 270.593058 270.381362 
L 273.872397 269.685627 
L 277.151736 268.986321 
L 280.431074 268.283633 
L 283.710413 267.577747 
L 286.989752 266.868842 
L 290.269091 266.157097 
L 293.54843 265.442683 
L 296.827769 264.725772 
L 300.107107 264.006528 
L 303.386446 263.285117 
L 306.665785 262.561697 
L 309.945124 261.836427 
L 313.224463 261.109461 
L 316.503802 260.38095 
L 319.78314 259.651044 
L 323.062479 258.919889 
L 326.341818 258.187629 
L 329.621157 257.454405 
L 332.900496 256.720356 
L 336.179835 255.985618 
L 339.459174 255.250327 
L 342.738512 254.514613 
L 346.017851 253.778607 
L 349.29719 253.042436 
L 352.576529 252.306227 
L 355.855868 251.570103 
L 359.135207 250.834186 
L 362.414545 250.098596 
L 365.693884 249.363451 
L 368.973223 248.628867 
L 372.252562 247.894959 
L 375.531901 247.16184 
L 378.81124 246.429621 
L 382.090579 245.69841 
L 385.369917 244.968318 
L 388.649256 244.239449 
L 391.928595 243.511908 
L 395.207934 242.7858 
L 398.487273 242.061226 
" clip-path="url(#p7f7974aeac)" style="fill: none; stroke: #008000; stroke-width: 1.5; stroke-linecap: square"/>
   </g>
   <g id="line2d_14">
    <path d="M 73.832727 291.495649 
L 77.112066 291.971608 
L 80.391405 292.436747 
L 83.670744 292.846526 
L 86.950083 293.180492 
L 90.229421 293.429133 
L 93.50876 293.588458 
L 96.788099 293.657448 
L 100.067438 293.636749 
L 103.346777 293.52796 
L 106.626116 293.333218 
L 109.905455 293.054961 
L 113.184793 292.695774 
L 116.464132 292.258302 
L 119.743471 291.745187 
L 123.02281 291.159037 
L 126.302149 290.502402 
L 129.581488 289.777762 
L 132.860826 288.987518 
L 136.140165 288.13399 
L 139.419504 287.219416 
L 142.698843 286.245952 
L 145.978182 285.215675 
L 149.257521 284.130586 
L 152.53686 282.992609 
L 155.816198 281.803599 
L 159.095537 280.565344 
L 162.374876 279.279566 
L 165.654215 277.947924 
L 168.933554 276.572022 
L 172.212893 275.153405 
L 175.492231 273.693567 
L 178.77157 272.193951 
L 182.050909 270.655952 
L 185.330248 269.080921 
L 188.609587 267.470163 
L 191.888926 265.824944 
L 195.168264 264.146491 
L 198.447603 262.435993 
L 201.726942 260.694603 
L 205.006281 258.923441 
L 208.28562 257.123594 
L 211.564959 255.296119 
L 214.844298 253.442042 
L 218.123636 251.562362 
L 221.402975 249.658051 
L 224.682314 247.730054 
L 227.961653 245.779293 
L 231.240992 243.806665 
L 234.520331 241.813044 
L 237.799669 239.799283 
L 241.079008 237.766215 
L 244.358347 235.714651 
L 247.637686 233.645382 
L 250.917025 231.559183 
L 254.196364 229.45681 
L 257.475702 227.339001 
L 260.755041 225.206478 
L 264.03438 223.059947 
L 267.313719 220.900098 
L 270.593058 218.727608 
L 273.872397 216.543136 
L 277.151736 214.347332 
L 280.431074 212.140828 
L 283.710413 209.924246 
L 286.989752 207.698194 
L 290.269091 205.463268 
L 293.54843 203.220054 
L 296.827769 200.969124 
L 300.107107 198.71104 
L 303.386446 196.446356 
L 306.665785 194.175611 
L 309.945124 191.899337 
L 313.224463 189.618056 
L 316.503802 187.33228 
L 319.78314 185.042512 
L 323.062479 182.749246 
L 326.341818 180.452968 
L 329.621157 178.154155 
L 332.900496 175.853277 
L 336.179835 173.550794 
L 339.459174 171.24716 
L 342.738512 168.94282 
L 346.017851 166.638215 
L 349.29719 164.333775 
L 352.576529 162.029925 
L 355.855868 159.727083 
L 359.135207 157.42566 
L 362.414545 155.126063 
L 365.693884 152.828689 
L 368.973223 150.533932 
L 372.252562 148.242178 
L 375.531901 145.953809 
L 378.81124 143.669201 
L 382.090579 141.388723 
L 385.369917 139.11274 
L 388.649256 136.841611 
L 391.928595 134.575692 
L 395.207934 132.315331 
L 398.487273 130.060874 
" clip-path="url(#p7f7974aeac)" style="fill: none; stroke: #ffa500; stroke-width: 1.5; stroke-linecap: square"/>
   </g>
   <g id="line2d_15">
    <path d="M 73.832727 294.236788 
L 77.112066 294.249319 
L 80.391405 294.115717 
L 83.670744 293.834259 
L 86.950083 293.409728 
L 90.229421 292.848966 
L 93.50876 292.159285 
L 96.788099 291.347862 
L 100.067438 290.421509 
L 103.346777 289.386597 
L 106.626116 288.24905 
L 109.905455 287.014363 
L 113.184793 285.687638 
L 116.464132 284.273614 
L 119.743471 282.776701 
L 123.02281 281.201016 
L 126.302149 279.550405 
L 129.581488 277.828474 
L 132.860826 276.038609 
L 136.140165 274.183995 
L 139.419504 272.267638 
L 142.698843 270.292376 
L 145.978182 268.260899 
L 149.257521 266.175754 
L 152.53686 264.039363 
L 155.816198 261.85403 
L 159.095537 259.62195 
L 162.374876 257.345218 
L 165.654215 255.025835 
L 168.933554 252.665717 
L 172.212893 250.266698 
L 175.492231 247.830536 
L 178.77157 245.358922 
L 182.050909 242.853478 
L 185.330248 240.315765 
L 188.609587 237.747288 
L 191.888926 235.149495 
L 195.168264 232.523784 
L 198.447603 229.871506 
L 201.726942 227.193963 
L 205.006281 224.492418 
L 208.28562 221.768089 
L 211.564959 219.022159 
L 214.844298 216.255772 
L 218.123636 213.470038 
L 221.402975 210.666034 
L 224.682314 207.844804 
L 227.961653 205.007365 
L 231.240992 202.154702 
L 234.520331 199.287775 
L 237.799669 196.407517 
L 241.079008 193.514837 
L 244.358347 190.610618 
L 247.637686 187.695723 
L 250.917025 184.770992 
L 254.196364 181.837242 
L 257.475702 178.895274 
L 260.755041 175.945867 
L 264.03438 172.98978 
L 267.313719 170.027759 
L 270.593058 167.060528 
L 273.872397 164.088797 
L 277.151736 161.113261 
L 280.431074 158.134597 
L 283.710413 155.153469 
L 286.989752 152.170526 
L 290.269091 149.186405 
L 293.54843 146.201728 
L 296.827769 143.217104 
L 300.107107 140.233131 
L 303.386446 137.250395 
L 306.665785 134.269469 
L 309.945124 131.290916 
L 313.224463 128.315288 
L 316.503802 125.343127 
L 319.78314 122.374963 
L 323.062479 119.411319 
L 326.341818 116.452705 
L 329.621157 113.499626 
L 332.900496 110.552574 
L 336.179835 107.612034 
L 339.459174 104.678483 
L 342.738512 101.752389 
L 346.017851 98.834213 
L 349.29719 95.924406 
L 352.576529 93.023415 
L 355.855868 90.131677 
L 359.135207 87.249621 
L 362.414545 84.377673 
L 365.693884 81.516248 
L 368.973223 78.665757 
L 372.252562 75.826603 
L 375.531901 72.999185 
L 378.81124 70.183894 
L 382.090579 67.381115 
L 385.369917 64.591228 
L 388.649256 61.814607 
L 391.928595 59.05162 
L 395.207934 56.302632 
L 398.487273 53.568 
" clip-path="url(#p7f7974aeac)" style="fill: none; stroke: #800080; stroke-width: 1.5; stroke-linecap: square"/>
   </g>
   <g id="patch_3">
    <path d="M 57.6 307.584 
L 57.6 41.472 
" style="fill: none; stroke: #000000; stroke-width: 0.5; stroke-linejoin: miter; stroke-linecap: square"/>
   </g>
   <g id="patch_4">
    <path d="M 57.6 307.584 
L 414.72 307.584 
" style="fill: none; stroke: #000000; stroke-width: 0.5; stroke-linejoin: miter; stroke-linecap: square"/>
   </g>
   <g id="text_14">
    <!-- Iron losses fitting for different values of b -->
    <g transform="translate(108.40125 35.472) scale(0.12 -0.12)">
     <defs>
      <path id="DejaVuSans-66" d="M 2375 4863 
L 2375 4384 
L 1825 4384 
Q 1516 4384 1395 4259 
Q 1275 4134 1275 3809 
L 1275 3500 
L 2222 3500 
L 2222 3053 
L 1275 3053 
L 1275 0 
L 697 0 
L 697 3053 
L 147 3053 
L 147 3500 
L 697 3500 
L 697 3744 
Q 697 4328 969 4595 
Q 1241 4863 1831 4863 
L 2375 4863 
z
" transform="scale(0.015625)"/>
      <path id="DejaVuSans-69" d="M 603 3500 
L 1178 3500 
L 1178 0 
L 603 0 
L 603 3500 
z
M 603 4863 
L 1178 4863 
L 1178 4134 
L 603 4134 
L 603 4863 
z
" transform="scale(0.015625)"/>
      <path id="DejaVuSans-74" d="M 1172 4494 
L 1172 3500 
L 2356 3500 
L 2356 3053 
L 1172 3053 
L 1172 1153 
Q 1172 725 1289 603 
Q 1406 481 1766 481 
L 2356 481 
L 2356 0 
L 1766 0 
Q 1100 0 847 248 
Q 594 497 594 1153 
L 594 3053 
L 172 3053 
L 172 3500 
L 594 3500 
L 594 4494 
L 1172 4494 
z
" transform="scale(0.015625)"/>
      <path id="DejaVuSans-64" d="M 2906 2969 
L 2906 4863 
L 3481 4863 
L 3481 0 
L 2906 0 
L 2906 525 
Q 2725 213 2448 61 
Q 2172 -91 1784 -91 
Q 1150 -91 751 415 
Q 353 922 353 1747 
Q 353 2572 751 3078 
Q 1150 3584 1784 3584 
Q 2172 3584 2448 3432 
Q 2725 3281 2906 2969 
z
M 947 1747 
Q 947 1113 1208 752 
Q 1469 391 1925 391 
Q 2381 391 2643 752 
Q 2906 1113 2906 1747 
Q 2906 2381 2643 2742 
Q 2381 3103 1925 3103 
Q 1469 3103 1208 2742 
Q 947 2381 947 1747 
z
" transform="scale(0.015625)"/>
      <path id="DejaVuSans-76" d="M 191 3500 
L 800 3500 
L 1894 563 
L 2988 3500 
L 3597 3500 
L 2284 0 
L 1503 0 
L 191 3500 
z
" transform="scale(0.015625)"/>
      <path id="DejaVuSans-61" d="M 2194 1759 
Q 1497 1759 1228 1600 
Q 959 1441 959 1056 
Q 959 750 1161 570 
Q 1363 391 1709 391 
Q 2188 391 2477 730 
Q 2766 1069 2766 1631 
L 2766 1759 
L 2194 1759 
z
M 3341 1997 
L 3341 0 
L 2766 0 
L 2766 531 
Q 2569 213 2275 61 
Q 1981 -91 1556 -91 
Q 1019 -91 701 211 
Q 384 513 384 1019 
Q 384 1609 779 1909 
Q 1175 2209 1959 2209 
L 2766 2209 
L 2766 2266 
Q 2766 2663 2505 2880 
Q 2244 3097 1772 3097 
Q 1472 3097 1187 3025 
Q 903 2953 641 2809 
L 641 3341 
Q 956 3463 1253 3523 
Q 1550 3584 1831 3584 
Q 2591 3584 2966 3190 
Q 3341 2797 3341 1997 
z
" transform="scale(0.015625)"/>
      <path id="DejaVuSans-62" d="M 3116 1747 
Q 3116 2381 2855 2742 
Q 2594 3103 2138 3103 
Q 1681 3103 1420 2742 
Q 1159 2381 1159 1747 
Q 1159 1113 1420 752 
Q 1681 391 2138 391 
Q 2594 391 2855 752 
Q 3116 1113 3116 1747 
z
M 1159 2969 
Q 1341 3281 1617 3432 
Q 1894 3584 2278 3584 
Q 2916 3584 3314 3078 
Q 3713 2572 3713 1747 
Q 3713 922 3314 415 
Q 2916 -91 2278 -91 
Q 1894 -91 1617 61 
Q 1341 213 1159 525 
L 1159 0 
L 581 0 
L 581 4863 
L 1159 4863 
L 1159 2969 
z
" transform="scale(0.015625)"/>
      <path id="DejaVuSans-2098" d="M 2156 1082 
L 2156 -24 
L 1794 -24 
L 1794 1147 
Q 1794 1432 1681 1568 
Q 1569 1704 1334 1704 
Q 1056 1704 893 1536 
Q 731 1369 731 1082 
L 731 -24 
L 366 -24 
L 366 1935 
L 731 1935 
L 731 1632 
Q 853 1810 1026 1896 
Q 1200 1982 1441 1982 
Q 1678 1982 1847 1874 
Q 2016 1766 2097 1560 
Q 2231 1776 2420 1879 
Q 2609 1982 2866 1982 
Q 3213 1982 3398 1768 
Q 3584 1554 3584 1160 
L 3584 -24 
L 3222 -24 
L 3222 1147 
Q 3222 1429 3109 1566 
Q 2997 1704 2766 1704 
Q 2484 1704 2320 1536 
Q 2156 1369 2156 1082 
z
" transform="scale(0.015625)"/>
     </defs>
     <use xlink:href="#DejaVuSans-49"/>
     <use xlink:href="#DejaVuSans-72" transform="translate(29.492188 0)"/>
     <use xlink:href="#DejaVuSans-6f" transform="translate(68.355469 0)"/>
     <use xlink:href="#DejaVuSans-6e" transform="translate(129.537109 0)"/>
     <use xlink:href="#DejaVuSans-20" transform="translate(192.916016 0)"/>
     <use xlink:href="#DejaVuSans-6c" transform="translate(224.703125 0)"/>
     <use xlink:href="#DejaVuSans-6f" transform="translate(252.486328 0)"/>
     <use xlink:href="#DejaVuSans-73" transform="translate(313.667969 0)"/>
     <use xlink:href="#DejaVuSans-73" transform="translate(365.767578 0)"/>
     <use xlink:href="#DejaVuSans-65" transform="translate(417.867188 0)"/>
     <use xlink:href="#DejaVuSans-73" transform="translate(479.390625 0)"/>
     <use xlink:href="#DejaVuSans-20" transform="translate(531.490234 0)"/>
     <use xlink:href="#DejaVuSans-66" transform="translate(563.277344 0)"/>
     <use xlink:href="#DejaVuSans-69" transform="translate(598.482422 0)"/>
     <use xlink:href="#DejaVuSans-74" transform="translate(626.265625 0)"/>
     <use xlink:href="#DejaVuSans-74" transform="translate(665.474609 0)"/>
     <use xlink:href="#DejaVuSans-69" transform="translate(704.683594 0)"/>
     <use xlink:href="#DejaVuSans-6e" transform="translate(732.466797 0)"/>
     <use xlink:href="#DejaVuSans-67" transform="translate(795.845703 0)"/>
     <use xlink:href="#DejaVuSans-20" transform="translate(859.322266 0)"/>
     <use xlink:href="#DejaVuSans-66" transform="translate(891.109375 0)"/>
     <use xlink:href="#DejaVuSans-6f" transform="translate(926.314453 0)"/>
     <use xlink:href="#DejaVuSans-72" transform="translate(987.496094 0)"/>
     <use xlink:href="#DejaVuSans-20" transform="translate(1028.609375 0)"/>
     <use xlink:href="#DejaVuSans-64" transform="translate(1060.396484 0)"/>
     <use xlink:href="#DejaVuSans-69" transform="translate(1123.873047 0)"/>
     <use xlink:href="#DejaVuSans-66" transform="translate(1151.65625 0)"/>
     <use xlink:href="#DejaVuSans-66" transform="translate(1186.861328 0)"/>
     <use xlink:href="#DejaVuSans-65" transform="translate(1222.066406 0)"/>
     <use xlink:href="#DejaVuSans-72" transform="translate(1283.589844 0)"/>
     <use xlink:href="#DejaVuSans-65" transform="translate(1322.453125 0)"/>
     <use xlink:href="#DejaVuSans-6e" transform="translate(1383.976562 0)"/>
     <use xlink:href="#DejaVuSans-74" transform="translate(1447.355469 0)"/>
     <use xlink:href="#DejaVuSans-20" transform="translate(1486.564453 0)"/>
     <use xlink:href="#DejaVuSans-76" transform="translate(1518.351562 0)"/>
     <use xlink:href="#DejaVuSans-61" transform="translate(1577.53125 0)"/>
     <use xlink:href="#DejaVuSans-6c" transform="translate(1638.810547 0)"/>
     <use xlink:href="#DejaVuSans-75" transform="translate(1666.59375 0)"/>
     <use xlink:href="#DejaVuSans-65" transform="translate(1729.972656 0)"/>
     <use xlink:href="#DejaVuSans-73" transform="translate(1791.496094 0)"/>
     <use xlink:href="#DejaVuSans-20" transform="translate(1843.595703 0)"/>
     <use xlink:href="#DejaVuSans-6f" transform="translate(1875.382812 0)"/>
     <use xlink:href="#DejaVuSans-66" transform="translate(1936.564453 0)"/>
     <use xlink:href="#DejaVuSans-20" transform="translate(1971.769531 0)"/>
     <use xlink:href="#DejaVuSans-62" transform="translate(2003.556641 0)"/>
     <use xlink:href="#DejaVuSans-2098" transform="translate(2067.033203 0)"/>
    </g>
   </g>
   <g id="legend_1">
    <g id="patch_5">
     <path d="M 64.6 122.862625 
L 161.434375 122.862625 
Q 163.434375 122.862625 163.434375 120.862625 
L 163.434375 48.472 
Q 163.434375 46.472 161.434375 46.472 
L 64.6 46.472 
Q 62.6 46.472 62.6 48.472 
L 62.6 120.862625 
Q 62.6 122.862625 64.6 122.862625 
z
" style="fill: #ffffff; opacity: 0.8; stroke: #cccccc; stroke-linejoin: miter"/>
    </g>
    <g id="PathCollection_2">
     <g>
      <use xlink:href="#md61cd3671c" x="76.6" y="55.445438" style="fill: #0000ff; fill-opacity: 0.5; stroke: #0000ff; stroke-opacity: 0.5"/>
     </g>
    </g>
    <g id="text_15">
     <!-- Original data -->
     <g transform="translate(94.6 58.070438) scale(0.1 -0.1)">
      <defs>
       <path id="DejaVuSans-4f" d="M 2522 4238 
Q 1834 4238 1429 3725 
Q 1025 3213 1025 2328 
Q 1025 1447 1429 934 
Q 1834 422 2522 422 
Q 3209 422 3611 934 
Q 4013 1447 4013 2328 
Q 4013 3213 3611 3725 
Q 3209 4238 2522 4238 
z
M 2522 4750 
Q 3503 4750 4090 4092 
Q 4678 3434 4678 2328 
Q 4678 1225 4090 567 
Q 3503 -91 2522 -91 
Q 1538 -91 948 565 
Q 359 1222 359 2328 
Q 359 3434 948 4092 
Q 1538 4750 2522 4750 
z
" transform="scale(0.015625)"/>
      </defs>
      <use xlink:href="#DejaVuSans-4f"/>
      <use xlink:href="#DejaVuSans-72" transform="translate(78.710938 0)"/>
      <use xlink:href="#DejaVuSans-69" transform="translate(119.824219 0)"/>
      <use xlink:href="#DejaVuSans-67" transform="translate(147.607422 0)"/>
      <use xlink:href="#DejaVuSans-69" transform="translate(211.083984 0)"/>
      <use xlink:href="#DejaVuSans-6e" transform="translate(238.867188 0)"/>
      <use xlink:href="#DejaVuSans-61" transform="translate(302.246094 0)"/>
      <use xlink:href="#DejaVuSans-6c" transform="translate(363.525391 0)"/>
      <use xlink:href="#DejaVuSans-20" transform="translate(391.308594 0)"/>
      <use xlink:href="#DejaVuSans-64" transform="translate(423.095703 0)"/>
      <use xlink:href="#DejaVuSans-61" transform="translate(486.572266 0)"/>
      <use xlink:href="#DejaVuSans-74" transform="translate(547.851562 0)"/>
      <use xlink:href="#DejaVuSans-61" transform="translate(587.060547 0)"/>
     </g>
    </g>
    <g id="line2d_16">
     <path d="M 66.6 69.248563 
L 76.6 69.248563 
L 86.6 69.248563 
" style="fill: none; stroke: #ff0000; stroke-width: 1.5; stroke-linecap: square"/>
    </g>
    <g id="text_16">
     <!-- b = 0.5 -->
     <g transform="translate(94.6 72.748563) scale(0.1 -0.1)">
      <defs>
       <path id="DejaVuSans-3d" d="M 678 2906 
L 4684 2906 
L 4684 2381 
L 678 2381 
L 678 2906 
z
M 678 1631 
L 4684 1631 
L 4684 1100 
L 678 1100 
L 678 1631 
z
" transform="scale(0.015625)"/>
       <path id="DejaVuSans-2e" d="M 684 794 
L 1344 794 
L 1344 0 
L 684 0 
L 684 794 
z
" transform="scale(0.015625)"/>
      </defs>
      <use xlink:href="#DejaVuSans-62"/>
      <use xlink:href="#DejaVuSans-2098" transform="translate(63.476562 0)"/>
      <use xlink:href="#DejaVuSans-20" transform="translate(125.78125 0)"/>
      <use xlink:href="#DejaVuSans-3d" transform="translate(157.568359 0)"/>
      <use xlink:href="#DejaVuSans-20" transform="translate(241.357422 0)"/>
      <use xlink:href="#DejaVuSans-30" transform="translate(273.144531 0)"/>
      <use xlink:href="#DejaVuSans-2e" transform="translate(336.767578 0)"/>
      <use xlink:href="#DejaVuSans-35" transform="translate(368.554688 0)"/>
     </g>
    </g>
    <g id="line2d_17">
     <path d="M 66.6 83.926688 
L 76.6 83.926688 
L 86.6 83.926688 
" style="fill: none; stroke: #008000; stroke-width: 1.5; stroke-linecap: square"/>
    </g>
    <g id="text_17">
     <!-- b = 1.0 -->
     <g transform="translate(94.6 87.426688) scale(0.1 -0.1)">
      <use xlink:href="#DejaVuSans-62"/>
      <use xlink:href="#DejaVuSans-2098" transform="translate(63.476562 0)"/>
      <use xlink:href="#DejaVuSans-20" transform="translate(125.78125 0)"/>
      <use xlink:href="#DejaVuSans-3d" transform="translate(157.568359 0)"/>
      <use xlink:href="#DejaVuSans-20" transform="translate(241.357422 0)"/>
      <use xlink:href="#DejaVuSans-31" transform="translate(273.144531 0)"/>
      <use xlink:href="#DejaVuSans-2e" transform="translate(336.767578 0)"/>
      <use xlink:href="#DejaVuSans-30" transform="translate(368.554688 0)"/>
     </g>
    </g>
    <g id="line2d_18">
     <path d="M 66.6 98.604813 
L 76.6 98.604813 
L 86.6 98.604813 
" style="fill: none; stroke: #ffa500; stroke-width: 1.5; stroke-linecap: square"/>
    </g>
    <g id="text_18">
     <!-- b = 1.5 -->
     <g transform="translate(94.6 102.104813) scale(0.1 -0.1)">
      <use xlink:href="#DejaVuSans-62"/>
      <use xlink:href="#DejaVuSans-2098" transform="translate(63.476562 0)"/>
      <use xlink:href="#DejaVuSans-20" transform="translate(125.78125 0)"/>
      <use xlink:href="#DejaVuSans-3d" transform="translate(157.568359 0)"/>
      <use xlink:href="#DejaVuSans-20" transform="translate(241.357422 0)"/>
      <use xlink:href="#DejaVuSans-31" transform="translate(273.144531 0)"/>
      <use xlink:href="#DejaVuSans-2e" transform="translate(336.767578 0)"/>
      <use xlink:href="#DejaVuSans-35" transform="translate(368.554688 0)"/>
     </g>
    </g>
    <g id="line2d_19">
     <path d="M 66.6 113.282938 
L 76.6 113.282938 
L 86.6 113.282938 
" style="fill: none; stroke: #800080; stroke-width: 1.5; stroke-linecap: square"/>
    </g>
    <g id="text_19">
     <!-- b = 2.0 -->
     <g transform="translate(94.6 116.782938) scale(0.1 -0.1)">
      <use xlink:href="#DejaVuSans-62"/>
      <use xlink:href="#DejaVuSans-2098" transform="translate(63.476562 0)"/>
      <use xlink:href="#DejaVuSans-20" transform="translate(125.78125 0)"/>
      <use xlink:href="#DejaVuSans-3d" transform="translate(157.568359 0)"/>
      <use xlink:href="#DejaVuSans-20" transform="translate(241.357422 0)"/>
      <use xlink:href="#DejaVuSans-32" transform="translate(273.144531 0)"/>
      <use xlink:href="#DejaVuSans-2e" transform="translate(336.767578 0)"/>
      <use xlink:href="#DejaVuSans-30" transform="translate(368.554688 0)"/>
     </g>
    </g>
   </g>
  </g>
 </g>
 <defs>
  <clipPath id="p7f7974aeac">
   <rect x="57.6" y="41.472" width="357.12" height="266.112"/>
  </clipPath>
 </defs>
</svg>
