<svg version="1.1" viewBox="0.0 0.0 960.0 540.0" fill="none" stroke="none" stroke-linecap="square" stroke-miterlimit="10" xmlns:xlink="http://www.w3.org/1999/xlink" xmlns="http://www.w3.org/2000/svg"><clipPath id="g3a98feb2627_0_0.0"><path d="m0 0l960.0 0l0 540.0l-960.0 0l0 -540.0z" clip-rule="nonzero"/></clipPath><g clip-path="url(#g3a98feb2627_0_0.0)"><path fill="#000000" fill-opacity="0.0" d="m0 0l960.0 0l0 540.0l-960.0 0z" fill-rule="evenodd"/><path fill="#000000" fill-opacity="0.0" d="m197.05511 54.55118l565.8898 0l0 430.89764l-565.8898 0z" fill-rule="evenodd"/><path stroke="#666666" stroke-width="8.0" stroke-linejoin="round" stroke-linecap="butt" d="m197.05511 54.55118l565.8898 0l0 430.89764l-565.8898 0z" fill-rule="evenodd"/><path fill="#666666" d="m727.44617 50.9483l0 0c0 -16.50766 15.024902 -29.889765 33.55902 -29.889765l0 0c18.53418 0 33.559082 13.382105 33.559082 29.889765l0 0c0 16.507664 -15.024902 29.889767 -33.559082 29.889767l0 0c-18.534119 0 -33.55902 -13.382103 -33.55902 -29.889767z" fill-rule="evenodd"/><path stroke="#666666" stroke-width="3.0" stroke-linejoin="round" stroke-linecap="butt" d="m727.44617 50.9483l0 0c0 -16.50766 15.024902 -29.889765 33.55902 -29.889765l0 0c18.53418 0 33.559082 13.382105 33.559082 29.889765l0 0c0 16.507664 -15.024902 29.889767 -33.559082 29.889767l0 0c-18.534119 0 -33.55902 -13.382103 -33.55902 -29.889767z" fill-rule="evenodd"/><path fill="#000000" fill-opacity="0.0" d="m737.06824 21.057743l47.874023 0l0 66.078735l-47.874023 0z" fill-rule="evenodd"/><path fill="#ffffff" d="m749.7025 68.45774l0 -28.640625l12.703125 0q3.828125 0 5.8125 0.78125q2.0 0.765625 3.1875 2.71875q1.1875 1.953125 1.1875 4.3125q0 3.046875 -1.96875 5.140625q-1.96875 2.09375 -6.09375 2.65625q1.5 0.71875 2.28125 1.421875q1.671875 1.53125 3.15625 3.8125l4.96875 7.796875l-4.765625 0l-3.78125 -5.953125q-1.65625 -2.578125 -2.734375 -3.9375q-1.078125 -1.375 -1.9375 -1.921875q-0.84375 -0.546875 -1.71875 -0.765625q-0.640625 -0.140625 -2.109375 -0.140625l-4.390625 0l0 12.71875l-3.796875 0zm3.796875 -16.0l8.140625 0q2.59375 0 4.0625 -0.53125q1.46875 -0.546875 2.21875 -1.71875q0.765625 -1.1875 0.765625 -2.578125q0 -2.03125 -1.46875 -3.328125q-1.46875 -1.3125 -4.65625 -1.3125l-9.0625 0l0 9.46875z" fill-rule="nonzero"/><path fill="#666666" d="m446.30704 54.097904l0 0c0 -16.50766 15.024902 -29.889763 33.55905 -29.889763l0 0c18.53415 0 33.559082 13.382103 33.559082 29.889763l0 0c0 16.507664 -15.024933 29.889767 -33.559082 29.889767l0 0c-18.53415 0 -33.55905 -13.382103 -33.55905 -29.889767z" fill-rule="evenodd"/><path stroke="#666666" stroke-width="3.0" stroke-linejoin="round" stroke-linecap="butt" d="m446.30704 54.097904l0 0c0 -16.50766 15.024902 -29.889763 33.55905 -29.889763l0 0c18.53415 0 33.559082 13.382103 33.559082 29.889763l0 0c0 16.507664 -15.024933 29.889767 -33.559082 29.889767l0 0c-18.53415 0 -33.55905 -13.382103 -33.55905 -29.889767z" fill-rule="evenodd"/><path fill="#000000" fill-opacity="0.0" d="m455.92914 21.057743l47.874023 0l0 66.078735l-47.874023 0z" fill-rule="evenodd"/><path fill="#ffffff" d="m488.93842 58.410866l3.796875 0.96875q-1.203125 4.65625 -4.296875 7.109375q-3.09375 2.453125 -7.5625 2.453125q-4.625 0 -7.53125 -1.875q-2.90625 -1.890625 -4.421875 -5.46875q-1.5 -3.578125 -1.5 -7.671875q0 -4.46875 1.703125 -7.796875q1.703125 -3.34375 4.859375 -5.0625q3.15625 -1.734375 6.953125 -1.734375q4.296875 0 7.21875 2.1875q2.9375 2.1875 4.078125 6.15625l-3.71875 0.875q-1.0 -3.125 -2.90625 -4.546875q-1.890625 -1.421875 -4.75 -1.421875q-3.3125 0 -5.53125 1.578125q-2.203125 1.578125 -3.109375 4.25q-0.890625 2.65625 -0.890625 5.5q0 3.640625 1.0625 6.375q1.0625 2.71875 3.296875 4.078125q2.25 1.34375 4.875 1.34375q3.1875 0 5.390625 -1.828125q2.203125 -1.84375 2.984375 -5.46875z" fill-rule="nonzero"/><path fill="#ffffff" d="m468.56342 116.45773l0 -28.640625l12.703125 0q3.828125 0 5.8125 0.78125q2.0 0.765625 3.1875 2.71875q1.1875 1.953125 1.1875 4.3125q0 3.046875 -1.96875 5.140625q-1.96875 2.09375 -6.09375 2.65625q1.5 0.71875 2.28125 1.421875q1.671875 1.53125 3.15625 3.8125l4.96875 7.796875l-4.765625 0l-3.78125 -5.953125q-1.65625 -2.578125 -2.734375 -3.9375q-1.078125 -1.375 -1.9375 -1.921875q-0.84375 -0.546875 -1.71875 -0.765625q-0.640625 -0.140625 -2.109375 -0.140625l-4.390625 0l0 12.71875l-3.796875 0zm3.796875 -16.0l8.140625 0q2.59375 0 4.0625 -0.53125q1.46875 -0.546875 2.21875 -1.71875q0.765625 -1.1875 0.765625 -2.578125q0 -2.03125 -1.46875 -3.328125q-1.46875 -1.3125 -4.65625 -1.3125l-9.0625 0l0 9.46875z" fill-rule="nonzero"/><path fill="#666666" d="m165.16792 54.097904l0 0c0 -16.50766 15.024902 -29.889763 33.559067 -29.889763l0 0c18.53415 0 33.55905 13.382103 33.55905 29.889763l0 0c0 16.507664 -15.024902 29.889767 -33.55905 29.889767l0 0c-18.534164 0 -33.559067 -13.382103 -33.559067 -29.889767z" fill-rule="evenodd"/><path stroke="#666666" stroke-width="3.0" stroke-linejoin="round" stroke-linecap="butt" d="m165.16792 54.097904l0 0c0 -16.50766 15.024902 -29.889763 33.559067 -29.889763l0 0c18.53415 0 33.55905 13.382103 33.55905 29.889763l0 0c0 16.507664 -15.024902 29.889767 -33.55905 29.889767l0 0c-18.534164 0 -33.559067 -13.382103 -33.559067 -29.889767z" fill-rule="evenodd"/><path fill="#000000" fill-opacity="0.0" d="m174.79002 21.057743l47.874023 0l0 66.078735l-47.874023 0z" fill-rule="evenodd"/><path fill="#ffffff" d="m190.54149 68.45774l0 -28.640625l3.78125 0l0 25.265625l14.109375 0l0 3.375l-17.890625 0z" fill-rule="nonzero"/><path fill="#666666" d="m586.8766 50.9483l0 0c0 -16.50766 15.024902 -29.889765 33.559082 -29.889765l0 0c18.534119 0 33.55902 13.382105 33.55902 29.889765l0 0c0 16.507664 -15.024902 29.889767 -33.55902 29.889767l0 0c-18.53418 0 -33.559082 -13.382103 -33.559082 -29.889767z" fill-rule="evenodd"/><path stroke="#666666" stroke-width="3.0" stroke-linejoin="round" stroke-linecap="butt" d="m586.8766 50.9483l0 0c0 -16.50766 15.024902 -29.889765 33.559082 -29.889765l0 0c18.534119 0 33.55902 13.382105 33.55902 29.889765l0 0c0 16.507664 -15.024902 29.889767 -33.55902 29.889767l0 0c-18.53418 0 -33.559082 -13.382103 -33.559082 -29.889767z" fill-rule="evenodd"/><path fill="#000000" fill-opacity="0.0" d="m596.49866 21.057743l47.874023 0l0 66.078735l-47.874023 0z" fill-rule="evenodd"/><path fill="#ffffff" d="m618.5939 68.45774l0 -25.25l-9.4375 0l0 -3.390625l22.703125 0l0 3.390625l-9.484375 0l0 25.25l-3.78125 0z" fill-rule="nonzero"/><path fill="#666666" d="m586.8766 266.8512l0 0c0 -16.507675 15.024902 -29.88977 33.559082 -29.88977l0 0c18.534119 0 33.55902 13.382095 33.55902 29.88977l0 0c0 16.50766 -15.024902 29.88974 -33.55902 29.88974l0 0c-18.53418 0 -33.559082 -13.38208 -33.559082 -29.88974z" fill-rule="evenodd"/><path stroke="#666666" stroke-width="3.0" stroke-linejoin="round" stroke-linecap="butt" d="m586.8766 266.8512l0 0c0 -16.507675 15.024902 -29.88977 33.559082 -29.88977l0 0c18.534119 0 33.55902 13.382095 33.55902 29.88977l0 0c0 16.50766 -15.024902 29.88974 -33.55902 29.88974l0 0c-18.53418 0 -33.559082 -13.38208 -33.559082 -29.88974z" fill-rule="evenodd"/><path fill="#000000" fill-opacity="0.0" d="m596.49866 236.96063l47.874023 0l0 66.078735l-47.874023 0z" fill-rule="evenodd"/><path fill="#ffffff" d="m608.4674 284.36063l0 -28.640625l5.703125 0l6.78125 20.28125q0.9375 2.828125 1.359375 4.234375q0.5 -1.5625 1.53125 -4.59375l6.859375 -19.921875l5.09375 0l0 28.640625l-3.65625 0l0 -23.96875l-8.3125 23.96875l-3.421875 0l-8.28125 -24.375l0 24.375l-3.65625 0z" fill-rule="nonzero"/><path fill="#666666" d="m586.8766 482.75406l0 0c0 -16.50766 15.024902 -29.88974 33.559082 -29.88974l0 0c18.534119 0 33.55902 13.38208 33.55902 29.88974l0 0c0 16.50766 -15.024902 29.889801 -33.55902 29.889801l0 0c-18.53418 0 -33.559082 -13.382141 -33.559082 -29.889801z" fill-rule="evenodd"/><path stroke="#666666" stroke-width="3.0" stroke-linejoin="round" stroke-linecap="butt" d="m586.8766 482.75406l0 0c0 -16.50766 15.024902 -29.88974 33.559082 -29.88974l0 0c18.534119 0 33.55902 13.38208 33.55902 29.88974l0 0c0 16.50766 -15.024902 29.889801 -33.55902 29.889801l0 0c-18.53418 0 -33.559082 -13.382141 -33.559082 -29.889801z" fill-rule="evenodd"/><path fill="#000000" fill-opacity="0.0" d="m596.49866 452.86353l47.874023 0l0 66.078735l-47.874023 0z" fill-rule="evenodd"/><path fill="#ffffff" d="m610.0333 500.26352l0 -28.640625l10.734375 0q3.28125 0 5.265625 0.875q1.984375 0.875 3.109375 2.6875q1.125 1.796875 1.125 3.765625q0 1.84375 -1.0 3.46875q-1.0 1.609375 -3.015625 2.609375q2.609375 0.765625 4.0 2.609375q1.390625 1.828125 1.390625 4.328125q0 2.0 -0.84375 3.734375q-0.84375 1.734375 -2.09375 2.671875q-1.25 0.9375 -3.140625 1.421875q-1.890625 0.46875 -4.625 0.46875l-10.90625 0zm3.78125 -16.609375l6.1875 0q2.53125 0 3.625 -0.328125q1.4375 -0.421875 2.171875 -1.421875q0.734375 -1.0 0.734375 -2.5q0 -1.421875 -0.6875 -2.5q-0.6875 -1.09375 -1.953125 -1.484375q-1.265625 -0.40625 -4.359375 -0.40625l-5.71875 0l0 8.640625zm0 13.234375l7.125 0q1.84375 0 2.578125 -0.140625q1.3125 -0.234375 2.1875 -0.78125q0.890625 -0.546875 1.453125 -1.59375q0.5625 -1.046875 0.5625 -2.40625q0 -1.609375 -0.828125 -2.78125q-0.8125 -1.1875 -2.265625 -1.65625q-1.453125 -0.484375 -4.1875 -0.484375l-6.625 0l0 9.84375z" fill-rule="nonzero"/></g></svg>