<svg version="1.1" viewBox="0.0 0.0 960.0 540.0" fill="none" stroke="none" stroke-linecap="square" stroke-miterlimit="10" xmlns:xlink="http://www.w3.org/1999/xlink" xmlns="http://www.w3.org/2000/svg"><clipPath id="g3a9292142b1_0_0.0"><path d="m0 0l960.0 0l0 540.0l-960.0 0l0 -540.0z" clip-rule="nonzero"/></clipPath><g clip-path="url(#g3a9292142b1_0_0.0)"><path fill="#000000" fill-opacity="0.0" d="m0 0l960.0 0l0 540.0l-960.0 0z" fill-rule="evenodd"/><path fill="#666666" d="m149.46977 467.72256l0 0c0 -16.50766 15.024887 -29.88974 33.55905 -29.88974l0 0c18.53415 0 33.55905 13.38208 33.55905 29.88974l0 0c0 16.50766 -15.024902 29.88977 -33.55905 29.88977l0 0c-18.534164 0 -33.55905 -13.382111 -33.55905 -29.88977z" fill-rule="evenodd"/><path stroke="#666666" stroke-width="3.0" stroke-linejoin="round" stroke-linecap="butt" d="m149.46977 467.72256l0 0c0 -16.50766 15.024887 -29.88974 33.55905 -29.88974l0 0c18.53415 0 33.55905 13.38208 33.55905 29.88974l0 0c0 16.50766 -15.024902 29.88977 -33.55905 29.88977l0 0c-18.534164 0 -33.55905 -13.382111 -33.55905 -29.88977z" fill-rule="evenodd"/><path fill="#666666" d="m712.4519 467.72256l0 0c0 -16.50766 15.024902 -29.88974 33.559082 -29.88974l0 0c18.534119 0 33.55902 13.38208 33.55902 29.88974l0 0c0 16.50766 -15.024902 29.88977 -33.55902 29.88977l0 0c-18.53418 0 -33.559082 -13.382111 -33.559082 -29.88977z" fill-rule="evenodd"/><path stroke="#666666" stroke-width="3.0" stroke-linejoin="round" stroke-linecap="butt" d="m712.4519 467.72256l0 0c0 -16.50766 15.024902 -29.88974 33.559082 -29.88974l0 0c18.534119 0 33.55902 13.38208 33.55902 29.88974l0 0c0 16.50766 -15.024902 29.88977 -33.55902 29.88977l0 0c-18.53418 0 -33.559082 -13.382111 -33.559082 -29.88977z" fill-rule="evenodd"/><path fill="#666666" d="m430.96695 65.99464l0 0c0 -16.507664 15.024902 -29.889767 33.55905 -29.889767l0 0c18.53415 0 33.55905 13.382103 33.55905 29.889767l0 0c0 16.50766 -15.024902 29.889763 -33.55905 29.889763l0 0c-18.53415 0 -33.55905 -13.382103 -33.55905 -29.889763z" fill-rule="evenodd"/><path stroke="#666666" stroke-width="3.0" stroke-linejoin="round" stroke-linecap="butt" d="m430.96695 65.99464l0 0c0 -16.507664 15.024902 -29.889767 33.55905 -29.889767l0 0c18.53415 0 33.55905 13.382103 33.55905 29.889767l0 0c0 16.50766 -15.024902 29.889763 -33.55905 29.889763l0 0c-18.53415 0 -33.55905 -13.382103 -33.55905 -29.889763z" fill-rule="evenodd"/><path fill="#000000" fill-opacity="0.0" d="m216.58788 467.72256l495.87402 0" fill-rule="evenodd"/><path stroke="#666666" stroke-width="3.0" stroke-linejoin="round" stroke-linecap="butt" d="m216.58788 467.72256l495.87402 0" fill-rule="evenodd"/><path fill="#000000" fill-opacity="0.0" d="m722.2811 446.5873l-234.01575 -359.46454" fill-rule="evenodd"/><path stroke="#666666" stroke-width="3.0" stroke-linejoin="round" stroke-linecap="butt" d="m722.2811 446.5873l-234.01575 -359.46454" fill-rule="evenodd"/><path fill="#000000" fill-opacity="0.0" d="m206.75865 446.5873l234.04726 -359.46454" fill-rule="evenodd"/><path stroke="#666666" stroke-width="3.0" stroke-linejoin="round" stroke-linecap="butt" d="m206.75865 446.5873l234.04726 -359.46454" fill-rule="evenodd"/><path fill="#1faaec" d="m430.96695 247.33815l0 0c0 -16.50766 15.024902 -29.889755 33.55905 -29.889755l0 0c18.53415 0 33.55905 13.382095 33.55905 29.889755l0 0c0 16.507675 -15.024902 29.889755 -33.55905 29.889755l0 0c-18.53415 0 -33.55905 -13.38208 -33.55905 -29.889755z" fill-rule="evenodd"/><path stroke="#1faaec" stroke-width="3.0" stroke-linejoin="round" stroke-linecap="butt" d="m430.96695 247.33815l0 0c0 -16.50766 15.024902 -29.889755 33.55905 -29.889755l0 0c18.53415 0 33.55905 13.382095 33.55905 29.889755l0 0c0 16.507675 -15.024902 29.889755 -33.55905 29.889755l0 0c-18.53415 0 -33.55905 -13.38208 -33.55905 -29.889755z" fill-rule="evenodd"/><path fill="#1faaec" d="m498.09735 360.0663l0 0c0 -16.50766 15.024902 -29.88977 33.559082 -29.88977l0 0c18.534119 0 33.55902 13.382111 33.55902 29.88977l0 0c0 16.50766 -15.024902 29.88977 -33.55902 29.88977l0 0c-18.53418 0 -33.559082 -13.382111 -33.559082 -29.88977z" fill-rule="evenodd"/><path stroke="#1faaec" stroke-width="3.0" stroke-linejoin="round" stroke-linecap="butt" d="m498.09735 360.0663l0 0c0 -16.50766 15.024902 -29.88977 33.559082 -29.88977l0 0c18.534119 0 33.55902 13.382111 33.55902 29.88977l0 0c0 16.50766 -15.024902 29.88977 -33.55902 29.88977l0 0c-18.53418 0 -33.559082 -13.382111 -33.559082 -29.88977z" fill-rule="evenodd"/><path fill="#1faaec" d="m335.06174 387.38025l0 0c0 -16.50766 15.024902 -29.88977 33.55905 -29.88977l0 0c18.53415 0 33.55905 13.382111 33.55905 29.88977l0 0c0 16.50766 -15.024902 29.88977 -33.55905 29.88977l0 0c-18.53415 0 -33.55905 -13.382111 -33.55905 -29.88977z" fill-rule="evenodd"/><path stroke="#1faaec" stroke-width="3.0" stroke-linejoin="round" stroke-linecap="butt" d="m335.06174 387.38025l0 0c0 -16.50766 15.024902 -29.88977 33.55905 -29.88977l0 0c18.53415 0 33.55905 13.382111 33.55905 29.88977l0 0c0 16.50766 -15.024902 29.88977 -33.55905 29.88977l0 0c-18.53415 0 -33.55905 -13.382111 -33.55905 -29.88977z" fill-rule="evenodd"/><path fill="#000000" fill-opacity="0.0" d="m344.89096 408.5155l-128.31497 59.212616" fill-rule="evenodd"/><path stroke="#666666" stroke-width="3.0" stroke-linejoin="round" stroke-linecap="butt" d="m344.89096 408.5155l-128.31497 59.212616" fill-rule="evenodd"/><path fill="#000000" fill-opacity="0.0" d="m368.6208 357.49048l72.188965 -89.00787" fill-rule="evenodd"/><path stroke="#666666" stroke-width="3.0" stroke-linejoin="round" stroke-linecap="butt" d="m368.6208 357.49048l72.188965 -89.00787" fill-rule="evenodd"/><path fill="#000000" fill-opacity="0.0" d="m402.17984 387.38025l95.90552 -27.307098" fill-rule="evenodd"/><path stroke="#666666" stroke-width="3.0" stroke-linejoin="round" stroke-linecap="butt" d="m402.17984 387.38025l95.90552 -27.307098" fill-rule="evenodd"/><path fill="#000000" fill-opacity="0.0" d="m555.3862 381.20157l166.89764 65.38583" fill-rule="evenodd"/><path stroke="#666666" stroke-width="3.0" stroke-linejoin="round" stroke-linecap="butt" d="m555.3862 381.20157l166.89764 65.38583" fill-rule="evenodd"/><path fill="#000000" fill-opacity="0.0" d="m464.526 217.4484l0 -121.57481" fill-rule="evenodd"/><path stroke="#666666" stroke-width="3.0" stroke-linejoin="round" stroke-linecap="butt" d="m464.526 217.4484l0 -121.57481" fill-rule="evenodd"/><path fill="#000000" fill-opacity="0.0" d="m368.6208 357.49048l95.90552 -261.6063" fill-rule="evenodd"/><path stroke="#666666" stroke-width="3.0" stroke-linejoin="round" stroke-linecap="butt" d="m368.6208 357.49048l95.90552 -261.6063" fill-rule="evenodd"/><path fill="#000000" fill-opacity="0.0" d="m498.08505 247.33815l224.189 199.2441" fill-rule="evenodd"/><path stroke="#666666" stroke-width="3.0" stroke-linejoin="round" stroke-linecap="butt" d="m498.08505 247.33815l224.189 199.2441" fill-rule="evenodd"/></g></svg>